<svg version="1.1" xmlns="http://www.w3.org/2000/svg" style="display: block;" viewBox="0 0 2048 2048" width="1024" height="1024" preserveAspectRatio="none" xmlns:c2pa="http://c2pa.org/manifest"><metadata><c2pa:manifest>AAAzs2p1bWIAAAAeanVtZGMycGEAEQAQgAAAqgA4m3EDYzJwYQAAADONanVtYgAAAEdqdW1kYzJtYQARABCAAACqADibcQN1cm46YzJwYTplMjkyODllNy1mZDcxLTRjMWMtOTg1NC03ZWVkNjBmYTQ3ZTEAAAAB4mp1bWIAAAApanVtZGMyYXMAEQAQgAAAqgA4m3EDYzJwYS5hc3NlcnRpb25zAAAAAO1qdW1iAAAAQWp1bWRjYm9yABEAEIAAAKoAOJtxE2MycGEuYWN0aW9ucy52MgAAAAAYYzJzaLXrUIA/cqSuYk7m55kOsIoAAACkY2JvcqFnYWN0aW9uc4GjZmFjdGlvbmxjMnBhLmNyZWF0ZWRxZGlnaXRhbFNvdXJjZVR5cGV4Rmh0dHA6Ly9jdi5pcHRjLm9yZy9uZXdzY29kZXMvZGlnaXRhbHNvdXJjZXR5cGUvdHJhaW5lZEFsZ29yaXRobWljTWVkaWFrZGVzY3JpcHRpb252Q3JlYXRlZCBieSBSZWNyYWZ0IEFJLgAAAMRqdW1iAAAAQGp1bWRjYm9yABEAEIAAAKoAOJtxE2MycGEuaGFzaC5kYXRhAAAAABhjMnNo4T7Z8JyIV7YjKC4KuRBo1QAAAHxjYm9ypWpleGNsdXNpb25zgaJlc3RhcnQY22ZsZW5ndGgZRPBkbmFtZW5qdW1iZiBtYW5pZmVzdGNhbGdmc2hhMjU2ZGhhc2hYIFwOUo5gP1FVv0Bjo0I6F826YzyIbWZpdUdaMXZHmHUlY3BhZEkAAAAAAAAAAAAAAAI0anVtYgAAACdqdW1kYzJjbAARABCAAACqADibcQNjMnBhLmNsYWltLnYyAAAAAgVjYm9ypmppbnN0YW5jZUlEeCx4bXA6aWlkOmNkOWRiM2Y4LWY3ZmUtNGFmMi05ZTA0LTUxOTg0ZTFjZjIzMnRjbGFpbV9nZW5lcmF0b3JfaW5mb6NkbmFtZWpyZWNyYWZ0LmFpZ3ZlcnNpb254KDgxY2U4MmUyYzVjM2NiZmJlOGM2ZmJlMTc5ZDVmOGQ5MWM0MDljZTF3b3JnLmNvbnRlbnRhdXRoLmMycGFfcnNmMC45MC43aXNpZ25hdHVyZXhNc2VsZiNqdW1iZj0vYzJwYS91cm46YzJwYTplMjkyODllNy1mZDcxLTRjMWMtOTg1NC03ZWVkNjBmYTQ3ZTEvYzJwYS5zaWduYXR1cmVyY3JlYXRlZF9hc3NlcnRpb25zgqJjdXJseCpzZWxmI2p1bWJmPWMycGEuYXNzZXJ0aW9ucy9jMnBhLmFjdGlvbnMudjJkaGFzaFggeazqfDgLXS75wQqktD7Xgvs5xHILQ5U6k/XZS6y/E6miY3VybHgpc2VsZiNqdW1iZj1jMnBhLmFzc2VydGlvbnMvYzJwYS5oYXNoLmRhdGFkaGFzaFggdSHMgZVHfXxeRwdcxvVtg3mGKKfRwm+q11hzuVP+IrdoZGM6dGl0bGV4GlJlY3JhZnQgQUkgR2VuZXJhdGVkIEltYWdlY2FsZ2ZzaGEyNTYAAC8oanVtYgAAAChqdW1kYzJjcwARABCAAACqADibcQNjMnBhLnNpZ25hdHVyZQAAAC74Y2JvctKEWQPsogEmGCGCWQH0MIIB8DCCAZWgAwIBAgIUJcFH1Va4pZJDhzepwEtzPPNj2YMwCgYIKoZIzj0EAwIwQTELMAkGA1UEBhMCVVMxEzARBgNVBAoMClJlY3JhZnQgQUkxHTAbBgNVBAMMFFJlY3JhZnQgQzJQQSBSb290IENBMB4XDTI2MDkxMDE2NTIzNFoXDTI3MDkxMDE2NTIzNFowNzELMAkGA1UEBhMCVVMxEzARBgNVBAoMClJlY3JhZnQgQUkxEzARBgNVBAMMCnJlY3JhZnQuYWkwWTATBgcqhkjOPQIBBggqhkjOPQMBBwNCAASoOPdqG3YmNRdGd+dltfh1ikcE/nkLm8YK10H29taFa8iegusHYB1678yl5Bs18hLaV/Fhd+Ni32xAlnHdbimFo3UwczAMBgNVHRMBAf8EAjAAMA4GA1UdDwEB/wQEAwIGwDATBgNVHSUEDDAKBggrBgEFBQcDBDAdBgNVHQ4EFgQUgVwhvbEXPSSgCubOfUHxCtuoVAQwHwYDVR0jBBgwFoAUc9yF+sfWlRHeWv2Iucaec5jwdAgwCgYIKoZIzj0EAwIDSQAwRgIhAJltDpQN+vbXITLxb+8BNwSL6/5WktO4Sevkb0VXjtfWAiEAqhoz7z/sN32NxdnnZsQVTeu3P7CgGtJdXFx283fp08RZAewwggHoMIIBjaADAgECAhQAydo/NKOQWWu/4V5FktVQHX7jTDAKBggqhkjOPQQDAjBBMQswCQYDVQQGEwJVUzETMBEGA1UECgwKUmVjcmFmdCBBSTEdMBsGA1UEAwwUUmVjcmFmdCBDMlBBIFJvb3QgQ0EwHhcNMjYwOTEwMTY1MjM0WhcNMzYwOTA3MTY1MjM0WjBBMQswCQYDVQQGEwJVUzETMBEGA1UECgwKUmVjcmFmdCBBSTEdMBsGA1UEAwwUUmVjcmFmdCBDMlBBIFJvb3QgQ0EwWTATBgcqhkjOPQIBBggqhkjOPQMBBwNCAAQbQ+eF6fkpnHhTwrMxSBLh/JhROWkzsC8L8jN1r1Rlf8oECvzEFk3WujloPtNs3PLADriqR5rGtd+8giFuiTLno2MwYTAfBgNVHSMEGDAWgBRz3IX6x9aVEd5a/Yi5xp5zmPB0CDAPBgNVHRMBAf8EBTADAQH/MA4GA1UdDwEB/wQEAwIBhjAdBgNVHQ4EFgQUc9yF+sfWlRHeWv2Iucaec5jwdAgwCgYIKoZIzj0EAwIDSQAwRgIhAND2Z+xryBRnMbxk8eAzMcAq8bzl0rfA9Y2z7q5QoEUeAiEA6ZbI3e47h5clRZaARSOOotKXsK/YQMWC3vj91d3bmlOhY3BhZFkqtAAAAAAAAAAAAAAAAAAAAAAAAAAAAAAAAAAAAAAAAAAAAAAAAAAAAAAAAAAAAAAAAAAAAAAAAAAAAAAAAAAAAAAAAAAAAAAAAAAAAAAAAAAAAAAAAAAAAAAAAAAAAAAAAAAAAAAAAAAAAAAAAAAAAAAAAAAAAAAAAAAAAAAAAAAAAAAAAAAAAAAAAAAAAAAAAAAAAAAAAAAAAAAAAAAAAAAAAAAAAAAAAAAAAAAAAAAAAAAAAAAAAAAAAAAAAAAAAAAAAAAAAAAAAAAAAAAAAAAAAAAAAAAAAAAAAAAAAAAAAAAAAAAAAAAAAAAAAAAAAAAAAAAAAAAAAAAAAAAAAAAAAAAAAAAAAAAAAAAAAAAAAAAAAAAAAAAAAAAAAAAAAAAAAAAAAAAAAAAAAAAAAAAAAAAAAAAAAAAAAAAAAAAAAAAAAAAAAAAAAAAAAAAAAAAAAAAAAAAAAAAAAAAAAAAAAAAAAAAAAAAAAAAAAAAAAAAAAAAAAAAAAAAAAAAAAAAAAAAAAAAAAAAAAAAAAAAAAAAAAAAAAAAAAAAAAAAAAAAAAAAAAAAAAAAAAAAAAAAAAAAAAAAAAAAAAAAAAAAAAAAAAAAAAAAAAAAAAAAAAAAAAAAAAAAAAAAAAAAAAAAAAAAAAAAAAAAAAAAAAAAAAAAAAAAAAAAAAAAAAAAAAAAAAAAAAAAAAAAAAAAAAAAAAAAAAAAAAAAAAAAAAAAAAAAAAAAAAAAAAAAAAAAAAAAAAAAAAAAAAAAAAAAAAAAAAAAAAAAAAAAAAAAAAAAAAAAAAAAAAAAAAAAAAAAAAAAAAAAAAAAAAAAAAAAAAAAAAAAAAAAAAAAAAAAAAAAAAAAAAAAAAAAAAAAAAAAAAAAAAAAAAAAAAAAAAAAAAAAAAAAAAAAAAAAAAAAAAAAAAAAAAAAAAAAAAAAAAAAAAAAAAAAAAAAAAAAAAAAAAAAAAAAAAAAAAAAAAAAAAAAAAAAAAAAAAAAAAAAAAAAAAAAAAAAAAAAAAAAAAAAAAAAAAAAAAAAAAAAAAAAAAAAAAAAAAAAAAAAAAAAAAAAAAAAAAAAAAAAAAAAAAAAAAAAAAAAAAAAAAAAAAAAAAAAAAAAAAAAAAAAAAAAAAAAAAAAAAAAAAAAAAAAAAAAAAAAAAAAAAAAAAAAAAAAAAAAAAAAAAAAAAAAAAAAAAAAAAAAAAAAAAAAAAAAAAAAAAAAAAAAAAAAAAAAAAAAAAAAAAAAAAAAAAAAAAAAAAAAAAAAAAAAAAAAAAAAAAAAAAAAAAAAAAAAAAAAAAAAAAAAAAAAAAAAAAAAAAAAAAAAAAAAAAAAAAAAAAAAAAAAAAAAAAAAAAAAAAAAAAAAAAAAAAAAAAAAAAAAAAAAAAAAAAAAAAAAAAAAAAAAAAAAAAAAAAAAAAAAAAAAAAAAAAAAAAAAAAAAAAAAAAAAAAAAAAAAAAAAAAAAAAAAAAAAAAAAAAAAAAAAAAAAAAAAAAAAAAAAAAAAAAAAAAAAAAAAAAAAAAAAAAAAAAAAAAAAAAAAAAAAAAAAAAAAAAAAAAAAAAAAAAAAAAAAAAAAAAAAAAAAAAAAAAAAAAAAAAAAAAAAAAAAAAAAAAAAAAAAAAAAAAAAAAAAAAAAAAAAAAAAAAAAAAAAAAAAAAAAAAAAAAAAAAAAAAAAAAAAAAAAAAAAAAAAAAAAAAAAAAAAAAAAAAAAAAAAAAAAAAAAAAAAAAAAAAAAAAAAAAAAAAAAAAAAAAAAAAAAAAAAAAAAAAAAAAAAAAAAAAAAAAAAAAAAAAAAAAAAAAAAAAAAAAAAAAAAAAAAAAAAAAAAAAAAAAAAAAAAAAAAAAAAAAAAAAAAAAAAAAAAAAAAAAAAAAAAAAAAAAAAAAAAAAAAAAAAAAAAAAAAAAAAAAAAAAAAAAAAAAAAAAAAAAAAAAAAAAAAAAAAAAAAAAAAAAAAAAAAAAAAAAAAAAAAAAAAAAAAAAAAAAAAAAAAAAAAAAAAAAAAAAAAAAAAAAAAAAAAAAAAAAAAAAAAAAAAAAAAAAAAAAAAAAAAAAAAAAAAAAAAAAAAAAAAAAAAAAAAAAAAAAAAAAAAAAAAAAAAAAAAAAAAAAAAAAAAAAAAAAAAAAAAAAAAAAAAAAAAAAAAAAAAAAAAAAAAAAAAAAAAAAAAAAAAAAAAAAAAAAAAAAAAAAAAAAAAAAAAAAAAAAAAAAAAAAAAAAAAAAAAAAAAAAAAAAAAAAAAAAAAAAAAAAAAAAAAAAAAAAAAAAAAAAAAAAAAAAAAAAAAAAAAAAAAAAAAAAAAAAAAAAAAAAAAAAAAAAAAAAAAAAAAAAAAAAAAAAAAAAAAAAAAAAAAAAAAAAAAAAAAAAAAAAAAAAAAAAAAAAAAAAAAAAAAAAAAAAAAAAAAAAAAAAAAAAAAAAAAAAAAAAAAAAAAAAAAAAAAAAAAAAAAAAAAAAAAAAAAAAAAAAAAAAAAAAAAAAAAAAAAAAAAAAAAAAAAAAAAAAAAAAAAAAAAAAAAAAAAAAAAAAAAAAAAAAAAAAAAAAAAAAAAAAAAAAAAAAAAAAAAAAAAAAAAAAAAAAAAAAAAAAAAAAAAAAAAAAAAAAAAAAAAAAAAAAAAAAAAAAAAAAAAAAAAAAAAAAAAAAAAAAAAAAAAAAAAAAAAAAAAAAAAAAAAAAAAAAAAAAAAAAAAAAAAAAAAAAAAAAAAAAAAAAAAAAAAAAAAAAAAAAAAAAAAAAAAAAAAAAAAAAAAAAAAAAAAAAAAAAAAAAAAAAAAAAAAAAAAAAAAAAAAAAAAAAAAAAAAAAAAAAAAAAAAAAAAAAAAAAAAAAAAAAAAAAAAAAAAAAAAAAAAAAAAAAAAAAAAAAAAAAAAAAAAAAAAAAAAAAAAAAAAAAAAAAAAAAAAAAAAAAAAAAAAAAAAAAAAAAAAAAAAAAAAAAAAAAAAAAAAAAAAAAAAAAAAAAAAAAAAAAAAAAAAAAAAAAAAAAAAAAAAAAAAAAAAAAAAAAAAAAAAAAAAAAAAAAAAAAAAAAAAAAAAAAAAAAAAAAAAAAAAAAAAAAAAAAAAAAAAAAAAAAAAAAAAAAAAAAAAAAAAAAAAAAAAAAAAAAAAAAAAAAAAAAAAAAAAAAAAAAAAAAAAAAAAAAAAAAAAAAAAAAAAAAAAAAAAAAAAAAAAAAAAAAAAAAAAAAAAAAAAAAAAAAAAAAAAAAAAAAAAAAAAAAAAAAAAAAAAAAAAAAAAAAAAAAAAAAAAAAAAAAAAAAAAAAAAAAAAAAAAAAAAAAAAAAAAAAAAAAAAAAAAAAAAAAAAAAAAAAAAAAAAAAAAAAAAAAAAAAAAAAAAAAAAAAAAAAAAAAAAAAAAAAAAAAAAAAAAAAAAAAAAAAAAAAAAAAAAAAAAAAAAAAAAAAAAAAAAAAAAAAAAAAAAAAAAAAAAAAAAAAAAAAAAAAAAAAAAAAAAAAAAAAAAAAAAAAAAAAAAAAAAAAAAAAAAAAAAAAAAAAAAAAAAAAAAAAAAAAAAAAAAAAAAAAAAAAAAAAAAAAAAAAAAAAAAAAAAAAAAAAAAAAAAAAAAAAAAAAAAAAAAAAAAAAAAAAAAAAAAAAAAAAAAAAAAAAAAAAAAAAAAAAAAAAAAAAAAAAAAAAAAAAAAAAAAAAAAAAAAAAAAAAAAAAAAAAAAAAAAAAAAAAAAAAAAAAAAAAAAAAAAAAAAAAAAAAAAAAAAAAAAAAAAAAAAAAAAAAAAAAAAAAAAAAAAAAAAAAAAAAAAAAAAAAAAAAAAAAAAAAAAAAAAAAAAAAAAAAAAAAAAAAAAAAAAAAAAAAAAAAAAAAAAAAAAAAAAAAAAAAAAAAAAAAAAAAAAAAAAAAAAAAAAAAAAAAAAAAAAAAAAAAAAAAAAAAAAAAAAAAAAAAAAAAAAAAAAAAAAAAAAAAAAAAAAAAAAAAAAAAAAAAAAAAAAAAAAAAAAAAAAAAAAAAAAAAAAAAAAAAAAAAAAAAAAAAAAAAAAAAAAAAAAAAAAAAAAAAAAAAAAAAAAAAAAAAAAAAAAAAAAAAAAAAAAAAAAAAAAAAAAAAAAAAAAAAAAAAAAAAAAAAAAAAAAAAAAAAAAAAAAAAAAAAAAAAAAAAAAAAAAAAAAAAAAAAAAAAAAAAAAAAAAAAAAAAAAAAAAAAAAAAAAAAAAAAAAAAAAAAAAAAAAAAAAAAAAAAAAAAAAAAAAAAAAAAAAAAAAAAAAAAAAAAAAAAAAAAAAAAAAAAAAAAAAAAAAAAAAAAAAAAAAAAAAAAAAAAAAAAAAAAAAAAAAAAAAAAAAAAAAAAAAAAAAAAAAAAAAAAAAAAAAAAAAAAAAAAAAAAAAAAAAAAAAAAAAAAAAAAAAAAAAAAAAAAAAAAAAAAAAAAAAAAAAAAAAAAAAAAAAAAAAAAAAAAAAAAAAAAAAAAAAAAAAAAAAAAAAAAAAAAAAAAAAAAAAAAAAAAAAAAAAAAAAAAAAAAAAAAAAAAAAAAAAAAAAAAAAAAAAAAAAAAAAAAAAAAAAAAAAAAAAAAAAAAAAAAAAAAAAAAAAAAAAAAAAAAAAAAAAAAAAAAAAAAAAAAAAAAAAAAAAAAAAAAAAAAAAAAAAAAAAAAAAAAAAAAAAAAAAAAAAAAAAAAAAAAAAAAAAAAAAAAAAAAAAAAAAAAAAAAAAAAAAAAAAAAAAAAAAAAAAAAAAAAAAAAAAAAAAAAAAAAAAAAAAAAAAAAAAAAAAAAAAAAAAAAAAAAAAAAAAAAAAAAAAAAAAAAAAAAAAAAAAAAAAAAAAAAAAAAAAAAAAAAAAAAAAAAAAAAAAAAAAAAAAAAAAAAAAAAAAAAAAAAAAAAAAAAAAAAAAAAAAAAAAAAAAAAAAAAAAAAAAAAAAAAAAAAAAAAAAAAAAAAAAAAAAAAAAAAAAAAAAAAAAAAAAAAAAAAAAAAAAAAAAAAAAAAAAAAAAAAAAAAAAAAAAAAAAAAAAAAAAAAAAAAAAAAAAAAAAAAAAAAAAAAAAAAAAAAAAAAAAAAAAAAAAAAAAAAAAAAAAAAAAAAAAAAAAAAAAAAAAAAAAAAAAAAAAAAAAAAAAAAAAAAAAAAAAAAAAAAAAAAAAAAAAAAAAAAAAAAAAAAAAAAAAAAAAAAAAAAAAAAAAAAAAAAAAAAAAAAAAAAAAAAAAAAAAAAAAAAAAAAAAAAAAAAAAAAAAAAAAAAAAAAAAAAAAAAAAAAAAAAAAAAAAAAAAAAAAAAAAAAAAAAAAAAAAAAAAAAAAAAAAAAAAAAAAAAAAAAAAAAAAAAAAAAAAAAAAAAAAAAAAAAAAAAAAAAAAAAAAAAAAAAAAAAAAAAAAAAAAAAAAAAAAAAAAAAAAAAAAAAAAAAAAAAAAAAAAAAAAAAAAAAAAAAAAAAAAAAAAAAAAAAAAAAAAAAAAAAAAAAAAAAAAAAAAAAAAAAAAAAAAAAAAAAAAAAAAAAAAAAAAAAAAAAAAAAAAAAAAAAAAAAAAAAAAAAAAAAAAAAAAAAAAAAAAAAAAAAAAAAAAAAAAAAAAAAAAAAAAAAAAAAAAAAAAAAAAAAAAAAAAAAAAAAAAAAAAAAAAAAAAAAAAAAAAAAAAAAAAAAAAAAAAAAAAAAAAAAAAAAAAAAAAAAAAAAAAAAAAAAAAAAAAAAAAAAAAAAAAAAAAAAAAAAAAAAAAAAAAAAAAAAAAAAAAAAAAAAAAAAAAAAAAAAAAAAAAAAAAAAAAAAAAAAAAAAAAAAAAAAAAAAAAAAAAAAAAAAAAAAAAAAAAAAAAAAAAAAAAAAAAAAAAAAAAAAAAAAAAAAAAAAAAAAAAAAAAAAAAAAAAAAAAAAAAAAAAAAAAAAAAAAAAAAAAAAAAAAAAAAAAAAAAAAAAAAAAAAAAAAAAAAAAAAAAAAAAAAAAAAAAAAAAAAAAAAAAAAAAAAAAAAAAAAAAAAAAAAAAAAAAAAAAAAAAAAAAAAAAAAAAAAAAAAAAAAAAAAAAAAAAAAAAAAAAAAAAAAAAAAAAAAAAAAAAAAAAAAAAAAAAAAAAAAAAAAAAAAAAAAAAAAAAAAAAAAAAAAAAAAAAAAAAAAAAAAAAAAAAAAAAAAAAAAAAAAAAAAAAAAAAAAAAAAAAAAAAAAAAAAAAAAAAAAAAAAAAAAAAAAAAAAAAAAAAAAAAAAAAAAAAAAAAAAAAAAAAAAAAAAAAAAAAAAAAAAAAAAAAAAAAAAAAAAAAAAAAAAAAAAAAAAAAAAAAAAAAAAAAAAAAAAAAAAAAAAAAAAAAAAAAAAAAAAAAAAAAAAAAAAAAAAAAAAAAAAAAAAAAAAAAAAAAAAAAAAAAAAAAAAAAAAAAAAAAAAAAAAAAAAAAAAAAAAAAAAAAAAAAAAAAAAAAAAAAAAAAAAAAAAAAAAAAAAAAAAAAAAAAAAAAAAAAAAAAAAAAAAAAAAAAAAAAAAAAAAAAAAAAAAAAAAAAAAAAAAAAAAAAAAAAAAAAAAAAAAAAAAAAAAAAAAAAAAAAAAAAAAAAAAAAAAAAAAAAAAAAAAAAAAAAAAAAAAAAAAAAAAAAAAAAAAAAAAAAAAAAAAAAAAAAAAAAAAAAAAAAAAAAAAAAAAAAAAAAAAAAAAAAAAAAAAAAAAAAAAAAAAAAAAAAAAAAAAAAAAAAAAAAAAAAAAAAAAAAAAAAAAAAAAAAAAAAAAAAAAAAAAAAAAAAAAAAAAAAAAAAAAAAAAAAAAAAAAAAAAAAAAAAAAAAAAAAAAAAAAAAAAAAAAAAAAAAAAAAAAAAAAAAAAAAAAAAAAAAAAAAAAAAAAAAAAAAAAAAAAAAAAAAAAAAAAAAAAAAAAAAAAAAAAAAAAAAAAAAAAAAAAAAAAAAAAAAAAAAAAAAAAAAAAAAAAAAAAAAAAAAAAAAAAAAAAAAAAAAAAAAAAAAAAAAAAAAAAAAAAAAAAAAAAAAAAAAAAAAAAAAAAAAAAAAAAAAAAAAAAAAAAAAAAAAAAAAAAAAAAAAAAAAAAAAAAAAAAAAAAAAAAAAAAAAAAAAAAAAAAAAAAAAAAAAAAAAAAAAAAAAAAAAAAAAAAAAAAAAAAAAAAAAAAAAAAAAAAAAAAAAAAAAAAAAAAAAAAAAAAAAAAAAAAAAAAAAAAAAAAAAAAAAAAAAAAAAAAAAAAAAAAAAAAAAAAAAAAAAAAAAAAAAAAAAAAAAAAAAAAAAAAAAAAAAAAAAAAAAAAAAAAAAAAAAAAAAAAAAAAAAAAAAAAAAAAAAAAAAAAAAAAAAAAAAAAAAAAAAAAAAAAAAAAAAAAAAAAAAAAAAAAAAAAAAAAAAAAAAAAAAAAAAAAAAAAAAAAAAAAAAAAAAAAAAAAAAAAAAAAAAAAAAAAAAAAAAAAAAAAAAAAAAAAAAAAAAAAAAAAAAAAAAAAAAAAAAAAAAAAAAAAAAAAAAAAAAAAAAAAAAAAAAAAAAAAAAAAAAAAAAAAAAAAAAAAAAAAAAAAAAAAAAAAAAAAAAAAAAAAAAAAAAAAAAAAAAAAAAAAAAAAAAAAAAAAAAAAAAAAAAAAAAAAAAAAAAAAAAAAAAAAAAAAAAAAAAAAAAAAAAAAAAAAAAAAAAAAAAAAAAAAAAAAAAAAAAAAAAAAAAAAAAAAAAAAAAAAAAAAAAAAAAAAAAAAAAAAAAAAAAAAAAAAAAAAAAAAAAAAAAAAAAAAAAAAAAAAAAAAAAAAAAAAAAAAAAAAAAAAAAAAAAAAAAAAAAAAAAAAAAAAAAAAAAAAAAAAAAAAAAAAAAAAAAAAAAAAAAAAAAAAAAAAAAAAAAAAAAAAAAAAAAAAAAAAAAAAAAAAAAAAAAAAAAAAAAAAAAAAAAAAAAAAAAAAAAAAAAAAAAAAAAAAAAAAAAAAAAAAAAAAAAAAAAAAAAAAAAAAAAAAAAAAAAAAAAAAAAAAAAAAAAAAAAAAAAAAAAAAAAAAAAAAAAAAAAAAAAAAAAAAAAAAAAAAAAAAAAAAAAAAAAAAAAAAAAAAAAAAAAAAAAAAAAAAAAAAAAAAAAAAAAAAAAAAAAAAAAAAAAAAAAAAAAAAAAAAAAAAAAAAAAAAAAAAAAAAAAAAAAAAAAAAAAAAAAAAAAAAAAAAAAAAAAAAAAAAAAAAAAAAAAAAAAAAAAAAAAAAAAAAAAAAAAAAAAAAAAAAAAAAAAAAAAAAAAAAAAAAAAAAAAAAAAAAAAAAAAAAAAAAAAAAAAAAAAAAAAAAAAAAAAAAAAAAAAAAAAAAAAAAAAAAAAAAAAAAAAAAAAAAAAAAAAAAAAAAAAAAAAAAAAAAAAAAAAAAAAAAAAAAAAAAAAAAAAAAAAAAAAAAAAAAAAAAAAAAAAAAAAAAAAAAAAAAAAAAAAAAAAAAAAAAAAAAAAAAAAAAAAAAAAAAAAAAAAAAAAAAAAAAAAAAAAAAAAAAAAAAAAAAAAAAAAAAAAAAAAAAAAAAAAAAAAAAAAAAAAAAAAAAAAAAAAAAAAAAAAAAAAAAAAAAAAAAAAAAAAAAAAAAAAAAAAAAAAAAAAAAAAAAAAAAAAAAAAAAAAAAAAAAAAAAAAAAAAAAAAAAAAAAAAAAAAAAAAAAAAAAAAAAAAAAAAAAAAAAAAAAAAAAAAAAAAAAAAAAAAAAAAAAAAAAAAAAAAAAAAAAAAAAAAAAAAAAAAAAAAAAAAAAAAAAAAAAAAAAAAAAAAAAAAAAAAAAAAAAAAAAAAAAAAAAAAAAAAAAAAAAAAAAAAAAAAAAAAAAAAAAAAAAAAAAAAAAAAAAAAAAAAAAAAAAAAAAAAAAAAAAAAAAAAAAAAAAAAAAAAAAAAAAAAAAAAAAAAAAAAAAAAAAAAAAAAAAAAAAAAAAAAAAAAAAAAAAAAAAAAAAAAAAAAAAAAAAAAAAAAAAAAAAAAAAAAAAAAAAAAAAAAAAAAAAAAAAAAAAAAAAAAAAAAAAAAAAAAAAAAAAAAAAAAAAAAAAAAAAAAAAAAAAAAAAAAAAAAAAAAAAAAAAAAAAAAAAAAAAAAAAAAAAAAAAAAAAAAAAAAAAAAAAAAAAAAAAAAAAAAAAAAAAAAAAAAAAAAAAAAAAAAAAAAAAAAAAAAAAAAAAAAAAAAAAAAAAAAAAAAAAAAAAAAAAAAAAAAAAAAAAAAAAAAAAAAAAAAAAAAAAAAAAAAAAAAAAAAAAAAAAAAAAAAAAAAAAAAAAAAAAAAAAAAAAAAAAAAAAAAAAAAAAAAAAAAAAAAAAAAAAAAAAAAAAAAAAAAAAAAAAAAAAAAAAAAAAAAAAAAAAAAAAAAAAAAAAAAAAAAAAAAAAAAAAAAAAAAAAAAAAAAAAAAAAAAAAAAAAAAAAAAAAAAAAAAAAAAAAAAAAAAAAAAAAAAAAAAAAAAAAAAAAAAAAAAAAAAAAAAAAAAAAAAAAAAAAAAAAAAAAAAAAAAAAAAAAAAAAAAAAAAAAAAAAAAAAAAAAAAAAAAAAAAAAAAAAAAAAAAAAAAAAAAAAAAAAAAAAAAAAAAAAAAAAAAAAAAAAAAAAAAAAAAAAAAAAAAAAAAAAAAAAAAAAAAAAAAAAAAAAAAAAAAAAAAAAAAAAAAAAAAAAAAAAAAAAAAAAAAAAAAAAAAAAAAAAAAAAAAAAAAAAAAAAAAAAAAAAAAAAAAAAAAAAAAAAAAAAAAAAAAAAAAAAAAAAAAAAAAAAAAAAAAAAAAAAAAAAAAAAAAAAAAAAAAAAAAAAAAAAAAAAAAAAAAAAAAAAAAAAAAAAAAAAAAAAAAAAAAAAAAAAAAAAAAAAAAAAAAAAAAAAAAAAAAAAAAAAAAAAAAAAAAAAAAAAAAAAAAAAAAAAAAAAAAAAAAAAAAAAAAAAAAAAAAAAAAAAAAAAAAAAAAAAAAAAAAAAAAAAAAAAAAAAAAAAAAAAAAAAAAAAAAAAAAAAAAAAAAAAAAAAAAAAAAAAAAAAAAAAAAAAAAAAAAAAAAAAAAAAAAAAAAAAAAAAAAAAAAAAAAAAAAAAAAAAAAAAAAAAAAAAAAAAAAAAAAAAAAAAAAAAAAAAAAAAAAAAAAAAAAAAAAAAAAAAAAAAAAAAAAAAAAAAAAAAAAAAAAAAAAAAAAAAAAAAAAAAAAAAAAAAAAAAAAAAAAAAAAAAAAAAAAAAAAAAAAAAAAAAAAAAAAAAAAAAAAAAAAAAAAAAAAAAAAAAAAAAAAAAAAAAAAAAAAAAAAAAAAAAAAAAAAAAAAAAAAAAAAAAAAAAAAAAAAAAAAAAAAAAAAAAAAAAAAAAAAAAAAAAAAAAAAAAAAAAAAAAAAAAAAAAAAAAAAAAAAAAAAAAAAAAAAAAAAAAAAAAAAAAAAAAAAAAAAAAAAAAAAAAAAAAAAAAAAAAAAAAAAAAAAAAAAAAAAAAAAAAAAAAAAAAAAAAAAAAAAAAAAAAAAAAAAAAAAAAAAAAAAAAAAAAAAAAAAAAAAAAAAAAAAAAAAAAAAAAAAAAAAAAAAAAAAAAAAAAAAAAAAAAAAAAAAAAAAAAAAAAAAAAAAAAAAAAAAAAAAAAAAAAAAAAAAAAAAAAAAAAAAAAAAAAAAAAAAAAAAAAAAAAAAAAAAAAAAAAAAAAAAAAAAAAAAAAAAAAAAAAAAAAAAAAAAAAAAAAAAAAAAAAAAAAAAAAAAAAAAAAAAAAAAAAAAAAAAAAAAAAAAAAAAAAAAAAAAAAAAAAAAAAAAAAAAAAAAAAAAAAAAAAAAAAAAAAAAAAAAAAAAAAAAAAAAAAAAAAAAAAAAAAAAAAAAAAAAAAAAAAAAAAAAAAAAAAAAAAAAAAAAAAAAAAAAAAAAAAAAAAAAAAAAAAAAAAAAAAAAAAAAAAAAAAAAAAAAAAAAAAAAAAAAAAAAAAAAAAAAAAAAAAAAAAAAAAAAAAAAAAAAAAAAAAAAAAAAAAAAAAAAAAAAAAAAAAAAAAAAAAAAAAAAAAAAAAAAAAAAAAAAAAAAAAAAAAAAAAAAAAAAAAAAAAAAAAAAAAAAAAAAAAAAAAAAAAAAAAAAAAAAAAAAAAAAAAAAAAAAAAAAAAAAAAAAAAAAAAAAAAAAAAAAAAAAAAAAAAAAAAAAAAAAAAAAAAAAAAAAAAAAAAAAAAAAAAAAAAAAAAAAAAAAAAAAAAAAAAAAAAAAAAAAAAAAAAAAAAAAAAAAAAAAAAAAAAAAAAAAAAAAAAAAAAAAAAAAAAAAAAAAAAAAAAAAAAAAAAAAAAAAAAAAAAAAAAAAAAAAAAAAAAAAAAAAAAAAAAAAAAAAAAAAAAAAAAAAAAAAAAAAAAAAAAAAAAAAAAAAAAAAAAAAAAAAAAAAAAAAAAAAAAAAAAAAAAAAAAAAAAAAAAAAAAAAAAAAAAAAAAAAAAAAAAAAAAAAAAAAAAAAAAAAAAAAAAAAAAAAAAAAAAAAAAAAAAAAAAAAAAAAAAAAAAAAAAAAAAAAAAAAAAAAAAAAAAAAAAAAAAAAAAAAAAAAAAAAAAAAAAAAAAAAAAAAAAAAAAAAAAAAAAAAAAAAAAAAAAAAAAAAAAAAAAAAAAAAAAAAAAAAAAAAAAAAAAAAAAAAAAAAAAAAAAAAAAAAAAAAAAAAAAAAAAAAAAAAAAAAAAAAAAAAAAAAAAAAAAAAAAAAAAAAAAAAAAAAAAAAAAAAAAAAAAAAAAAAAAAAAAAAAAAAAAAAAAAAAAAAAAAAAAAAAAAAAAAAAAAAAAAAAAAAAAAAAAAAAAAAAAAAAAAAAAAAAAAAAAAAAAAAAAAAAAAAAAAAAAAAAAAAAAAAAAAAAAAAAAAAAAAAAAAAAAAAAAAAAAAAAAAAAAAAAAAAAAAAAAAAAAAAAAAAAAAAAAAAAAAAAAAAAAAAAAAAAAAAAAAAAAAAAAAAAAAAAAAAAAAAAAAAAAAAAAAAAAAAAAAAAAAAAAAAAAAAAAAAAAAAAAAAAAAAAAAAAAAAAAAAAAAAAAAAAAAAAAAAAAAAAAAAAAAAAAAAAAAAAAAAAAAAAAAAAAAAAAAAAAAAAAAAAAAAAAAAAAAAAAAAAAAAAAAAAAAAAAAAAAAAAAAAAAAAAAAAAAAAAAAAAAAAAAAAAAAAAAAAAAAAAAAAAAAAAAAAAAAAAAAAAAAAAAAAAAAAAAAAAAAAAAAAAAAAAAAAAAAAAAAAAAAAAAAAAAAAAAAAAAAAAAAAAAAAAAAAAAAAAAAAAAAAAAAAAAAAAAAAAAAAAAAAAAAAAAAAAAAAAAAAAAAAAAAAAAAAAAAAAAAAAAAAAAAAAAAAAAAAAAAAAAAAAAAAAAAAAAAAAAAAAAAAAAAAAAAAAAAAAAAAAAAAAAAAAAAAAAAAAAAAAAAAAAAAAAAAAAAAAAAAAAAAAAAAAAAAAAAAAAAAAAAAAAAAAAAAAAAAAAAAAAAAAAAAAAAAAAAAAAAAAAAAAAAAAAAAAAAAAAAAAAAAAAAAAAAAAAAAAAAAAAAAAAAAAAAAAAAAAAAAAAAAAAAAAAAAAAAAAAAAAAAAAAAAAAAAAAAAAAAAAAAAAAAAAAAAAAAAAAAAAAAAAAAAAAAAAAAAAAAAAAAAAAAAAAAAAAAAAAAAAAAAAAAAAAAAAAAAAAAAAAAAAAAAAAAAAAAAAAAAAAAAAAAAAAAAAAAAAAAAAAAAAAAAAAAAAAAAAAAAAAAAAAAAAAAAAAAAAAAAAAAAAAAAAAAAAAAAAAAAAAAAAAAAAAAAAAAAAAAAAAAAAAAAAAAAAAAAAAAAAAAAAAAAAAAAAAAAAAAAAAAAAAAAAAAAAAAAAAAAAAAAAAAAAAAAAAAAAAAAAAAAAAAAAAAAAAAAAAAAAAAAAAAAAAAAAAAAAAAAAAAAAAAAAAAAAAAAAAAAAAAAAAAAAAAAAAAAAAAAAAAAAAAAAAAAAAAAAAAAAAAAAAAAAAAAAAAAAAAAAAAAAAAAAAAAAAAAAAAAAAAAAAAAAAAAAAAAAAAAAAAAAAAAAAAAAAAAAAAAAAAAAAAAAAAAAAAAAAAAAAAAAAAAAAAAAAAAAAAAAAAAAAAAAAAAAAAAAAAAAAAAAAAAAAAAAAAAAAAAAAAAAAAAAAAAAAAAAAAAAAAAAAAAAAAAAAAAAAAAAAAAAAAAAAAAAAAAAAAAAAAAAAAAAAAAAAAAAAAAAAAAAAAAAAAAAAAAAAAAAAAAAAAAAAAAAAAAAAAAAAAAAAAAAAAAAAAAAAAAAAAAAAAAAAAAAAAAAAAAAAAAAAAAAAAAAAAAAAAAAAAAAAAAAAAAAAAAAAAAAAAAAAAAAAAAAAAAAAAAAAAAAAAAAAAAAAAAAAAAAAAAAAAAAAAAAAAAAAAAAAAAAAAAAAAAAAAAAAAAAAAAAAAAAAAAAAAAAAAAAAAAAAAAAAAAAAAAAAAAAAAAAAAAAAAAAAAAAAAAAAAAAAAAAAAAAAAAAAAAAAAAAAAAAAAAAAAAAAAAAAAAAAAAAAAAAAAAAAAAAAAAAAAAAAAAAAAAAAAAAAAAAAAAAAAAAAAAAAAAAAAAAAAAAAAAAAAAAAAAAAAAAAAAAAAAAAAAAAAAAAAAAAAAAAAAAAAAAAAAAAAAAAAAAAAAAAAAAAAAAAAAAAAAAAAAAAAAAAAAAAAAAAAAAAAAAAAAAAAAAAAAAAAAAAAAAAAAAAAAAAAAAAAAAAAAAAAAAAAAAAAAAAAAAAAAAAAAAAAAAAAAAAAAAAAAAAAAAAAAAAAAAAAAAAAAAAAAAAAAAAAAAAAAAAAAAAAAAAAAAAAAAAAAAAAAAAAAAAAAAAAAAAAAAAAAAAAAAAAAAAAAAAAAAAAAAAAAAAAAAAAAAAAAAAAAAAAAAAAAAAAAAAAAAAAAAAAAAAAAAAAAAAAAAAAAAAAAAAAAAAAAAAAAAAAAAAAAAAAAAAAAAAAAAAAAAAAAAAAAAAAAAAAAAAAAAAAAAAAAAAAAAAAAAAAAAAAAAAAAAAAAAAAAAAAAAAAAAAAAAAAAAAAAAAAAAAAAAAAAAAAAAAAAAAAAAAAAAAAAAAAAAAAAAAAAAAAAAAAAAAAAAAAAAAAAAAAAAAAAAAAAAAAAAAAAAAAAAAAAAAAAAAAAAAAAAAAAAAAAAAAAAAAAAAAAAAAAAAAAAAAAAAAAAAAAAAAAAAAAAAAAAAAAAAAAAAAAAAAAAAAAAAAAAAAAAAAAAAAAAAAAAAAAAAAAAAAAAAAAAAAAAAAAAAAAAAAAAAAAAAAAAAAAAAAAAAAAAAAAAAAAAAAAAAAAAAAAAAAAAAAAAAAAAAAAAAAAAAAAAAAAAAAAAAAAAAAAAAAAAAAAAAAAAAAAAAAAAAAAAAAAAAAAAAAAAAAAAAAAAAAAAAAAAAAAAAAAAAAAAAAAAAAAAAAAAAAAAAAAAAAAAAAAAAAAAAAAAAAAAAAAAAAAAAAAAAAAAAAAAAAAAAAAAAAAAAAAAAAAAAAAAAAAAAAAAAAAAAAAAAAAAAAAAAAAAAAAAAAAAAAAAAAAAAAAAAAAAAAAAAAAAAAAAAAAAAAAAAAAAAAAAAAAAAAAAAAAAAAAAAAAAAAAAAAAAAAAAAAAAAAAAAAAAAAAAAAAAAAAAAAAAAAAAAAAAAAAAAAAAAAAAAAAAAAAAAAAAAAAAAAAAAAAAAAAAAAAAAAAAAAAAAAAAAAAAAAAAAAAAAAAAAAAAAAAAAAAAAAAAAAAAAAAAAAAAAAAAAAAAAAAAAAAAAPZYQKmLrG12Dwla6Y7GvMf+Y7Bziads6ZETy5/AfKfYuqnzx+bW16O1mlU+q/wSB38uSr4FFSkvaRx744ERWBRBVXA=</c2pa:manifest></metadata>
<path transform="translate(0,0)" fill="rgb(254,254,254)" d="M 0 0 L 2048 0 L 2048 373.481 L 2048 419.69 L 2048 489.562 L 2048 616.879 L 2048 621.182 L 2048 743.679 L 2048 806.044 L 2048 1065.96 L 2048 1068.69 L 2048 1249.65 L 2048 1252.69 L 2048 1268.9 L 2048 1271.95 L 2048 1624.53 L 2048 1628.29 L 2048 1667.19 L 2048 1671.86 L 2048 1737.24 L 2048 1771.09 L 2048 1781.38 L 2048 1815.02 L 2048 1824.97 L 2048 1851.18 L 2048 1865.91 L 2048 1989.93 L 2048 2021.65 L 2048 2048 L 1869.3 2048 L 186.982 2048 L 0 2048 L 0 2021.78 L 0 1990.04 L 0 1865.62 L 0 1851.83 L 0 1824.17 L 0 1815.88 L 0 1781.38 L 0 1771 L 0 1737.85 L 0 1671.32 L 0 1666.8 L 0 1627.1 L 0 1623.1 L 0 1272.05 L 0 1268.84 L 0 1252.42 L 0 1249.54 L 0 1068.8 L 0 1066 L 0 806.108 L 0 742.102 L 0 621.45 L 0 617.061 L 0 489.767 L 0 419.83 L 0 373.842 L 0 0 z"/>
<path transform="translate(0,0)" fill="rgb(254,254,254)" d="M 0 0 L 2048 0 L 2048 373.481 L 2048 419.69 L 2048 489.562 L 2048 616.879 L 2048 621.182 L 2048 743.679 L 2048 806.044 L 1614.12 805.853 C 1532.88 806.055 1447.47 808.073 1366.62 806.983 L 1366.67 746.016 C 1366.99 705.926 1364.93 692.096 1356.15 653.375 C 1345.14 620.119 1335.25 600.793 1316.51 571.406 C 1309.82 562.121 1303.08 553.453 1295.27 545.073 C 1277.97 524.398 1243.3 502.564 1219.1 490.201 C 1211.17 486.568 1195.89 479.323 1187.94 476.466 C 1099.35 444.622 983.904 443.918 892.951 466.27 C 871.355 471.577 851.641 479.923 831.814 488.301 C 805.521 501.309 772.021 521.588 753.323 544.033 C 743.009 554.959 736.032 563.97 727.355 576.127 C 715.916 595.047 698.755 627.281 693.198 648.133 C 683.77 679.425 682.244 699.962 682.375 731.63 C 682.781 756.862 682.237 781.775 682.312 806.94 L 0 806.108 L 0 742.102 L 0 621.45 L 0 617.061 L 0 489.767 L 0 419.83 L 0 373.842 L 0 0 z"/>
<path transform="translate(0,0)" fill="rgb(189,193,241)" d="M 899.935 373.193 C 945.705 373.891 991.481 374.15 1037.26 373.972 C 1073.71 373.975 1111.79 374.369 1148.11 373.118 L 2048 373.481 L 2048 419.69 L 2048 489.562 L 2048 616.879 L 2048 621.182 L 2048 743.679 L 2048 806.044 L 1614.12 805.853 C 1532.88 806.055 1447.47 808.073 1366.62 806.983 L 1366.67 746.016 C 1366.99 705.926 1364.93 692.096 1356.15 653.375 C 1345.14 620.119 1335.25 600.793 1316.51 571.406 C 1309.82 562.121 1303.08 553.453 1295.27 545.073 C 1277.97 524.398 1243.3 502.564 1219.1 490.201 C 1211.17 486.568 1195.89 479.323 1187.94 476.466 C 1099.35 444.622 983.904 443.918 892.951 466.27 C 871.355 471.577 851.641 479.923 831.814 488.301 C 805.521 501.309 772.021 521.588 753.323 544.033 C 743.009 554.959 736.032 563.97 727.355 576.127 C 715.916 595.047 698.755 627.281 693.198 648.133 C 683.77 679.425 682.244 699.962 682.375 731.63 C 682.781 756.862 682.237 781.775 682.312 806.94 L 0 806.108 L 0 742.102 L 0 621.45 L 0 617.061 L 0 489.767 L 0 419.83 L 0 373.842 L 899.935 373.193 z"/>
<path transform="translate(0,0)" fill="rgb(225,117,151)" d="M 0 373.842 L 899.935 373.193 L 900.023 420.035 L 0 419.83 L 0 373.842 z"/>
<path transform="translate(0,0)" fill="rgb(225,117,151)" d="M 1148.11 373.118 L 2048 373.481 L 2048 419.69 L 1147.95 420.066 C 1147.91 404.417 1147.96 388.767 1148.11 373.118 z"/>
<path transform="translate(0,0)" fill="rgb(254,254,254)" d="M 1357.61 623.263 C 1369.52 621.412 1393.06 621.741 1406.13 621.595 C 1440.42 621.161 1474.71 621.308 1508.99 622.034 L 1509.08 679.423 C 1509.09 704.866 1512.69 738.268 1479.9 744.786 C 1468.02 747.148 1450.42 746.103 1437.97 746.089 L 1366.67 746.016 C 1366.99 705.926 1364.93 692.096 1356.15 653.375 C 1358.12 647.196 1357.23 631.017 1357.61 623.263 z"/>
<path transform="translate(0,0)" fill="rgb(254,254,254)" d="M 537.5 621.857 C 588.685 620.947 639.882 620.989 691.066 621.983 C 691.04 631.753 690.627 638.672 693.198 648.133 C 683.77 679.425 682.244 699.962 682.375 731.63 C 668.906 744.563 655.144 746.709 637.025 744.703 C 612.303 741.965 565.834 752.189 547.649 733.157 C 542.858 728.118 539.613 721.811 538.298 714.984 C 536.489 705.99 537.134 687.768 537.196 677.909 L 537.5 621.857 z"/>
<path transform="translate(0,0)" fill="rgb(254,254,254)" d="M 0 489.767 C 24.5553 483.022 63.969 487.182 89.8074 487.239 C 104.359 487.271 124.664 503.351 125.784 517.771 C 128.212 549.047 127.699 585.277 126.99 616.653 C 85.3348 617.141 41.4377 618.67 0 617.061 L 0 489.767 z"/>
<path transform="translate(0,0)" fill="rgb(254,254,254)" d="M 1923.47 616.859 C 1922.64 597.964 1920.81 531.435 1924.54 516.414 C 1927.06 506.257 1933.32 497.764 1942.51 492.687 C 1947.55 489.907 1953.04 488.278 1958.72 487.438 C 1974.83 485.05 2033.23 485.186 2048 489.562 L 2048 616.879 C 2033.28 618.344 2017.26 617.416 2002.35 617.314 L 1923.47 616.859 z"/>
<path transform="translate(0,0)" fill="rgb(254,254,254)" d="M 2048 621.182 L 2048 743.679 C 2028.38 752.622 1998.59 747.55 1977.34 748.569 C 1921.76 751.233 1922.98 728.31 1923.1 684.652 L 1923.28 621.925 C 1964.85 621.079 2006.42 620.831 2048 621.182 z"/>
<path transform="translate(0,0)" fill="rgb(254,254,254)" d="M -2.84217e-14 621.45 C 42.3534 621.055 84.7092 620.993 127.064 621.262 L 127.06 673.758 C 127.11 684.619 128.016 705.779 125.826 715.324 C 124.357 722.002 121.016 728.122 116.194 732.97 C 105.633 743.424 90.4651 744.792 76.3788 744.554 C 57.3246 744.23 37.9745 745.01 18.9656 744.519 C 12.5742 744.411 6.21408 743.601 0 742.102 L 0 621.45 z"/>
<path transform="translate(0,0)" fill="rgb(254,254,254)" d="M 727.355 576.127 C 724.601 571.206 726.535 559.113 726.028 554.027 C 720.878 502.414 741.251 483.51 792.108 487.067 C 799.788 487.604 825.324 485.244 831.814 488.301 C 805.521 501.309 772.021 521.588 753.323 544.033 C 743.009 554.959 736.032 563.97 727.355 576.127 z"/>
<path transform="translate(0,0)" fill="rgb(254,254,254)" d="M 1219.1 490.201 C 1225.4 486.636 1260.82 487.178 1270.53 486.732 C 1325.16 484.224 1320.74 532.297 1316.51 571.406 C 1309.82 562.121 1303.08 553.453 1295.27 545.073 C 1277.97 524.398 1243.3 502.564 1219.1 490.201 z"/>
<path transform="translate(0,0)" fill="rgb(254,254,254)" d="M 202.342 486.395 C 225.835 486.411 258.24 484.232 280.951 487.696 C 317.78 493.314 314.819 525.831 314.782 554.79 L 314.526 616.458 C 301.067 616.971 286.312 616.814 272.75 616.92 C 235.176 617.156 197.6 617.033 160.028 616.551 L 160.374 554.723 C 160.449 545.169 160.036 526.92 161.982 518.112 C 163.37 511.709 166.314 505.746 170.552 500.75 C 179.154 490.725 189.751 487.424 202.342 486.395 z"/>
<path transform="translate(0,0)" fill="rgb(254,254,254)" d="M 612.593 486.484 C 636.886 486.183 664.703 481.721 681.932 502.047 C 694.333 516.676 691.116 536.523 691.108 554.642 L 691.076 616.735 C 666.803 617.131 642.527 617.338 618.25 617.356 C 591.186 617.561 564.12 617.418 537.059 616.926 C 536.81 599.128 535.283 530.916 538.686 517.677 C 540.473 510.687 544.053 504.284 549.071 499.1 C 564.746 482.985 590.701 486.697 612.593 486.484 z"/>
<path transform="translate(0,0)" fill="rgb(254,254,254)" d="M 450.814 486.483 C 504.611 486.737 503.192 513.768 503.108 556.595 L 502.984 616.7 C 471.607 618.111 432.671 616.996 400.75 616.802 L 349.443 616.364 C 348.712 585.116 349.027 549.579 350.73 518.264 C 351.412 505.708 365.277 490.315 378.279 488.444 C 401.479 485.105 426.94 486.812 450.814 486.483 z"/>
<path transform="translate(0,0)" fill="rgb(254,254,254)" d="M 1390.82 487.188 C 1417.62 486.138 1450.33 485.647 1477 488.078 C 1492.89 489.527 1508.06 506.366 1508.74 522.168 C 1509.19 532.491 1509.15 544.119 1509.15 555.101 L 1509.1 617.02 C 1498.19 617.501 1487.28 617.771 1476.37 617.829 C 1436.72 618.123 1397.08 617.833 1357.44 616.959 C 1356.26 585.511 1357.18 550.917 1358.36 519.332 C 1358.98 502.602 1375.08 490.7 1390.82 487.188 z"/>
<path transform="translate(0,0)" fill="rgb(254,254,254)" d="M 1605.43 486.489 C 1635.69 486.111 1689.73 477.713 1694.82 520.734 C 1695.87 529.638 1695.15 542.234 1695.13 551.526 L 1694.94 616.955 C 1675.59 616.971 1655.72 617.629 1636.25 617.803 C 1605.89 618.066 1575.54 617.86 1545.19 617.184 L 1545.23 554.874 C 1545.36 525.888 1540.7 492.189 1580.57 487.297 C 1588.66 486.305 1597.26 486.587 1605.43 486.489 z"/>
<path transform="translate(0,0)" fill="rgb(254,254,254)" d="M 1812.97 486.496 C 1817.44 486.425 1821.91 486.402 1826.38 486.426 C 1842.98 486.53 1860.56 486.617 1872.98 499.77 C 1877.66 504.754 1880.86 510.943 1882.21 517.643 C 1884.03 526.184 1883.32 544.172 1883.35 553.715 C 1883.52 574.619 1883.51 595.524 1883.33 616.427 C 1859.78 617.42 1833.04 616.999 1809.25 617.07 C 1784.59 617.147 1759.93 617.017 1735.27 616.679 C 1735.21 614.792 1735.18 612.905 1735.16 611.018 C 1735.03 589.634 1735.88 564.413 1735.08 543.423 C 1732.74 482.322 1765.5 486.408 1812.97 486.496 z"/>
<path transform="translate(0,0)" fill="rgb(254,254,254)" d="M 1561.42 621.546 C 1603.85 620.173 1652.14 620.989 1694.86 621.209 C 1695.3 646.34 1695.05 671.66 1695.14 696.787 C 1695.24 721.286 1696.63 730.24 1674.89 744.305 C 1669.52 746.702 1661.72 748.616 1655.71 748.354 C 1629.15 747.196 1598.89 750.296 1572.88 746.679 C 1540.24 742.141 1544.76 709.38 1544.88 684.62 L 1545.27 621.601 L 1561.42 621.546 z"/>
<path transform="translate(0,0)" fill="rgb(254,254,254)" d="M 1735.75 621.434 C 1783.22 620.417 1835.34 620.811 1882.85 621.519 L 1883.14 682.398 C 1883.29 701.419 1886.86 723.886 1874.19 738.906 C 1873.45 739.51 1872.71 740.121 1871.96 740.716 C 1866.74 744.838 1861.57 746.849 1855.02 747.888 C 1843.95 749.644 1831.71 748 1820.5 747.982 C 1802.81 747.953 1783.89 749.558 1766.37 747.411 C 1757 746.263 1748.15 743.041 1742.33 735.249 C 1738.89 730.635 1736.8 725.12 1735.86 719.462 C 1734.23 709.586 1734.14 632.622 1735.75 621.434 z"/>
<path transform="translate(0,0)" fill="rgb(254,254,254)" d="M 424.339 621.525 C 450.513 621.067 476.693 621.064 502.867 621.517 L 502.632 693.502 C 502.462 709.622 503.295 722.097 490.606 734.848 C 477.281 748.24 445.09 744.614 425.75 744.299 C 415.727 744.224 405.554 744.517 395.54 744.421 C 382.419 744.444 369.426 743.776 359.829 733.533 C 349.568 723.065 348.993 708.422 348.966 694.544 C 348.918 670.384 348.992 646.155 349.062 621.96 C 374.155 622.004 399.248 621.859 424.339 621.525 z"/>
<path transform="translate(0,0)" fill="rgb(254,254,254)" d="M 160.203 622.058 C 211.257 621.436 262.99 621.862 314.097 621.898 C 314.187 623.928 314.247 625.958 314.278 627.99 C 314.51 647.173 314.632 666.421 314.669 685.608 C 314.706 704.904 317.124 719.052 302.694 733.958 C 295.392 740.184 282.974 745.851 273.515 744.954 C 249.875 742.711 210.683 747.983 188.727 742.562 C 182.558 741.068 176.895 737.967 172.313 733.576 C 167.008 728.454 163.337 721.877 161.762 714.674 C 160.011 706.587 160.435 687.622 160.404 678.549 L 160.203 622.058 z"/>
<path transform="translate(0,0)" fill="rgb(164,95,110)" d="M 831.814 488.301 C 851.641 479.923 871.355 471.577 892.951 466.27 C 983.904 443.918 1099.35 444.622 1187.94 476.466 C 1195.89 479.323 1211.17 486.568 1219.1 490.201 C 1243.3 502.564 1277.97 524.398 1295.27 545.073 C 1303.08 553.453 1309.82 562.121 1316.51 571.406 C 1335.25 600.793 1345.14 620.119 1356.15 653.375 C 1364.93 692.096 1366.99 705.926 1366.67 746.016 L 1366.62 806.983 L 1366.75 838.515 C 1450.18 776.07 1445.42 1037.2 1393.16 1070.72 C 1392.57 1071.09 1391.97 1071.45 1391.37 1071.8 C 1382.11 1071.88 1374.35 1071.8 1365.12 1071.26 C 1365.57 1142.83 1369.4 1185.03 1346.35 1254.18 L 1340.89 1269.4 C 1336.58 1280.24 1332.82 1289.53 1327.8 1300.08 L 1326.63 1302.71 C 1306.07 1335.85 1289.83 1364.53 1260.64 1391.5 C 1257.81 1394.12 1250.98 1401.19 1248.81 1404.3 L 1248.87 1564.28 C 1248.92 1574.8 1249.65 1616.62 1248.02 1624.85 C 1248.44 1632.75 1249.37 1661.02 1247.34 1667.7 L 1248.53 1671.74 C 1248.23 1683.12 1248.04 1694.49 1247.96 1705.87 C 1252.54 1705.79 1265.47 1705.28 1269.25 1705.94 C 1253.15 1725.91 1236.27 1744.89 1219.84 1764.49 L 1098.75 1909.22 C 1083.12 1928.11 1065.04 1948.74 1050.28 1967.92 C 1042.77 1967.82 998.016 1968.81 993.86 1966.93 C 970.034 1934.71 936.077 1896.1 910.042 1864.99 C 865.411 1812.03 821.278 1758.66 777.647 1704.88 L 796.704 1705.06 C 796.035 1694.08 796 1682.79 795.898 1671.77 L 796.467 1667.02 C 795.478 1656.93 795.926 1638.8 795.915 1628.02 L 796.012 1624.09 C 794.34 1616.43 795.302 1567.43 795.354 1557.21 L 796.076 1405.12 C 762.713 1376.78 737.136 1339.49 716.741 1301.2 C 712.424 1292.1 707.031 1278.53 703.761 1269.16 C 702.238 1264.47 700.513 1257.77 697.773 1253.95 C 691.768 1228.37 686.177 1204.06 683.631 1177.83 C 680.261 1143.11 681.855 1107.82 682.115 1072.85 C 668.491 1074.36 661.017 1075.12 648.665 1066.08 C 628.809 1051.54 623.253 1006.64 621.237 981.621 C 619.323 937.569 617.427 877.931 642.929 840.526 C 652.806 826.038 670.961 831.686 682.059 842.072 C 682.35 830.585 682.242 818.478 682.312 806.94 C 682.237 781.775 682.781 756.862 682.375 731.63 C 682.244 699.962 683.77 679.425 693.198 648.133 C 698.755 627.281 715.916 595.047 727.355 576.127 C 736.032 563.97 743.009 554.959 753.323 544.033 C 772.021 521.588 805.521 501.309 831.814 488.301 z"/>
<path transform="translate(0,0)" fill="rgb(225,117,151)" d="M 831.814 488.301 C 851.641 479.923 871.355 471.577 892.951 466.27 C 983.904 443.918 1099.35 444.622 1187.94 476.466 C 1195.89 479.323 1211.17 486.568 1219.1 490.201 C 1243.3 502.564 1277.97 524.398 1295.27 545.073 C 1293.6 548.29 1294.86 571.468 1294.52 577.561 C 1290.4 651.595 1236.95 706.724 1166.62 724.463 C 1115.77 736.897 1062.13 732.614 1010.12 733.177 C 980.722 733.495 948.564 733.99 919.433 731.844 C 843.323 726.236 763.478 680.256 752.717 598.634 C 750.178 579.372 751.735 563.261 753.323 544.033 C 772.021 521.588 805.521 501.309 831.814 488.301 z"/>
<path transform="translate(0,0)" fill="rgb(26,34,93)" d="M 933.008 1469.99 C 1027.65 1505.49 1136.02 1486.25 1216.59 1427.93 C 1221.72 1424.22 1244.97 1405.26 1248.81 1404.3 L 1248.87 1564.28 C 1160.15 1562.28 1079.6 1547.75 997.061 1514.85 C 974.515 1505.86 946.085 1493.22 925.643 1480.3 L 933.008 1469.99 z"/>
<path transform="translate(0,0)" fill="rgb(254,254,254)" d="M 872.986 790.593 C 904.386 790.222 934.131 804.644 953.285 829.527 C 981.534 866.225 980.84 917.532 951.607 953.452 C 922.375 989.371 872.279 1000.47 830.608 980.27 C 788.936 960.065 766.629 913.856 776.727 868.659 C 786.825 823.462 826.678 791.141 872.986 790.593 z"/>
<path transform="translate(0,0)" fill="rgb(26,34,93)" d="M 870.634 846.547 C 894.665 844.944 915.516 862.969 917.404 886.98 C 919.292 910.991 901.516 932.054 877.53 934.228 C 861.757 935.657 846.435 928.496 837.414 915.48 C 828.393 902.463 827.067 885.602 833.942 871.336 C 840.817 857.069 854.832 847.601 870.634 846.547 z"/>
<path transform="translate(0,0)" fill="rgb(254,254,254)" d="M 1101.8 819.129 C 1133.64 792.051 1166.37 783.668 1207 796.768 C 1237.64 813.274 1256.87 827.882 1267.41 863.73 C 1275.1 889.741 1272.1 917.744 1259.07 941.533 C 1246.81 964.197 1225.89 980.928 1201.08 987.908 C 1176.05 995.009 1149.22 991.698 1126.67 978.728 C 1102.99 965.316 1085.4 941.805 1078.47 915.645 C 1068.65 878.556 1080.24 848.589 1101.8 819.129 z"/>
<path transform="translate(0,0)" fill="rgb(26,34,93)" d="M 1165.78 848.157 C 1189.43 844.119 1211.88 859.998 1215.95 883.644 C 1220.03 907.289 1204.18 929.765 1180.54 933.872 C 1156.85 937.988 1134.32 922.101 1130.24 898.407 C 1126.16 874.714 1142.08 852.204 1165.78 848.157 z"/>
<path transform="translate(0,0)" fill="rgb(26,34,93)" d="M 872.986 790.593 C 875.803 779.374 898.978 785.997 907.448 788.028 C 937.971 795.347 964.021 816.639 978.99 844.007 C 1003.47 894.622 1012.27 966.413 1000.38 1020.89 C 995.485 1043.31 972.068 1071.5 988.619 1094.41 C 1017.28 1134.08 1053.2 1106.96 1048.89 1063.41 C 1043.31 1007.07 1035.67 957.648 1016.48 904.656 C 1016.08 903.529 1017.96 902.627 1018.83 901.978 C 1020.83 901.757 1023.14 901.003 1024.19 902.145 C 1027.69 905.941 1030.71 915.167 1032.44 920.168 C 1049.3 968.897 1058.85 1026.39 1060.15 1077.9 C 1060.46 1090.38 1053.86 1105.23 1044.64 1113.49 C 1036.16 1121.07 1024.9 1124.79 1013.57 1123.75 C 1002.41 1122.84 992.07 1117.49 984.886 1108.89 C 975.626 1097.82 971.244 1083.48 972.739 1069.12 C 974.857 1049.5 987.202 1028.99 991.878 1009.11 C 1000.59 972.046 988.438 848.978 953.285 829.527 C 934.131 804.644 904.386 790.222 872.986 790.593 z"/>
<path transform="translate(0,0)" fill="rgb(26,34,93)" d="M 989.716 1202.03 C 1010.27 1201.69 1032.13 1201.72 1052.74 1201.96 C 1056.67 1202.35 1061.39 1202.9 1063.77 1206.41 C 1070.64 1216.52 1068.33 1221.16 1059.2 1227.65 C 1057.72 1227.75 1056.22 1227.83 1054.73 1227.88 C 1040.76 1228.29 992.177 1231.51 983.233 1221.71 C 981.432 1219.73 980.366 1217.74 980.641 1214.99 C 981.183 1209.58 985.778 1205.26 989.716 1202.03 z"/>
<path transform="translate(0,0)" fill="rgb(26,34,93)" d="M 1101.8 819.129 C 1083.85 829.591 1070.51 862.81 1067.3 882.442 C 1065.89 891.066 1068.32 912.107 1062.58 917.25 C 1053.66 916.136 1055.49 904.694 1055.83 897.814 C 1057.94 855.283 1076.7 817.724 1114.61 797.229 C 1141.49 782.753 1173.08 779.765 1202.2 788.947 C 1205.89 790.09 1206.58 790.54 1208.13 793.434 L 1207 796.768 C 1166.37 783.668 1133.64 792.051 1101.8 819.129 z"/>
<path transform="translate(0,0)" fill="rgb(26,34,93)" d="M 860.5 735.413 C 886.54 732.844 915.044 739.162 939.254 748.275 L 934.958 757.906 C 899.766 747.308 884.473 745.692 847.763 748.179 C 824.205 750.892 805.527 757.351 785.136 769.213 C 782.322 766.144 780.968 763.868 778.671 760.36 C 803.973 744.557 831.059 737.577 860.5 735.413 z"/>
<path transform="translate(0,0)" fill="rgb(26,34,93)" d="M 1158.74 734.429 C 1194.46 731.39 1234.48 742.713 1265.24 760.808 L 1258.46 769.267 C 1242.89 761.186 1235.26 757.718 1218.27 752.491 C 1177.61 741.293 1148.54 743.976 1109.76 757.498 L 1105.4 747.005 C 1125.36 740.437 1137.65 735.952 1158.74 734.429 z"/>
<path transform="translate(0,0)" fill="rgb(26,34,93)" d="M 681.681 906.933 C 683.804 909.029 683.037 916.091 682.986 919.097 C 662.938 934.477 658.266 960.944 682.726 973.785 C 682.677 978.153 684.596 984.629 680.646 986.627 L 677.04 985.414 C 644.584 963.708 647.498 925.689 681.681 906.933 z"/>
<path transform="translate(0,0)" fill="rgb(26,34,93)" d="M 1364.74 907.974 C 1397.13 920.872 1401.38 963.094 1372.73 984.495 L 1365 988.749 L 1364.82 974.668 C 1385.38 959.605 1385.7 936.26 1364.24 922.061 C 1364.53 917.428 1364.6 912.628 1364.74 907.974 z"/>
<path transform="translate(0,0)" fill="rgb(254,254,254)" d="M 0 806.108 L 682.312 806.94 C 682.242 818.478 682.35 830.585 682.059 842.072 C 670.961 831.686 652.806 826.038 642.929 840.526 C 617.427 877.931 619.323 937.569 621.237 981.621 C 623.253 1006.64 628.809 1051.54 648.665 1066.08 C 661.017 1075.12 668.491 1074.36 682.115 1072.85 C 681.855 1107.82 680.261 1143.11 683.631 1177.83 C 686.177 1204.06 691.768 1228.37 697.773 1253.95 C 700.513 1257.77 702.238 1264.47 703.761 1269.16 C 707.031 1278.53 712.424 1292.1 716.741 1301.2 C 737.136 1339.49 762.713 1376.78 796.076 1405.12 L 795.354 1557.21 C 795.302 1567.43 794.34 1616.43 796.012 1624.09 L 795.915 1628.02 C 795.926 1638.8 795.478 1656.93 796.467 1667.02 L 795.898 1671.77 C 796 1682.79 796.035 1694.08 796.704 1705.06 L 777.647 1704.88 L 761.737 1704.78 C 749.912 1704.4 737.737 1704.68 725.882 1704.79 C 711.957 1706.36 660.067 1714.96 646.854 1719.83 L 641.255 1720.3 C 636.006 1722.38 630.54 1723.13 624.985 1724.12 L 620.994 1724.43 C 618.979 1722.42 619.567 1721.43 619.138 1717.8 C 618.949 1722.17 619.773 1722.51 617.065 1725.52 C 611.924 1731.23 585.068 1733.58 582.078 1734.98 C 577.624 1737.76 568.346 1739.62 563.056 1741.29 C 536.339 1749.73 509.057 1758.5 483.364 1769.71 C 478.196 1758.73 474.241 1747.25 470.633 1735.68 L 469.348 1732.22 C 466.517 1729.84 465.068 1730.19 461.331 1730.06 L 457.472 1730.49 L 456.131 1729.33 C 454.387 1713.45 456.618 1690.23 455.37 1672.82 L 455.264 1671.49 L 455.228 1730.52 C 451.169 1730.53 442.574 1730.33 438.93 1730.96 L 434.212 1730.16 C 422.294 1730.72 407.651 1726.7 401.085 1737.23 L 302.875 1737.15 C 298.235 1725.96 284.54 1729.9 273.94 1730.62 L 268.814 1730.63 L 252.098 1730.55 L 247.009 1730.6 C 235.432 1729.93 218.859 1726.29 212.203 1737.29 C 211.051 1744.2 206.006 1764.45 203.754 1771.15 C 203.044 1774.22 202.042 1778.03 201.485 1781.05 C 198.677 1789.71 194.669 1809.41 192.181 1815.28 L 189.861 1824.19 C 187.649 1833.27 185.298 1842.31 182.81 1851.32 C 174.909 1852.03 169.135 1851.97 161.158 1851.86 C 113.084 1850.67 57.3581 1850.15 9.23372 1851.42 L 7.60346 1851.85 L 0 1851.83 L 0 1824.17 L 0 1815.88 L 0 1781.38 L 0 1771 L 0 1737.85 L 0 1671.32 L 0 1666.8 L 0 1627.1 L 0 1623.1 L 0 1272.05 L 0 1268.84 L 0 1252.42 L 0 1249.54 L 0 1068.8 L 0 1066 L 0 806.108 z"/>
<path transform="translate(0,0)" fill="rgb(223,198,168)" d="M 0 806.108 L 682.312 806.94 C 682.242 818.478 682.35 830.585 682.059 842.072 C 670.961 831.686 652.806 826.038 642.929 840.526 C 617.427 877.931 619.323 937.569 621.237 981.621 C 623.253 1006.64 628.809 1051.54 648.665 1066.08 C 661.017 1075.12 668.491 1074.36 682.115 1072.85 C 681.855 1107.82 680.261 1143.11 683.631 1177.83 C 686.177 1204.06 691.768 1228.37 697.773 1253.95 C 700.513 1257.77 702.238 1264.47 703.761 1269.16 C 707.031 1278.53 712.424 1292.1 716.741 1301.2 C 711.32 1303.07 656.241 1301.88 645.829 1302.01 C 645.632 1291.28 645.626 1280.55 645.81 1269.83 L 619.678 1269.89 L 619.889 1301.04 C 600.5 1300.36 577.782 1300.9 558.134 1300.89 C 525.83 1300.76 493.524 1300.84 461.221 1301.11 L 461.607 1269.9 C 452.91 1269.98 444.038 1270.22 435.374 1269.67 L 301.032 1269.52 C 272.932 1267.67 227.853 1269 198.249 1268.97 L 0 1268.84 L 0 1252.42 L 0 1249.54 L 0 1068.8 L 0 1066 L 0 806.108 z"/>
<path transform="translate(0,0)" fill="rgb(225,117,151)" d="M 0 1066 C 46.1894 1065.98 93.6955 1065.45 139.773 1066.16 C 139.62 1086.17 139.59 1106.18 139.682 1126.19 L 197.896 1126.21 L 197.708 1192 L 248.603 1192.02 C 248.716 1212.38 248.531 1232.75 248.05 1253.12 C 165.483 1252.29 82.4881 1253.65 0 1252.42 L 0 1249.54 L 0 1068.8 L 0 1066 z"/>
<path transform="translate(0,0)" fill="rgb(254,254,254)" d="M 0 1066 C 46.1894 1065.98 93.6955 1065.45 139.773 1066.16 C 139.62 1086.17 139.59 1106.18 139.682 1126.19 L 197.896 1126.21 L 197.708 1192 L 248.603 1192.02 C 248.716 1212.38 248.531 1232.75 248.05 1253.12 C 165.483 1252.29 82.4881 1253.65 0 1252.42 L 0 1249.54 L 241.034 1249.79 L 240.999 1196.25 L 189.973 1196.59 L 190.094 1130.27 L 131.979 1130.37 L 131.927 1068.96 L 0 1068.8 L 0 1066 z"/>
<path transform="translate(0,0)" fill="rgb(114,125,198)" d="M 0 1252.42 C 82.4881 1253.65 165.483 1252.29 248.05 1253.12 C 378.016 1256.05 508.989 1252.47 639.059 1253.89 C 658.421 1254.1 678.429 1254.24 697.773 1253.95 C 700.513 1257.77 702.238 1264.47 703.761 1269.16 C 707.031 1278.53 712.424 1292.1 716.741 1301.2 C 711.32 1303.07 656.241 1301.88 645.829 1302.01 C 645.632 1291.28 645.626 1280.55 645.81 1269.83 L 619.678 1269.89 L 619.889 1301.04 C 600.5 1300.36 577.782 1300.9 558.134 1300.89 C 525.83 1300.76 493.524 1300.84 461.221 1301.11 L 461.607 1269.9 C 452.91 1269.98 444.038 1270.22 435.374 1269.67 L 301.032 1269.52 C 272.932 1267.67 227.853 1269 198.249 1268.97 L 0 1268.84 L 0 1252.42 z"/>
<path transform="translate(0,0)" fill="rgb(223,198,168)" d="M 703.761 1269.16 C 707.031 1278.53 712.424 1292.1 716.741 1301.2 C 711.32 1303.07 656.241 1301.88 645.829 1302.01 C 645.632 1291.28 645.626 1280.55 645.81 1269.83 L 619.678 1269.89 L 619.889 1301.04 C 600.5 1300.36 577.782 1300.9 558.134 1300.89 C 525.83 1300.76 493.524 1300.84 461.221 1301.11 L 461.607 1269.9 C 452.91 1269.98 444.038 1270.22 435.374 1269.67 C 440.353 1269.03 456.475 1269.27 462.093 1269.25 L 518.83 1269.14 L 703.761 1269.16 z"/>
<path transform="translate(0,0)" fill="rgb(225,117,151)" d="M 301.032 1269.52 L 435.374 1269.67 C 435.337 1279.99 435.567 1291.77 434.969 1301.97 C 433.993 1408.89 435.705 1516.52 434.282 1623.19 C 380.433 1623.54 326.582 1623.53 272.733 1623.16 L 272.858 1272.04 L 295.061 1272.08 C 295.019 1281.09 294.569 1294.06 295.719 1302.68 C 298.716 1301.83 297.752 1302.47 299.943 1300.49 C 301.943 1292.39 301.196 1278.37 301.032 1269.52 z"/>
<path transform="translate(0,0)" fill="rgb(223,198,168)" d="M 301.032 1269.52 L 435.374 1269.67 C 435.337 1279.99 435.567 1291.77 434.969 1301.97 L 342.738 1301.97 C 332.457 1301.97 304.254 1301.36 295.719 1302.68 C 298.716 1301.83 297.752 1302.47 299.943 1300.49 C 301.943 1292.39 301.196 1278.37 301.032 1269.52 z"/>
<path transform="translate(0,0)" fill="rgb(225,117,151)" d="M 461.221 1301.11 C 493.524 1300.84 525.83 1300.76 558.134 1300.89 C 577.782 1300.9 600.5 1300.36 619.889 1301.04 C 618.795 1407.88 619.921 1516.76 619.969 1623.72 C 568.196 1624.55 512.922 1623.97 461.031 1623.36 L 461.221 1301.11 z"/>
<path transform="translate(0,0)" fill="rgb(225,117,151)" d="M 716.741 1301.2 C 737.136 1339.49 762.713 1376.78 796.076 1405.12 L 795.354 1557.21 C 795.302 1567.43 794.34 1616.43 796.012 1624.09 C 781.145 1623.41 760.971 1623.98 745.689 1623.98 L 646.071 1623.98 L 645.829 1302.01 C 656.241 1301.88 711.32 1303.07 716.741 1301.2 z"/>
<path transform="translate(0,0)" fill="rgb(223,198,168)" d="M 65.2603 1619.65 C 66.5211 1654.1 65.8872 1695.82 65.524 1730.43 C 70.9742 1730.43 77.7917 1730.24 83.1215 1730.46 L 87.9882 1730.03 C 101.161 1729.93 114.334 1729.96 127.506 1730.11 C 129.71 1732.46 131.835 1734.47 133.494 1737.23 L 212.203 1737.29 C 211.051 1744.2 206.006 1764.45 203.754 1771.15 C 203.044 1774.22 202.042 1778.03 201.485 1781.05 C 198.677 1789.71 194.669 1809.41 192.181 1815.28 L 189.861 1824.19 C 187.649 1833.27 185.298 1842.31 182.81 1851.32 C 174.909 1852.03 169.135 1851.97 161.158 1851.86 C 113.084 1850.67 57.3581 1850.15 9.23372 1851.42 L 7.60346 1851.85 L 0 1851.83 L 0 1824.17 L 0 1815.88 L 0 1781.38 L 0 1771 L 0 1737.85 L 0 1671.32 C 19.8575 1671.38 40.7828 1671.16 60.5632 1671.55 C 62.9811 1685.36 57.9953 1716.55 62.4102 1729.07 L 63.5941 1729.61 C 66.6992 1721.87 64.677 1635.7 65.2603 1619.65 z"/>
<path transform="translate(0,0)" fill="rgb(100,66,118)" d="M 0 1671.32 C 19.8575 1671.38 40.7828 1671.16 60.5632 1671.55 C 59.3556 1688.71 60.0568 1712.47 60.1124 1730.07 C 51.8217 1729.88 43.4109 1728.18 40.0366 1737.76 C 27.083 1738.09 13.0382 1737.84 0 1737.85 L 0 1671.32 z"/>
<path transform="translate(0,0)" fill="rgb(254,221,205)" d="M 133.494 1737.23 L 212.203 1737.29 C 211.051 1744.2 206.006 1764.45 203.754 1771.15 C 203.044 1774.22 202.042 1778.03 201.485 1781.05 L 144.146 1780.92 C 143.848 1778.83 142.341 1773.38 141.775 1771.07 C 139.698 1766.78 134.29 1742.6 133.494 1737.23 z"/>
<path transform="translate(0,0)" fill="rgb(100,66,118)" d="M 141.775 1771.07 L 203.754 1771.15 C 203.044 1774.22 202.042 1778.03 201.485 1781.05 L 144.146 1780.92 C 143.848 1778.83 142.341 1773.38 141.775 1771.07 z"/>
<path transform="translate(0,0)" fill="rgb(254,221,205)" d="M 144.146 1780.92 L 201.485 1781.05 C 198.677 1789.71 194.669 1809.41 192.181 1815.28 L 189.861 1824.19 C 187.649 1833.27 185.298 1842.31 182.81 1851.32 C 174.909 1852.03 169.135 1851.97 161.158 1851.86 C 159.014 1842.49 156.992 1833.59 155.249 1824.12 C 154.953 1821.78 153.804 1817.67 153.193 1815.22 C 151.326 1811.06 145.545 1786.62 144.146 1780.92 z"/>
<path transform="translate(0,0)" fill="rgb(189,193,241)" d="M 155.249 1824.12 L 189.861 1824.19 C 187.649 1833.27 185.298 1842.31 182.81 1851.32 C 174.909 1852.03 169.135 1851.97 161.158 1851.86 C 159.014 1842.49 156.992 1833.59 155.249 1824.12 z"/>
<path transform="translate(0,0)" fill="rgb(100,66,118)" d="M 153.193 1815.22 L 192.181 1815.28 L 189.861 1824.19 L 155.249 1824.12 C 154.953 1821.78 153.804 1817.67 153.193 1815.22 z"/>
<path transform="translate(0,0)" fill="rgb(254,221,205)" d="M 0 1737.85 C 13.0382 1737.84 27.083 1738.09 40.0366 1737.76 C 38.0248 1748.53 33.922 1759.89 31.5504 1771.03 L 28.6863 1781.45 L 0 1781.38 L 0 1771 L 0 1737.85 z"/>
<path transform="translate(0,0)" fill="rgb(100,66,118)" d="M 0 1771 L 31.5504 1771.03 L 28.6863 1781.45 L 0 1781.38 L 0 1771 z"/>
<path transform="translate(0,0)" fill="rgb(189,193,241)" d="M 0 1781.38 L 28.6863 1781.45 C 25.4804 1792.9 22.3514 1804.38 19.2995 1815.87 C 18.5898 1818.75 17.9167 1821.29 17.409 1824.22 L 0 1824.17 L 0 1815.88 L 0 1781.38 z"/>
<path transform="translate(0,0)" fill="rgb(100,66,118)" d="M 0 1815.88 L 19.2995 1815.87 C 18.5898 1818.75 17.9167 1821.29 17.409 1824.22 L 0 1824.17 L 0 1815.88 z"/>
<path transform="translate(0,0)" fill="rgb(189,193,241)" d="M 17.409 1824.22 C 14.9608 1832.29 11.1634 1843.5 9.23372 1851.42 L 7.60346 1851.85 L 0 1851.83 L 0 1824.17 L 17.409 1824.22 z"/>
<path transform="translate(0,0)" fill="rgb(225,117,151)" d="M 0 1272.05 L 60.0983 1272 L 60.7357 1623.21 C 40.4907 1623.39 20.2442 1623.36 0 1623.1 L 0 1272.05 z"/>
<path transform="translate(0,0)" fill="rgb(100,66,118)" d="M 461.317 1671.62 C 513.35 1670.95 566.933 1671.78 619.136 1671.78 L 619.138 1717.8 C 618.949 1722.17 619.773 1722.51 617.065 1725.52 C 611.924 1731.23 585.068 1733.58 582.078 1734.98 C 577.624 1737.76 568.346 1739.62 563.056 1741.29 C 536.339 1749.73 509.057 1758.5 483.364 1769.71 C 478.196 1758.73 474.241 1747.25 470.633 1735.68 L 469.348 1732.22 C 466.517 1729.84 465.068 1730.19 461.331 1730.06 L 461.317 1671.62 z"/>
<path transform="translate(0,0)" fill="rgb(254,221,205)" d="M 470.633 1735.68 L 582.078 1734.98 C 577.624 1737.76 568.346 1739.62 563.056 1741.29 C 536.339 1749.73 509.057 1758.5 483.364 1769.71 C 478.196 1758.73 474.241 1747.25 470.633 1735.68 z"/>
<path transform="translate(0,0)" fill="rgb(100,66,118)" d="M 273.889 1671.63 L 434.039 1671.75 L 434.212 1730.16 C 422.294 1730.72 407.651 1726.7 401.085 1737.23 L 302.875 1737.15 C 298.235 1725.96 284.54 1729.9 273.94 1730.62 C 274.183 1711.2 273.916 1691.11 273.889 1671.63 z"/>
<path transform="translate(0,0)" fill="rgb(100,66,118)" d="M 87.9971 1672.02 L 246.924 1671.88 C 246.943 1691.29 246.742 1711.23 247.009 1730.6 C 235.432 1729.93 218.859 1726.29 212.203 1737.29 L 133.494 1737.23 C 131.835 1734.47 129.71 1732.46 127.506 1730.11 C 114.334 1729.96 101.161 1729.93 87.9882 1730.03 L 87.9971 1672.02 z"/>
<path transform="translate(0,0)" fill="rgb(100,66,118)" d="M 65.7908 1272.03 L 82.9419 1272 L 82.9345 1577.71 C 82.9615 1627.92 82.2385 1680.41 83.1215 1730.46 C 77.7917 1730.24 70.9742 1730.43 65.524 1730.43 C 65.8872 1695.82 66.5211 1654.1 65.2603 1619.65 L 65.7908 1272.03 z"/>
<path transform="translate(0,0)" fill="rgb(100,66,118)" d="M 251.99 1272.11 L 267.966 1272.2 L 268.814 1730.63 L 252.098 1730.55 L 251.99 1272.11 z"/>
<path transform="translate(0,0)" fill="rgb(100,66,118)" d="M 439.807 1273.26 L 455.296 1273.39 L 455.264 1671.49 L 455.228 1730.52 C 451.169 1730.53 442.574 1730.33 438.93 1730.96 C 439.917 1715.66 439.241 1693.4 439.198 1677.55 L 439.106 1583.01 L 439.807 1273.26 z"/>
<path transform="translate(0,0)" fill="rgb(114,125,198)" d="M 625.037 1273.36 L 640.646 1273.44 C 641.436 1322.11 640.794 1372.64 640.849 1421.48 L 641.255 1720.3 C 636.006 1722.38 630.54 1723.13 624.985 1724.12 L 625.037 1273.36 z"/>
<path transform="translate(0,0)" fill="rgb(225,117,151)" d="M 795.915 1628.02 C 795.926 1638.8 795.478 1656.93 796.467 1667.02 C 748.958 1665.55 694.193 1666.85 646.151 1666.83 L 645.974 1627.99 L 795.915 1628.02 z"/>
<path transform="translate(0,0)" fill="rgb(100,66,118)" d="M 646.859 1671.28 L 795.898 1671.77 C 796 1682.79 796.035 1694.08 796.704 1705.06 L 777.647 1704.88 L 761.737 1704.78 C 749.912 1704.4 737.737 1704.68 725.882 1704.79 C 711.957 1706.36 660.067 1714.96 646.854 1719.83 L 646.859 1671.28 z"/>
<path transform="translate(0,0)" fill="rgb(225,117,151)" d="M 0 1627.1 L 60.7153 1627.15 L 60.5307 1666.58 C 40.527 1666.65 19.9597 1666.49 0 1666.8 L 0 1627.1 z"/>
<path transform="translate(0,0)" fill="rgb(225,117,151)" d="M 87.3 1271.99 L 246.481 1272.06 C 247.8 1388.15 247.654 1507.15 246.907 1623.27 C 228.312 1623.92 206.806 1623.37 188.021 1623.29 L 87.415 1622.82 L 87.3 1271.99 z"/>
<path transform="translate(0,0)" fill="rgb(225,117,151)" d="M 87.574 1627.42 C 139.395 1626.3 194.99 1627.24 247.03 1627.23 L 247.019 1667.06 L 87.6607 1667.12 L 87.574 1627.42 z"/>
<path transform="translate(0,0)" fill="rgb(225,117,151)" d="M 273 1627.99 C 325.999 1627.15 380.999 1627.54 434.105 1627.7 L 434.065 1667.01 L 273.046 1666.83 L 273 1627.99 z"/>
<path transform="translate(0,0)" fill="rgb(225,117,151)" d="M 592.235 1627.51 L 619.958 1627.47 L 619.827 1667.03 L 490.25 1667.06 L 461.191 1667.09 L 461.125 1627.95 C 502.052 1626.51 550.636 1627.61 592.235 1627.51 z"/>
<path transform="translate(0,0)" fill="rgb(135,141,172)" d="M 1422.19 1671.07 L 1525.35 1671.11 C 1539.29 1671.11 1569.34 1670.18 1581.99 1671.58 C 1581.99 1690.86 1581.81 1710.45 1582.03 1729.7 C 1584.82 1729.79 1585 1729.65 1587.76 1729 C 1590.78 1730.48 1602.52 1729.96 1606.51 1729.93 C 1606.29 1716.78 1606.24 1703.63 1606.34 1690.48 C 1607.4 1699.72 1605.57 1723.14 1608.85 1729.57 L 1610.21 1729.3 C 1611.22 1722.73 1610.73 1714.49 1611.7 1709.47 C 1611.76 1716.23 1611.9 1723.06 1611.7 1729.81 C 1622.67 1729.63 1643.03 1725.99 1647.74 1737.68 C 1674.22 1736.49 1718.28 1736.55 1744.97 1737.54 C 1741.89 1748.55 1738.51 1759.89 1736.16 1771.06 C 1735.54 1773.35 1734.14 1779.23 1733.24 1781.14 C 1731.35 1787.83 1726.65 1810.28 1724.26 1815.16 L 1721.65 1824.61 C 1719.73 1832.97 1716.95 1841.3 1714.38 1849.5 L 1717.08 1850.68 C 1730.03 1860.63 1746.77 1873.37 1758.84 1884.24 C 1773.79 1882.77 1815.38 1883.69 1832.28 1883.61 C 1832.67 1885.44 1821.77 1922.56 1820.33 1925.89 C 1818.71 1931.09 1819.67 1931.02 1816.17 1933.74 C 1812.4 1934.17 1809.43 1934.01 1805.63 1933.94 C 1818.89 1949.21 1833.96 1972.02 1843.24 1990.24 C 1845.7 1995.43 1856.36 2018.03 1859.16 2021.95 C 1863.05 2031.07 1865.97 2038.71 1869.3 2048 L 186.982 2048 L 0 2048 L 0 2021.78 L 0 1990.04 L 0 1865.62 L 0 1851.83 L 7.60346 1851.85 L 9.23372 1851.42 C 57.3581 1850.15 113.084 1850.67 161.158 1851.86 C 169.135 1851.97 174.909 1852.03 182.81 1851.32 C 185.298 1842.31 187.649 1833.27 189.861 1824.19 L 192.181 1815.28 C 194.669 1809.41 198.677 1789.71 201.485 1781.05 C 202.042 1778.03 203.044 1774.22 203.754 1771.15 C 206.006 1764.45 211.051 1744.2 212.203 1737.29 C 218.859 1726.29 235.432 1729.93 247.009 1730.6 L 252.098 1730.55 L 268.814 1730.63 L 273.94 1730.62 C 284.54 1729.9 298.235 1725.96 302.875 1737.15 L 401.085 1737.23 C 407.651 1726.7 422.294 1730.72 434.212 1730.16 L 438.93 1730.96 C 442.574 1730.33 451.169 1730.53 455.228 1730.52 L 455.264 1671.49 L 455.37 1672.82 C 456.618 1690.23 454.387 1713.45 456.131 1729.33 L 457.472 1730.49 L 461.331 1730.06 C 465.068 1730.19 466.517 1729.84 469.348 1732.22 L 470.633 1735.68 C 474.241 1747.25 478.196 1758.73 483.364 1769.71 C 509.057 1758.5 536.339 1749.73 563.056 1741.29 C 568.346 1739.62 577.624 1737.76 582.078 1734.98 C 585.068 1733.58 611.924 1731.23 617.065 1725.52 C 619.773 1722.51 618.949 1722.17 619.138 1717.8 C 619.567 1721.43 618.979 1722.42 620.994 1724.43 L 624.985 1724.12 C 630.54 1723.13 636.006 1722.38 641.255 1720.3 L 646.854 1719.83 C 660.067 1714.96 711.957 1706.36 725.882 1704.79 C 737.737 1704.68 749.912 1704.4 761.737 1704.78 L 777.647 1704.88 C 821.278 1758.66 865.411 1812.03 910.042 1864.99 C 936.077 1896.1 970.034 1934.71 993.86 1966.93 C 998.016 1968.81 1042.77 1967.82 1050.28 1967.92 C 1065.04 1948.74 1083.12 1928.11 1098.75 1909.22 L 1219.84 1764.49 C 1236.27 1744.89 1253.15 1725.91 1269.25 1705.94 L 1270.17 1705.8 C 1275.04 1704.5 1315.11 1705.81 1321.07 1707.09 C 1324.35 1708.02 1341.17 1709.92 1345.58 1710.46 C 1362.12 1712.49 1376.58 1714.65 1392.85 1718.29 C 1392.9 1706.88 1393.6 1683.78 1392.4 1673.33 C 1389.26 1671.72 1385.7 1672.04 1381.91 1671.83 C 1385.98 1671.61 1389.56 1671.39 1393.65 1671.47 C 1393.53 1680.49 1392.25 1712.58 1394.94 1718.78 C 1397.24 1719.98 1396.34 1719.74 1398.89 1720.09 C 1404.53 1720.91 1411.85 1722.67 1417.13 1724.83 C 1418.27 1724.83 1420.25 1724.65 1421.43 1724.58 C 1423.22 1720.05 1422.26 1678.96 1422.19 1671.07 z"/>
<path transform="translate(0,0)" fill="rgb(223,198,168)" d="M 252.098 1730.55 L 268.814 1730.63 L 273.94 1730.62 C 284.54 1729.9 298.235 1725.96 302.875 1737.15 C 305.183 1748.12 310.598 1761.32 312.358 1771.07 L 314.865 1781.12 C 316.217 1787.08 321.864 1811.09 324.143 1815.88 C 324.918 1818.52 325.935 1821.34 326.224 1824.01 C 327.926 1832.8 329.887 1841.54 332.104 1850.22 L 329.68 1851.25 C 313.856 1862.56 303.442 1870.77 288.901 1883.75 L 205.325 1884.01 C 209.082 1897.33 212.938 1912.02 217.428 1924.97 L 219.766 1934.42 C 221.263 1942.18 223.889 1953.94 226.936 1961.1 C 221.792 1970.88 216.578 1980.62 211.296 1990.33 C 206.214 2000.78 201.272 2011.3 196.472 2021.88 C 193.079 2030.5 189.914 2039.21 186.982 2048 L 0 2048 L 0 2021.78 L 0 1990.04 L 0 1865.62 L 0 1851.83 L 7.60346 1851.85 L 9.23372 1851.42 C 57.3581 1850.15 113.084 1850.67 161.158 1851.86 C 169.135 1851.97 174.909 1852.03 182.81 1851.32 C 185.298 1842.31 187.649 1833.27 189.861 1824.19 L 192.181 1815.28 C 194.669 1809.41 198.677 1789.71 201.485 1781.05 C 202.042 1778.03 203.044 1774.22 203.754 1771.15 C 206.006 1764.45 211.051 1744.2 212.203 1737.29 C 218.859 1726.29 235.432 1729.93 247.009 1730.6 L 252.098 1730.55 z"/>
<path transform="translate(0,0)" fill="rgb(189,193,241)" d="M 0 1851.83 L 7.60346 1851.85 C 6.57265 1857.28 5.70562 1860.33 6.07119 1865.89 C 27.3391 1865.58 30.3043 1862.9 35.7113 1883.97 C 37.2278 1889.93 45.1553 1921.78 47.3363 1925.73 L 49.0612 1933.99 L 86.7537 1934 C 81.2247 1950.91 76.27 1972.38 72.182 1989.95 L 211.296 1990.33 C 206.214 2000.78 201.272 2011.3 196.472 2021.88 C 193.079 2030.5 189.914 2039.21 186.982 2048 L 0 2048 L 0 2021.78 L 0 1990.04 L 0 1865.62 L 0 1851.83 z"/>
<path transform="translate(0,0)" fill="rgb(223,198,168)" d="M 0 1851.83 L 7.60346 1851.85 C 6.57265 1857.28 5.70562 1860.33 6.07119 1865.89 C 27.3391 1865.58 30.3043 1862.9 35.7113 1883.97 C 37.2278 1889.93 45.1553 1921.78 47.3363 1925.73 L 49.0612 1933.99 C 53.0494 1952.7 57.338 1971.36 61.9251 1989.93 C 41.6769 1990.29 20.323 1990.01 0 1990.04 L 0 1865.62 L 0 1851.83 z"/>
<path transform="translate(0,0)" fill="rgb(225,117,151)" d="M 72.182 1989.95 L 211.296 1990.33 C 206.214 2000.78 201.272 2011.3 196.472 2021.88 C 177.011 2021.5 81.8461 2023.73 70.8193 2019.8 C 66.6181 2012.97 70.6488 1997.85 72.182 1989.95 z"/>
<path transform="translate(0,0)" fill="rgb(225,117,151)" d="M 0 1990.04 C 20.323 1990.01 41.6769 1990.29 61.9251 1989.93 C 64.2702 1996.97 70.5444 2020.57 59.3715 2021.34 C 40.6987 2022.64 18.7491 2021.83 0 2021.78 L 0 1990.04 z"/>
<path transform="translate(0,0)" fill="rgb(223,198,168)" d="M 252.098 1730.55 L 268.814 1730.63 L 273.94 1730.62 C 284.54 1729.9 298.235 1725.96 302.875 1737.15 C 305.183 1748.12 310.598 1761.32 312.358 1771.07 L 314.865 1781.12 C 316.217 1787.08 321.864 1811.09 324.143 1815.88 C 324.918 1818.52 325.935 1821.34 326.224 1824.01 C 327.926 1832.8 329.887 1841.54 332.104 1850.22 L 329.68 1851.25 C 322.843 1850.87 315.395 1850.92 308.526 1850.89 C 266.781 1850.66 224.495 1849.19 182.81 1851.32 C 185.298 1842.31 187.649 1833.27 189.861 1824.19 L 192.181 1815.28 C 194.669 1809.41 198.677 1789.71 201.485 1781.05 C 202.042 1778.03 203.044 1774.22 203.754 1771.15 C 206.006 1764.45 211.051 1744.2 212.203 1737.29 C 218.859 1726.29 235.432 1729.93 247.009 1730.6 L 252.098 1730.55 z"/>
<path transform="translate(0,0)" fill="rgb(225,117,151)" d="M 182.81 1851.32 C 224.495 1849.19 266.781 1850.66 308.526 1850.89 C 315.395 1850.92 322.843 1850.87 329.68 1851.25 C 313.856 1862.56 303.442 1870.77 288.901 1883.75 L 205.325 1884.01 C 204.28 1876.69 200.247 1866.12 191.711 1866.43 C 164.863 1867.41 136.899 1865.4 110.279 1866.16 C 104.03 1872.59 102.784 1875.21 100.042 1883.77 L 89.1785 1925.02 L 86.7537 1934 L 49.0612 1933.99 L 47.3363 1925.73 C 45.1553 1921.78 37.2278 1889.93 35.7113 1883.97 C 30.3043 1862.9 27.3391 1865.58 6.07119 1865.89 C 5.70562 1860.33 6.57265 1857.28 7.60346 1851.85 L 9.23372 1851.42 C 57.3581 1850.15 113.084 1850.67 161.158 1851.86 C 169.135 1851.97 174.909 1852.03 182.81 1851.32 z"/>
<path transform="translate(0,0)" fill="rgb(189,193,241)" d="M 35.7113 1883.97 L 100.042 1883.77 L 89.1785 1925.02 L 86.7537 1934 L 49.0612 1933.99 L 47.3363 1925.73 C 45.1553 1921.78 37.2278 1889.93 35.7113 1883.97 z"/>
<path transform="translate(0,0)" fill="rgb(100,66,118)" d="M 47.3363 1925.73 C 58.6392 1924.44 77.45 1924.99 89.1785 1925.02 L 86.7537 1934 L 49.0612 1933.99 L 47.3363 1925.73 z"/>
<path transform="translate(0,0)" fill="rgb(223,198,168)" d="M 1270.17 1705.8 C 1275.04 1704.5 1315.11 1705.81 1321.07 1707.09 C 1294.59 1741.58 1259.62 1778.97 1230.82 1812.48 L 1099.32 1968.05 L 1064.37 1968.03 L 1050.28 1967.92 C 1065.04 1948.74 1083.12 1928.11 1098.75 1909.22 L 1219.84 1764.49 C 1236.27 1744.89 1253.15 1725.91 1269.25 1705.94 L 1270.17 1705.8 z"/>
<path transform="translate(0,0)" fill="rgb(254,254,254)" d="M 1270.17 1705.8 L 1283.92 1705.79 C 1272.77 1721.11 1258.34 1737.99 1246.07 1752.76 L 1167.64 1845.65 L 1103.34 1921.97 C 1093.44 1933.85 1074.64 1957.8 1064.37 1968.03 L 1050.28 1967.92 C 1065.04 1948.74 1083.12 1928.11 1098.75 1909.22 L 1219.84 1764.49 C 1236.27 1744.89 1253.15 1725.91 1269.25 1705.94 L 1270.17 1705.8 z"/>
<path transform="translate(0,0)" fill="rgb(223,198,168)" d="M 725.882 1704.79 C 737.737 1704.68 749.912 1704.4 761.737 1704.78 L 777.647 1704.88 C 821.278 1758.66 865.411 1812.03 910.042 1864.99 C 936.077 1896.1 970.034 1934.71 993.86 1966.93 C 989.8 1968.66 984.945 1968.11 980.372 1968.05 L 946.459 1967.85 C 942.569 1964.12 938.754 1959.82 935.37 1955.63 C 917.052 1932.92 898.149 1910.7 879.362 1888.38 L 725.882 1704.79 z"/>
<path transform="translate(0,0)" fill="rgb(254,254,254)" d="M 761.737 1704.78 L 777.647 1704.88 C 821.278 1758.66 865.411 1812.03 910.042 1864.99 C 936.077 1896.1 970.034 1934.71 993.86 1966.93 C 989.8 1968.66 984.945 1968.11 980.372 1968.05 C 969.855 1954.23 953.902 1936.89 942.344 1922.67 C 903.173 1874.2 863.425 1826.2 823.109 1778.67 C 805.196 1757.41 777.558 1726.69 761.737 1704.78 z"/>
<path transform="translate(0,0)" fill="rgb(100,66,118)" d="M 1581.99 1671.58 C 1581.99 1690.86 1581.81 1710.45 1582.03 1729.7 C 1575.99 1729.83 1573.71 1730.45 1570.44 1735.91 C 1566.62 1746.84 1562.9 1757.79 1559.26 1768.77 C 1539.99 1761.34 1520.56 1754.32 1501 1747.7 C 1494.05 1745.41 1465.19 1737.72 1460.93 1735.11 C 1455.33 1735.25 1430.94 1727 1423.11 1725.08 L 1423.13 1672.01 L 1525.32 1672.16 C 1540.8 1672.18 1567.18 1672.89 1581.99 1671.58 z"/>
<path transform="translate(0,0)" fill="rgb(254,221,205)" d="M 1460.93 1735.11 C 1496.79 1734.85 1535.19 1736.82 1570.44 1735.91 C 1566.62 1746.84 1562.9 1757.79 1559.26 1768.77 C 1539.99 1761.34 1520.56 1754.32 1501 1747.7 C 1494.05 1745.41 1465.19 1737.72 1460.93 1735.11 z"/>
<path transform="translate(0,0)" fill="rgb(254,221,205)" d="M 302.875 1737.15 L 401.085 1737.23 C 400.259 1742.5 393.955 1766.28 392 1771.21 C 391.239 1774.72 390.934 1778.53 388.403 1780.82 C 385.7 1781.45 385.478 1781.48 382.705 1781.52 C 386.09 1781.76 386.879 1781.13 388.52 1782.97 C 387.153 1788.05 379.604 1813 377.253 1815.99 L 377.576 1818.46 C 373.375 1822.9 374.229 1822.28 367.267 1823.67 C 354.938 1824.38 338.844 1823.98 326.224 1824.01 C 325.935 1821.34 324.918 1818.52 324.143 1815.88 C 321.864 1811.09 316.217 1787.08 314.865 1781.12 L 312.358 1771.07 C 310.598 1761.32 305.183 1748.12 302.875 1737.15 z"/>
<path transform="translate(0,0)" fill="rgb(254,221,205)" d="M 314.865 1781.12 C 335.898 1781.18 362.002 1780.61 382.705 1781.52 C 386.09 1781.76 386.879 1781.13 388.52 1782.97 C 387.153 1788.05 379.604 1813 377.253 1815.99 L 377.576 1818.46 C 373.375 1822.9 374.229 1822.28 367.267 1823.67 C 354.938 1824.38 338.844 1823.98 326.224 1824.01 C 325.935 1821.34 324.918 1818.52 324.143 1815.88 C 321.864 1811.09 316.217 1787.08 314.865 1781.12 z"/>
<path transform="translate(0,0)" fill="rgb(100,66,118)" d="M 324.143 1815.88 C 341.644 1815.81 359.811 1815.49 377.253 1815.99 L 377.576 1818.46 C 373.375 1822.9 374.229 1822.28 367.267 1823.67 C 354.938 1824.38 338.844 1823.98 326.224 1824.01 C 325.935 1821.34 324.918 1818.52 324.143 1815.88 z"/>
<path transform="translate(0,0)" fill="rgb(100,66,118)" d="M 312.358 1771.07 L 392 1771.21 C 391.239 1774.72 390.934 1778.53 388.403 1780.82 C 385.7 1781.45 385.478 1781.48 382.705 1781.52 C 362.002 1780.61 335.898 1781.18 314.865 1781.12 L 312.358 1771.07 z"/>
<path transform="translate(0,0)" fill="rgb(254,221,205)" d="M 1647.74 1737.68 C 1674.22 1736.49 1718.28 1736.55 1744.97 1737.54 C 1741.89 1748.55 1738.51 1759.89 1736.16 1771.06 C 1735.54 1773.35 1734.14 1779.23 1733.24 1781.14 C 1731.35 1787.83 1726.65 1810.28 1724.26 1815.16 L 1721.65 1824.61 C 1709.48 1824.15 1697.29 1823.88 1685.11 1823.81 C 1681.77 1823.11 1676.86 1823.05 1673.34 1822.87 L 1671.52 1815.18 C 1668.04 1803.89 1663.63 1792.7 1660.04 1781.15 C 1658.95 1777.77 1657.8 1774.4 1656.58 1771.07 C 1653.47 1760.47 1650.57 1748.45 1647.74 1737.68 z"/>
<path transform="translate(0,0)" fill="rgb(254,221,205)" d="M 1660.04 1781.15 L 1733.24 1781.14 C 1731.35 1787.83 1726.65 1810.28 1724.26 1815.16 L 1721.65 1824.61 C 1709.48 1824.15 1697.29 1823.88 1685.11 1823.81 C 1681.77 1823.11 1676.86 1823.05 1673.34 1822.87 L 1671.52 1815.18 C 1668.04 1803.89 1663.63 1792.7 1660.04 1781.15 z"/>
<path transform="translate(0,0)" fill="rgb(100,66,118)" d="M 1671.52 1815.18 L 1724.26 1815.16 L 1721.65 1824.61 C 1709.48 1824.15 1697.29 1823.88 1685.11 1823.81 C 1681.77 1823.11 1676.86 1823.05 1673.34 1822.87 L 1671.52 1815.18 z"/>
<path transform="translate(0,0)" fill="rgb(100,66,118)" d="M 1656.58 1771.07 L 1736.16 1771.06 C 1735.54 1773.35 1734.14 1779.23 1733.24 1781.14 L 1660.04 1781.15 C 1658.95 1777.77 1657.8 1774.4 1656.58 1771.07 z"/>
<path transform="translate(0,0)" fill="rgb(223,198,168)" d="M 1606.34 1690.48 C 1607.4 1699.72 1605.57 1723.14 1608.85 1729.57 L 1610.21 1729.3 C 1611.22 1722.73 1610.73 1714.49 1611.7 1709.47 C 1611.76 1716.23 1611.9 1723.06 1611.7 1729.81 C 1622.67 1729.63 1643.03 1725.99 1647.74 1737.68 C 1650.57 1748.45 1653.47 1760.47 1656.58 1771.07 C 1657.8 1774.4 1658.95 1777.77 1660.04 1781.15 C 1663.63 1792.7 1668.04 1803.89 1671.52 1815.18 L 1673.34 1822.87 C 1654.33 1812.42 1633.64 1800.52 1614.05 1791.57 C 1596.53 1783.57 1577.22 1776.36 1559.26 1768.77 C 1562.9 1757.79 1566.62 1746.84 1570.44 1735.91 C 1573.71 1730.45 1575.99 1729.83 1582.03 1729.7 C 1584.82 1729.79 1585 1729.65 1587.76 1729 C 1590.78 1730.48 1602.52 1729.96 1606.51 1729.93 C 1606.29 1716.78 1606.24 1703.63 1606.34 1690.48 z"/>
<path transform="translate(0,0)" fill="rgb(223,198,168)" d="M 455.264 1671.49 L 455.37 1672.82 C 456.618 1690.23 454.387 1713.45 456.131 1729.33 L 457.472 1730.49 L 461.331 1730.06 C 465.068 1730.19 466.517 1729.84 469.348 1732.22 L 470.633 1735.68 C 474.241 1747.25 478.196 1758.73 483.364 1769.71 C 450.627 1783.3 408.604 1800.33 378.493 1819.2 L 377.576 1818.46 L 377.253 1815.99 C 379.604 1813 387.153 1788.05 388.52 1782.97 C 386.879 1781.13 386.09 1781.76 382.705 1781.52 C 385.478 1781.48 385.7 1781.45 388.403 1780.82 C 390.934 1778.53 391.239 1774.72 392 1771.21 C 393.955 1766.28 400.259 1742.5 401.085 1737.23 C 407.651 1726.7 422.294 1730.72 434.212 1730.16 L 438.93 1730.96 C 442.574 1730.33 451.169 1730.53 455.228 1730.52 L 455.264 1671.49 z"/>
<path transform="translate(0,0)" fill="rgb(254,221,205)" d="M 205.325 1884.01 L 288.901 1883.75 C 284.734 1887.93 251.535 1925.23 251.531 1925.23 C 249.802 1928.2 248.061 1931.54 245.958 1934.19 L 219.766 1934.42 L 217.428 1924.97 C 212.938 1912.02 209.082 1897.33 205.325 1884.01 z"/>
<path transform="translate(0,0)" fill="rgb(100,66,118)" d="M 217.428 1924.97 C 227.748 1925.01 241.454 1924.7 251.531 1925.23 C 249.802 1928.2 248.061 1931.54 245.958 1934.19 L 219.766 1934.42 L 217.428 1924.97 z"/>
<path transform="translate(0,0)" fill="rgb(254,221,205)" d="M 1832.28 1883.61 C 1832.67 1885.44 1821.77 1922.56 1820.33 1925.89 L 1815.37 1925.84 C 1810.59 1925.14 1803.37 1925.3 1798.36 1925.24 C 1785.65 1911.13 1772.47 1897.46 1758.84 1884.24 C 1773.79 1882.77 1815.38 1883.69 1832.28 1883.61 z"/>
<path transform="translate(0,0)" fill="rgb(254,221,205)" d="M 1685.11 1823.81 C 1697.29 1823.88 1709.48 1824.15 1721.65 1824.61 C 1719.73 1832.97 1716.95 1841.3 1714.38 1849.5 C 1702.18 1841.29 1689.79 1833.49 1677.82 1824.94 L 1678.13 1824.28 L 1685.11 1823.81 z"/>
<path transform="translate(0,0)" fill="rgb(254,221,205)" d="M 367.267 1823.67 L 368.774 1824.58 C 365.856 1828.08 338.38 1844.84 332.104 1850.22 C 329.887 1841.54 327.926 1832.8 326.224 1824.01 C 338.844 1823.98 354.938 1824.38 367.267 1823.67 z"/>
<path transform="translate(0,0)" fill="rgb(254,221,205)" d="M 219.766 1934.42 L 245.958 1934.19 C 239.696 1942.68 232.329 1952.17 226.936 1961.1 C 223.889 1953.94 221.263 1942.18 219.766 1934.42 z"/>
<path transform="translate(0,0)" fill="rgb(114,125,198)" d="M 1815.37 1925.84 L 1820.33 1925.89 C 1818.71 1931.09 1819.67 1931.02 1816.17 1933.74 C 1812.4 1934.17 1809.43 1934.01 1805.63 1933.94 C 1802.77 1932.48 1801.13 1930.43 1800.69 1927.29 C 1803.35 1925.52 1811.6 1925.99 1815.37 1925.84 z"/>
<path transform="translate(0,0)" fill="rgb(223,198,168)" d="M 1366.62 806.983 C 1447.47 808.073 1532.88 806.055 1614.12 805.853 L 2048 806.044 L 2048 1065.96 L 2048 1068.69 L 2048 1249.65 L 2048 1252.69 L 1811.63 1252.98 C 1754.99 1255.51 1687.23 1253.87 1629.46 1253.9 L 1346.35 1254.18 C 1369.4 1185.03 1365.57 1142.83 1365.12 1071.26 C 1374.35 1071.8 1382.11 1071.88 1391.37 1071.8 C 1391.97 1071.45 1392.57 1071.09 1393.16 1070.72 C 1445.42 1037.2 1450.18 776.07 1366.75 838.515 L 1366.62 806.983 z"/>
<path transform="translate(0,0)" fill="rgb(225,117,151)" d="M 1950.28 1066.03 C 1982.73 1065.68 2015.52 1065.93 2048 1065.96 L 2048 1068.69 L 2048 1249.65 L 2048 1252.69 L 1811.63 1252.98 L 1812.41 1250.24 C 1816.35 1247.99 1841.13 1249.51 1847.05 1249.73 L 1847.03 1192.03 L 1900.02 1192.04 L 1900.02 1126.28 C 1916.69 1126.67 1933.37 1126.93 1950.05 1127.04 C 1949.92 1106.7 1949.99 1086.37 1950.28 1066.03 z"/>
<path transform="translate(0,0)" fill="rgb(254,254,254)" d="M 1950.28 1066.03 C 1982.73 1065.68 2015.52 1065.93 2048 1065.96 L 2048 1068.69 C 2018.51 1068.51 1987.13 1069.21 1957.97 1068.42 L 1957.95 1130.73 L 1907.69 1130.34 C 1907.36 1152.48 1907.22 1174.63 1907.28 1196.78 C 1889.55 1196.39 1871.81 1196.22 1854.08 1196.29 L 1854.11 1249.86 C 1918.74 1249.28 1983.37 1249.21 2048 1249.65 L 2048 1252.69 L 1811.63 1252.98 L 1812.41 1250.24 C 1816.35 1247.99 1841.13 1249.51 1847.05 1249.73 L 1847.03 1192.03 L 1900.02 1192.04 L 1900.02 1126.28 C 1916.69 1126.67 1933.37 1126.93 1950.05 1127.04 C 1949.92 1106.7 1949.99 1086.37 1950.28 1066.03 z"/>
<path transform="translate(0,0)" fill="rgb(223,198,168)" d="M 1954.15 1730.09 L 1959.14 1730.43 C 1964.31 1730.74 1971.8 1731.13 1976.86 1730.19 L 1982.02 1730.14 C 1990.68 1730.21 1996.68 1728.58 1999.95 1738.03 C 2015.95 1737.37 2031.98 1737.1 2048 1737.24 L 2048 1771.09 L 2048 1781.38 L 2048 1815.02 L 2048 1824.97 L 2048 1851.18 L 2048 1865.91 L 2048 1989.93 L 2048 2021.65 L 2048 2048 L 1869.3 2048 C 1865.97 2038.71 1863.05 2031.07 1859.16 2021.95 C 1856.36 2018.03 1845.7 1995.43 1843.24 1990.24 C 1833.96 1972.02 1818.89 1949.21 1805.63 1933.94 C 1809.43 1934.01 1812.4 1934.17 1816.17 1933.74 C 1819.67 1931.02 1818.71 1931.09 1820.33 1925.89 C 1821.77 1922.56 1832.67 1885.44 1832.28 1883.61 C 1815.38 1883.69 1773.79 1882.77 1758.84 1884.24 C 1746.77 1873.37 1730.03 1860.63 1717.08 1850.68 C 1765.41 1850.62 1812.95 1850.05 1861.39 1850.99 C 1859.42 1842.14 1856.15 1834.34 1854.6 1824.91 C 1854.28 1822.19 1853.34 1818.02 1852.8 1815.23 C 1850.89 1809.45 1843.33 1785.74 1844.93 1781.34 C 1842.85 1778.79 1842.37 1775.11 1841.49 1771.69 C 1838.06 1760.8 1834.66 1748.98 1832.46 1737.78 C 1843.43 1737.72 1862.16 1737.03 1872.51 1737.7 C 1883.16 1736.98 1898.59 1737.3 1909.57 1737.21 C 1919.9 1722.58 1936.49 1733.96 1954.15 1730.09 z"/>
<path transform="translate(0,0)" fill="rgb(189,193,241)" d="M 1845.81 1866.07 C 1870.94 1866.09 1896.73 1865.55 1921.72 1865.79 C 1925.03 1871.83 1927.9 1877.36 1929.56 1884.12 C 1933.99 1897.43 1937.71 1912.16 1942.39 1924.99 C 1942.98 1927.51 1944.03 1931.47 1944.45 1933.9 C 1959.39 1934.06 1974.34 1934.13 1989.28 1934.09 L 1991.31 1925.01 C 1994.25 1911.52 1998.98 1897.3 2002.66 1883.82 C 2011.36 1857.77 2023.09 1865.83 2048 1865.91 L 2048 1989.93 L 2048 2021.65 L 2048 2048 L 1869.3 2048 C 1865.97 2038.71 1863.05 2031.07 1859.16 2021.95 C 1856.36 2018.03 1845.7 1995.43 1843.24 1990.24 C 1833.96 1972.02 1818.89 1949.21 1805.63 1933.94 C 1809.43 1934.01 1812.4 1934.17 1816.17 1933.74 C 1819.67 1931.02 1818.71 1931.09 1820.33 1925.89 C 1821.77 1922.56 1832.67 1885.44 1832.28 1883.61 C 1837.42 1878.86 1835.99 1873.6 1845.81 1866.07 z"/>
<path transform="translate(0,0)" fill="rgb(223,198,168)" d="M 1845.81 1866.07 C 1870.94 1866.09 1896.73 1865.55 1921.72 1865.79 C 1925.03 1871.83 1927.9 1877.36 1929.56 1884.12 C 1933.99 1897.43 1937.71 1912.16 1942.39 1924.99 C 1942.98 1927.51 1944.03 1931.47 1944.45 1933.9 C 1950.09 1952.51 1954.08 1971.44 1959.73 1989.91 L 1843.24 1990.24 C 1833.96 1972.02 1818.89 1949.21 1805.63 1933.94 C 1809.43 1934.01 1812.4 1934.17 1816.17 1933.74 C 1819.67 1931.02 1818.71 1931.09 1820.33 1925.89 C 1821.77 1922.56 1832.67 1885.44 1832.28 1883.61 C 1837.42 1878.86 1835.99 1873.6 1845.81 1866.07 z"/>
<path transform="translate(0,0)" fill="rgb(223,198,168)" d="M 2002.66 1883.82 C 2011.36 1857.77 2023.09 1865.83 2048 1865.91 L 2048 1989.93 L 1973.55 1989.64 C 1979.61 1973.67 1982.89 1951.65 1989.28 1934.09 L 1991.31 1925.01 C 1994.25 1911.52 1998.98 1897.3 2002.66 1883.82 z"/>
<path transform="translate(0,0)" fill="rgb(225,117,151)" d="M 1843.24 1990.24 L 1959.73 1989.91 C 1962.34 1996.45 1968 2019.95 1958.11 2021.26 C 1949.52 2022.39 1935.02 2021.97 1926.05 2021.96 L 1859.16 2021.95 C 1856.36 2018.03 1845.7 1995.43 1843.24 1990.24 z"/>
<path transform="translate(0,0)" fill="rgb(225,117,151)" d="M 1973.55 1989.64 L 2048 1989.93 L 2048 2021.65 C 2034.27 2021.51 1978.76 2024.01 1971.48 2018.11 C 1967.42 2008.37 1970.83 1999.55 1973.55 1989.64 z"/>
<path transform="translate(0,0)" fill="rgb(225,117,151)" d="M 1717.08 1850.68 C 1765.41 1850.62 1812.95 1850.05 1861.39 1850.99 L 1878.5 1851.02 C 1928.65 1850.69 1978.79 1850.73 2028.94 1851.15 C 2035.29 1851.2 2041.65 1851.21 2048 1851.18 L 2048 1865.91 C 2023.09 1865.83 2011.36 1857.77 2002.66 1883.82 C 1998.98 1897.3 1994.25 1911.52 1991.31 1925.01 L 1989.28 1934.09 C 1974.34 1934.13 1959.39 1934.06 1944.45 1933.9 C 1944.03 1931.47 1942.98 1927.51 1942.39 1924.99 C 1937.71 1912.16 1933.99 1897.43 1929.56 1884.12 C 1927.9 1877.36 1925.03 1871.83 1921.72 1865.79 C 1896.73 1865.55 1870.94 1866.09 1845.81 1866.07 C 1835.99 1873.6 1837.42 1878.86 1832.28 1883.61 C 1815.38 1883.69 1773.79 1882.77 1758.84 1884.24 C 1746.77 1873.37 1730.03 1860.63 1717.08 1850.68 z"/>
<path transform="translate(0,0)" fill="rgb(189,193,241)" d="M 1929.56 1884.12 L 2002.66 1883.82 C 1998.98 1897.3 1994.25 1911.52 1991.31 1925.01 L 1989.28 1934.09 C 1974.34 1934.13 1959.39 1934.06 1944.45 1933.9 C 1944.03 1931.47 1942.98 1927.51 1942.39 1924.99 C 1937.71 1912.16 1933.99 1897.43 1929.56 1884.12 z"/>
<path transform="translate(0,0)" fill="rgb(100,66,118)" d="M 1942.39 1924.99 L 1991.31 1925.01 L 1989.28 1934.09 C 1974.34 1934.13 1959.39 1934.06 1944.45 1933.9 C 1944.03 1931.47 1942.98 1927.51 1942.39 1924.99 z"/>
<path transform="translate(0,0)" fill="rgb(254,221,205)" d="M 1871.49 1771.58 L 1899.97 1771.58 L 1897.64 1781.03 C 1895.06 1790.61 1889.93 1806.75 1888.08 1815.44 C 1887.39 1818.24 1886.53 1822.31 1885.7 1824.95 C 1883.18 1833.61 1880.78 1842.3 1878.5 1851.02 L 1861.39 1850.99 C 1859.42 1842.14 1856.15 1834.34 1854.6 1824.91 C 1854.28 1822.19 1853.34 1818.02 1852.8 1815.23 C 1850.89 1809.45 1843.33 1785.74 1844.93 1781.34 C 1842.85 1778.79 1842.37 1775.11 1841.49 1771.69 L 1871.49 1771.58 z"/>
<path transform="translate(0,0)" fill="rgb(189,193,241)" d="M 1854.6 1824.91 C 1864.92 1824.91 1875.4 1824.81 1885.7 1824.95 C 1883.18 1833.61 1880.78 1842.3 1878.5 1851.02 L 1861.39 1850.99 C 1859.42 1842.14 1856.15 1834.34 1854.6 1824.91 z"/>
<path transform="translate(0,0)" fill="rgb(100,66,118)" d="M 1871.49 1771.58 L 1899.97 1771.58 L 1897.64 1781.03 C 1880.07 1780.93 1862.5 1781.03 1844.93 1781.34 C 1842.85 1778.79 1842.37 1775.11 1841.49 1771.69 L 1871.49 1771.58 z"/>
<path transform="translate(0,0)" fill="rgb(100,66,118)" d="M 1852.8 1815.23 L 1888.08 1815.44 C 1887.39 1818.24 1886.53 1822.31 1885.7 1824.95 C 1875.4 1824.81 1864.92 1824.91 1854.6 1824.91 C 1854.28 1822.19 1853.34 1818.02 1852.8 1815.23 z"/>
<path transform="translate(0,0)" fill="rgb(254,221,205)" d="M 1832.46 1737.78 C 1843.43 1737.72 1862.16 1737.03 1872.51 1737.7 C 1884.27 1738.19 1898.07 1738 1909.93 1737.62 C 1906.6 1748.75 1903.44 1759.93 1900.46 1771.16 C 1892.31 1771.14 1879.21 1770.74 1871.49 1771.58 L 1841.49 1771.69 C 1838.06 1760.8 1834.66 1748.98 1832.46 1737.78 z"/>
<path transform="translate(0,0)" fill="rgb(254,221,205)" d="M 2048 1737.24 L 2048 1771.09 L 2048 1781.38 C 2035.89 1781.1 2022.96 1781.33 2010.79 1781.33 C 2009.67 1778.75 2008.62 1773.87 2007.89 1770.98 C 2005.75 1763.19 2000.71 1745.6 1999.95 1738.03 C 2015.95 1737.37 2031.98 1737.1 2048 1737.24 z"/>
<path transform="translate(0,0)" fill="rgb(100,66,118)" d="M 2007.89 1770.98 L 2048 1771.09 L 2048 1781.38 C 2035.89 1781.1 2022.96 1781.33 2010.79 1781.33 C 2009.67 1778.75 2008.62 1773.87 2007.89 1770.98 z"/>
<path transform="translate(0,0)" fill="rgb(254,221,205)" d="M 2048 1781.38 L 2048 1815.02 L 2048 1824.97 L 2021.78 1824.88 C 2021.19 1821.49 2020.23 1818.34 2019.31 1815.04 C 2016.88 1809.07 2011.61 1787.67 2010.79 1781.33 C 2022.96 1781.33 2035.89 1781.1 2048 1781.38 z"/>
<path transform="translate(0,0)" fill="rgb(100,66,118)" d="M 2048 1815.02 L 2048 1824.97 L 2021.78 1824.88 C 2021.19 1821.49 2020.23 1818.34 2019.31 1815.04 L 2048 1815.02 z"/>
<path transform="translate(0,0)" fill="rgb(189,193,241)" d="M 2021.78 1824.88 L 2048 1824.97 L 2048 1851.18 C 2041.65 1851.21 2035.29 1851.2 2028.94 1851.15 C 2026.44 1842.42 2024.06 1833.66 2021.78 1824.88 z"/>
<path transform="translate(0,0)" fill="rgb(225,117,151)" d="M 1326.63 1302.71 C 1349.06 1303.02 1371.49 1303.13 1393.92 1303.04 C 1393.02 1410.02 1392.89 1517 1393.54 1623.98 L 1295.52 1623.9 C 1287.52 1623.89 1253.55 1623.24 1248.02 1624.85 C 1249.65 1616.62 1248.92 1574.8 1248.87 1564.28 L 1248.81 1404.3 C 1250.98 1401.19 1257.81 1394.12 1260.64 1391.5 C 1289.83 1364.53 1306.07 1335.85 1326.63 1302.71 z"/>
<path transform="translate(0,0)" fill="rgb(225,117,151)" d="M 1981.43 1271.99 L 2048 1271.95 L 2048 1624.53 C 2026.14 1624.2 2003.82 1624.33 1981.93 1624.26 L 1981.43 1271.99 z"/>
<path transform="translate(0,0)" fill="rgb(223,198,168)" d="M 1768.41 1670.97 L 1768.5 1672.16 C 1769.16 1681.79 1767.82 1724.7 1769.25 1729.69 C 1771.56 1730.64 1771.13 1730.57 1773.57 1731.04 C 1778.61 1730.5 1787.06 1730.23 1792.07 1730.96 C 1794.45 1730.67 1793.32 1731.04 1795.43 1729.82 C 1797.58 1720.61 1795.4 1684.39 1796.5 1671.23 C 1797.58 1688.54 1796.94 1712.78 1796.89 1730.56 C 1806.98 1730.38 1818.58 1729.91 1828.56 1730.27 C 1829.93 1732.59 1831.73 1735.26 1832.46 1737.78 C 1834.66 1748.98 1838.06 1760.8 1841.49 1771.69 C 1842.37 1775.11 1842.85 1778.79 1844.93 1781.34 C 1843.33 1785.74 1850.89 1809.45 1852.8 1815.23 C 1853.34 1818.02 1854.28 1822.19 1854.6 1824.91 C 1856.15 1834.34 1859.42 1842.14 1861.39 1850.99 C 1812.95 1850.05 1765.41 1850.62 1717.08 1850.68 L 1714.38 1849.5 C 1716.95 1841.3 1719.73 1832.97 1721.65 1824.61 L 1724.26 1815.16 C 1726.65 1810.28 1731.35 1787.83 1733.24 1781.14 C 1734.14 1779.23 1735.54 1773.35 1736.16 1771.06 C 1738.51 1759.89 1741.89 1748.55 1744.97 1737.54 C 1752.58 1728 1756.43 1729.75 1768.06 1730.07 C 1768.07 1711.46 1767.43 1689.24 1768.41 1670.97 z"/>
<path transform="translate(0,0)" fill="rgb(114,125,198)" d="M 1811.63 1252.98 L 2048 1252.69 L 2048 1268.9 L 1776.52 1269.22 L 1418.91 1269.09 L 1402.15 1269.2 C 1382.97 1268.7 1360.41 1269.34 1340.89 1269.4 L 1346.35 1254.18 L 1629.46 1253.9 C 1687.23 1253.87 1754.99 1255.51 1811.63 1252.98 z"/>
<path transform="translate(0,0)" fill="rgb(100,66,118)" d="M 1611.6 1670.93 L 1768.41 1670.97 C 1767.43 1689.24 1768.07 1711.46 1768.06 1730.07 C 1756.43 1729.75 1752.58 1728 1744.97 1737.54 C 1718.28 1736.55 1674.22 1736.49 1647.74 1737.68 C 1643.03 1725.99 1622.67 1729.63 1611.7 1729.81 C 1611.9 1723.06 1611.76 1716.23 1611.7 1709.47 L 1611.6 1670.93 z"/>
<path transform="translate(0,0)" fill="rgb(100,66,118)" d="M 1796.5 1671.23 L 1954 1671.61 L 1954.15 1730.09 C 1936.49 1733.96 1919.9 1722.58 1909.57 1737.21 C 1898.59 1737.3 1883.16 1736.98 1872.51 1737.7 C 1862.16 1737.03 1843.43 1737.72 1832.46 1737.78 C 1831.73 1735.26 1829.93 1732.59 1828.56 1730.27 C 1818.58 1729.91 1806.98 1730.38 1796.89 1730.56 C 1796.94 1712.78 1797.58 1688.54 1796.5 1671.23 z"/>
<path transform="translate(0,0)" fill="rgb(223,198,168)" d="M 1418.91 1269.09 L 1776.52 1269.22 C 1773.39 1269.61 1770.31 1269.39 1768.31 1271.03 C 1767.74 1276.76 1767.75 1295.41 1768.74 1300.89 C 1762.72 1299.39 1701.66 1299.95 1692.35 1299.95 L 1642.65 1299.92 C 1633.32 1299.91 1619.74 1299.51 1610.96 1300.52 C 1609.6 1295.58 1610.03 1275.95 1610.06 1269.81 L 1582.03 1269.91 L 1582.1 1300.05 L 1421.94 1299.97 C 1422.05 1293.32 1422.75 1276.29 1421.37 1270.39 L 1418.91 1269.09 z"/>
<path transform="translate(0,0)" fill="rgb(100,66,118)" d="M 1588.16 1272.9 L 1605.91 1273.07 L 1606.34 1690.48 C 1606.24 1703.63 1606.29 1716.78 1606.51 1729.93 C 1602.52 1729.96 1590.78 1730.48 1587.76 1729 L 1588.16 1272.9 z"/>
<path transform="translate(0,0)" fill="rgb(100,66,118)" d="M 1773.29 1272.01 L 1791.62 1272.07 C 1790.84 1384.41 1790.85 1496.75 1791.65 1609.09 C 1791.85 1649.22 1791.12 1691.02 1792.07 1730.96 C 1787.06 1730.23 1778.61 1730.5 1773.57 1731.04 C 1774.61 1713.06 1774.03 1689.9 1773.81 1671.66 C 1773.35 1642.81 1773.11 1613.94 1773.1 1585.08 L 1773.29 1272.01 z"/>
<path transform="translate(0,0)" fill="rgb(100,66,118)" d="M 1959.06 1272.01 L 1976.59 1272.01 L 1976.86 1730.19 C 1971.8 1731.13 1964.31 1730.74 1959.14 1730.43 L 1959.06 1272.01 z"/>
<path transform="translate(0,0)" fill="rgb(100,66,118)" d="M 1399.16 1272.2 C 1405.05 1272.26 1411.1 1272.39 1416.97 1272.36 L 1417.13 1724.83 C 1411.85 1722.67 1404.53 1720.91 1398.89 1720.09 L 1399.16 1272.2 z"/>
<path transform="translate(0,0)" fill="rgb(225,117,151)" d="M 1247.34 1667.7 C 1249.37 1661.02 1248.44 1632.75 1248.02 1624.85 C 1250.31 1627.46 1250.01 1627.52 1254.66 1627.57 C 1270.22 1627.74 1286.01 1627.6 1301.57 1627.57 L 1393.83 1627.4 L 1393.79 1667.01 L 1292.82 1667.12 C 1285 1667.12 1253.29 1666.61 1247.34 1667.7 z"/>
<path transform="translate(0,0)" fill="rgb(100,66,118)" d="M 1248.53 1671.74 L 1381.91 1671.83 C 1385.7 1672.04 1389.26 1671.72 1392.4 1673.33 C 1393.6 1683.78 1392.9 1706.88 1392.85 1718.29 C 1376.58 1714.65 1362.12 1712.49 1345.58 1710.46 C 1341.17 1709.92 1324.35 1708.02 1321.07 1707.09 C 1315.11 1705.81 1275.04 1704.5 1270.17 1705.8 L 1269.25 1705.94 C 1265.47 1705.28 1252.54 1705.79 1247.96 1705.87 C 1248.04 1694.49 1248.23 1683.12 1248.53 1671.74 z"/>
<path transform="translate(0,0)" fill="rgb(100,66,118)" d="M 1982.07 1671.94 L 2048 1671.86 L 2048 1737.24 C 2031.98 1737.1 2015.95 1737.37 1999.95 1738.03 C 1996.68 1728.58 1990.68 1730.21 1982.02 1730.14 L 1982.07 1671.94 z"/>
<path transform="translate(0,0)" fill="rgb(225,117,151)" d="M 2048 1628.29 L 2048 1667.19 L 1982.03 1667.04 L 1981.95 1628.3 L 2048 1628.29 z"/>
<path transform="translate(0,0)" fill="rgb(223,198,168)" d="M 1340.89 1269.4 C 1360.41 1269.34 1382.97 1268.7 1402.15 1269.2 C 1398.61 1269.53 1396.15 1269.01 1394.29 1270.94 C 1393.74 1280.63 1393.95 1290.35 1394.03 1300.05 C 1373.22 1300.04 1348.28 1299.37 1327.8 1300.08 C 1332.82 1289.53 1336.58 1280.24 1340.89 1269.4 z"/>
<path transform="translate(0,0)" fill="rgb(225,117,151)" d="M 1796.02 1271.24 C 1801.56 1271.08 1804.4 1270.85 1809.96 1271.86 C 1854.64 1273.56 1907.96 1272.19 1953.33 1272.04 L 1953.7 1624.93 L 1796.08 1624.8 C 1797.55 1518.43 1795.98 1408.87 1795.98 1302.18 L 1808.14 1301.66 C 1804.66 1300.05 1799.76 1300.18 1795.8 1299.96 C 1795.81 1290.38 1795.88 1280.81 1796.02 1271.24 z"/>
<path transform="translate(0,0)" fill="rgb(254,221,205)" d="M 1796.02 1271.24 C 1801.56 1271.08 1804.4 1270.85 1809.96 1271.86 C 1810 1280.04 1810.41 1292.69 1809.63 1300.49 C 1808.44 1301.67 1809.04 1301.48 1808.14 1301.66 C 1804.66 1300.05 1799.76 1300.18 1795.8 1299.96 C 1795.81 1290.38 1795.88 1280.81 1796.02 1271.24 z"/>
<path transform="translate(0,0)" fill="rgb(225,117,151)" d="M 1421.97 1302.74 L 1582.16 1302.88 L 1582.04 1624.22 L 1422 1624.04 L 1421.97 1302.74 z"/>
<path transform="translate(0,0)" fill="rgb(225,117,151)" d="M 1638.8 1302.17 C 1676.11 1304.4 1729.38 1302.14 1768.13 1302.21 C 1767.41 1339.33 1767.97 1378.17 1767.96 1415.39 L 1768.06 1624.98 L 1610.99 1624.74 L 1610.81 1302.34 C 1620.11 1302.45 1629.53 1302.71 1638.8 1302.17 z"/>
<path transform="translate(0,0)" fill="rgb(225,117,151)" d="M 1422.01 1628.03 L 1582.01 1628.02 L 1581.87 1666.3 C 1528.61 1666.82 1475.34 1667.07 1422.08 1667.04 L 1422.01 1628.03 z"/>
<path transform="translate(0,0)" fill="rgb(225,117,151)" d="M 1949.74 1628.52 C 1952.1 1628.53 1951.02 1628.2 1952.98 1629.5 C 1954.27 1635 1953.55 1659.42 1953.43 1666.61 C 1902.87 1666.79 1852.31 1666.68 1801.75 1666.25 C 1799.43 1666.21 1799.53 1666.23 1797.35 1665.45 C 1794.97 1660.76 1796.1 1635.85 1796.13 1628.74 L 1949.74 1628.52 z"/>
<path transform="translate(0,0)" fill="rgb(225,117,151)" d="M 1719.49 1628.5 L 1768.11 1628.3 L 1768.24 1666.34 L 1660.5 1666.04 L 1611.06 1666.02 L 1611.12 1628.66 L 1719.49 1628.5 z"/>
</svg>