<svg version="1.1" xmlns="http://www.w3.org/2000/svg" viewBox="0 0 2048 2048" width="1024" height="1024"><path transform="translate(0,0)" fill="rgb(140,122,110)" d="M 1079.48 139.678 C 1108.04 141.354 1148.75 147.924 1176.86 154.167 C 1260.59 172.759 1350.99 202.944 1409.96 268.617 C 1426.45 286.978 1435.98 305.73 1445.59 328.049 C 1492.1 342.717 1526 364.807 1549.74 409.301 C 1561.64 431.613 1567.51 454.628 1571.33 479.453 C 1575.12 503.99 1570.11 516.335 1570.01 538.16 C 1569.69 606.922 1565.98 675.394 1555.36 743.42 C 1552.61 761.037 1549.65 782.637 1545.48 799.823 C 1543.82 809.003 1535.04 856.844 1531.53 861.982 C 1526.8 840.904 1523.75 803.577 1520.92 780.449 C 1513.5 719.866 1501.38 685.587 1477.72 630.795 C 1438.76 653.836 1406.64 666.236 1362.34 677.054 C 1375.46 649.243 1377.46 632.413 1370.82 601.374 C 1335.97 650.768 1298.16 680.611 1236.8 690.915 C 1229.27 692.236 1221.65 693.051 1214.01 693.355 C 1226.36 676.656 1228.48 664.816 1227.76 644.277 C 1194.35 675.987 1161.37 690.525 1115.42 696.432 C 1089.44 699.773 1064.22 701.172 1038.02 697.733 C 1067.27 662.357 1074.42 642.617 1081.3 597.061 C 1025.54 653.913 952.911 693.191 872.024 695.406 C 882.688 675.762 889.405 660.372 888.76 637.333 C 838.402 674.272 777.346 683.796 716.266 678.379 C 728.932 657.873 739.446 628.721 739.036 604.311 C 705.482 623.793 676.292 654.976 675.786 695.692 C 631.029 677.072 606.996 665.138 567.254 638.495 C 543.852 691.266 532.736 732.89 526.289 790.377 C 524.037 810.455 521.907 844.693 517.393 863.06 C 513.482 855.979 504.565 809.601 502.68 799.191 C 483.317 705.983 478.818 614.492 477.054 519.989 C 476.78 505.321 474.389 491.59 477.609 476.718 C 486.564 419.522 517.358 377.449 563.513 344.441 C 548.658 338.591 542.504 339.449 526.975 342.774 C 592.099 267.957 700.219 222.868 795.686 202.899 C 808.273 200.266 841.981 194.444 856.928 192.039 C 857.326 191.124 857.725 190.208 858.123 189.293 C 856.001 178.126 828.306 172.334 818.617 171.347 C 910.587 148.024 1016.36 154.517 1106.04 184.684 C 1101.04 165.515 1095.38 152.769 1079.48 139.678 z"/><path transform="translate(0,0)" fill="rgb(114,97,86)" d="M 1386.44 256.639 L 1387.63 258.104 C 1384.75 282.865 1355.11 333.508 1339.74 352.266 C 1229.32 486.953 1038.27 533.17 870.93 527.801 C 830.984 526.519 792.105 521.321 752.744 514.658 C 745.459 513.299 738.141 512.101 730.886 510.608 C 746.167 510.39 778.977 506.974 795.675 504.908 C 985.779 481.394 1203.87 435.245 1348.18 300.898 C 1359.81 290.07 1376.28 269.185 1386.44 256.639 z"/><path transform="translate(0,0)" fill="rgb(114,97,86)" d="M 924.703 270.333 C 970.819 268.14 1027.47 277.444 1072.79 286.692 C 1077.8 287.716 1109.43 295.409 1110.74 297.55 C 1093.63 301.351 1084.66 299.147 1068.91 300.144 C 1047.06 301.528 1023.7 303.745 1001.91 305.929 C 889.526 317.195 746.096 347.772 649.553 409.939 C 613.99 431.552 574.608 463.646 548.557 496.437 C 556.419 470.643 568.358 446.272 583.921 424.25 C 652.825 327.683 773.462 280.94 888.252 272.601 C 899.906 271.754 911.613 272.674 923.192 270.614 L 924.703 270.333 z"/><path transform="translate(0,0)" fill="rgb(114,97,86)" d="M 1567.51 533.723 C 1568.8 539.932 1567.78 553.082 1568.22 559.972 C 1569.5 580.109 1570.71 598.011 1567.77 618.085 C 1566.23 628.587 1567.55 641.117 1564.78 651.953 C 1564.22 654.145 1566.96 659.466 1566.1 662.168 C 1562.25 672.148 1561.69 675.51 1563.86 685.997 C 1564.35 690.785 1559.35 705.044 1559.03 711.019 C 1558.62 718.798 1558.57 727.414 1557.54 734.904 C 1555.98 736.685 1555.25 737.569 1553.91 739.513 C 1555.24 743.012 1556.61 745.438 1556.11 749.076 C 1547.34 757.768 1557.77 767.609 1548.46 776.638 C 1547.66 777.413 1550.62 790.953 1545.13 798.064 L 1543.96 799.559 L 1544.44 800.874 C 1548.48 800.766 1549.09 800.645 1552.92 801.632 C 1538.11 802.733 1545.27 812.725 1543.56 817.308 L 1540.74 816.506 C 1539.99 818.599 1539.86 820.036 1540.79 822.478 C 1543.48 829.479 1538.12 839.277 1535.23 845.732 C 1533.83 848.875 1536.9 848.528 1535.52 853.528 C 1532.22 854.387 1533.73 854.607 1530.83 852.913 C 1528.53 849.347 1526.11 835.671 1525.57 831.075 C 1526.12 829.532 1526.68 827.994 1527.25 826.462 C 1524.33 819.943 1521.65 778.599 1519.43 768.143 C 1517.31 758.157 1514.01 741.16 1512.98 730.819 C 1509.14 726.69 1508.74 727.19 1511.7 722.562 C 1510.42 716.189 1509.95 722.667 1508.44 719.455 C 1506.58 715.479 1510.45 715.882 1508.26 710.948 C 1503.28 699.723 1500.71 687.032 1496.08 675.236 C 1490.72 661.57 1484.24 647.509 1479.5 633.91 C 1477.78 628.956 1508.23 610.125 1513.81 605.114 C 1539.06 582.468 1552.26 562.84 1567.51 533.723 z"/><path transform="translate(0,0)" fill="rgb(114,97,86)" d="M 480.238 532.641 C 481.583 533.902 488.761 554.911 492.118 560.545 C 508.291 587.686 540.901 621.5 567.529 638.022 C 562.849 649.404 557.886 660.048 552.699 671.199 C 553.849 673.291 553.385 672.186 554.075 674.519 C 545.454 687.656 543.641 703.858 539.266 719.037 C 532.825 722.586 537.956 730.995 535.676 736.887 C 534.95 738.763 533.016 738.114 531.932 742.431 C 533.547 745.06 534.17 745.429 533.998 748.475 C 532.397 749.979 532.213 750.097 530.341 751.042 C 529.925 756.521 532.859 754.74 531.609 761.228 L 528.73 762.445 C 526.609 766.966 531.474 769.592 529.585 775.234 L 526.634 776.551 L 525.944 778.941 C 526.462 780.412 526.94 781.897 527.379 783.394 C 528.277 786.515 528.191 787.946 526.626 790.735 C 526.5 790.958 525.462 792.707 525.342 792.979 C 524.325 795.292 524.138 795.781 525.184 797.947 C 525.55 798.706 526.017 799.338 526.204 800.183 C 526.965 803.628 525.969 805.38 523.802 808.013 C 521.132 811.257 522.574 842.692 521.274 849.12 L 518.624 850.395 C 516.553 854.159 520.624 852.338 519.664 858.682 C 516.99 860.942 517.354 861.483 514.775 861.343 C 513.965 857.83 514.647 856.176 515.174 852.438 L 513.187 850.332 L 512.56 849.468 L 513.868 846.088 C 510.783 841.704 508.102 838.959 507.844 833.792 C 509.085 830.985 509.729 830.078 509.7 826.968 L 506.389 825.144 C 505.513 822.191 506.255 820.792 507.085 817.778 L 507.422 816.59 L 504.401 815.239 C 503.686 811.646 504.275 812.041 505.779 807.96 L 505.061 806.531 C 502.983 807.428 503.944 807.448 502.208 806.933 L 501.594 803.187 L 500.081 802.28 C 485.095 803.063 469.054 810.254 455.871 816.929 L 455.67 815.909 C 463.91 806.892 494.281 802.737 503.21 797.847 C 502.776 793.388 499.017 786.596 497.891 780.871 C 503.033 770.803 490.291 764.832 496.002 752.031 C 493.061 744.488 488.288 732.042 491.847 724.596 C 485.79 712.902 487.458 702.768 487.508 689.566 C 480.267 680.077 484.838 680.094 485.894 669.078 C 486.124 666.678 481.91 661.068 481.694 658.281 C 481.522 656.052 483.88 648.906 483.751 647.414 C 483.34 642.68 479.992 637.272 479.727 632.229 C 479.511 628.119 481.469 621.228 481.182 617.626 C 480.684 611.389 478.149 604.526 477.988 598.086 C 477.701 586.667 479.14 575.12 479.736 563.779 C 480.271 553.61 480.196 542.854 480.238 532.641 z"/><path transform="translate(0,0)" fill="rgb(114,97,86)" d="M 1444.84 343.764 C 1450.92 350.23 1456.6 367.318 1459 375.828 C 1488.12 478.985 1427.78 552.652 1330.94 579.096 C 1324.08 580.662 1317.55 581.592 1310.6 582.65 C 1369.98 523.826 1426.97 451.258 1441.6 366.955 C 1442.99 358.951 1443.65 351.655 1444.84 343.764 z"/><path transform="translate(0,0)" fill="rgb(114,97,86)" d="M 1552.4 802.186 C 1564.63 801.342 1576.44 806.313 1586.87 812.056 C 1579.75 810.92 1559.65 804.624 1552.4 802.186 z"/><path transform="translate(0,0)" fill="rgb(114,97,86)" d="M 424.767 978.573 C 427.159 979.525 442.732 996.433 449.339 1001.26 C 438.81 998.069 431.253 986.965 424.767 978.573 z"/></svg>