<svg version="1.1" xmlns="http://www.w3.org/2000/svg" style="display: block;" viewBox="0 0 2048 2048" width="1024" height="1024" preserveAspectRatio="none" xmlns:c2pa="http://c2pa.org/manifest"><metadata><c2pa:manifest>AAAzs2p1bWIAAAAeanVtZGMycGEAEQAQgAAAqgA4m3EDYzJwYQAAADONanVtYgAAAEdqdW1kYzJtYQARABCAAACqADibcQN1cm46YzJwYTo4ZDQzYjNiOS1lZTkxLTQ2MGMtODhkNS05ODhlMWRmYzFkN2YAAAAB4mp1bWIAAAApanVtZGMyYXMAEQAQgAAAqgA4m3EDYzJwYS5hc3NlcnRpb25zAAAAAO1qdW1iAAAAQWp1bWRjYm9yABEAEIAAAKoAOJtxE2MycGEuYWN0aW9ucy52MgAAAAAYYzJzaBnq7YC4NdaFOXzP/LBldGQAAACkY2JvcqFnYWN0aW9uc4GjZmFjdGlvbmxjMnBhLmNyZWF0ZWRxZGlnaXRhbFNvdXJjZVR5cGV4Rmh0dHA6Ly9jdi5pcHRjLm9yZy9uZXdzY29kZXMvZGlnaXRhbHNvdXJjZXR5cGUvdHJhaW5lZEFsZ29yaXRobWljTWVkaWFrZGVzY3JpcHRpb252Q3JlYXRlZCBieSBSZWNyYWZ0IEFJLgAAAMRqdW1iAAAAQGp1bWRjYm9yABEAEIAAAKoAOJtxE2MycGEuaGFzaC5kYXRhAAAAABhjMnNollAYs/+y36MUPlecils4PwAAAHxjYm9ypWpleGNsdXNpb25zgaJlc3RhcnQY22ZsZW5ndGgZRPBkbmFtZW5qdW1iZiBtYW5pZmVzdGNhbGdmc2hhMjU2ZGhhc2hYIEKGChTCuTfX2+ddnuC9CfN3BGPbQzTVGJWQPC5Q6MexY3BhZEkAAAAAAAAAAAAAAAI0anVtYgAAACdqdW1kYzJjbAARABCAAACqADibcQNjMnBhLmNsYWltLnYyAAAAAgVjYm9ypmppbnN0YW5jZUlEeCx4bXA6aWlkOjA3Y2JmYmM0LWQxYzAtNDQxZS05ZjhiLTNkODA5NzcwYzBhNnRjbGFpbV9nZW5lcmF0b3JfaW5mb6NkbmFtZWpyZWNyYWZ0LmFpZ3ZlcnNpb254KDgxY2U4MmUyYzVjM2NiZmJlOGM2ZmJlMTc5ZDVmOGQ5MWM0MDljZTF3b3JnLmNvbnRlbnRhdXRoLmMycGFfcnNmMC45MC43aXNpZ25hdHVyZXhNc2VsZiNqdW1iZj0vYzJwYS91cm46YzJwYTo4ZDQzYjNiOS1lZTkxLTQ2MGMtODhkNS05ODhlMWRmYzFkN2YvYzJwYS5zaWduYXR1cmVyY3JlYXRlZF9hc3NlcnRpb25zgqJjdXJseCpzZWxmI2p1bWJmPWMycGEuYXNzZXJ0aW9ucy9jMnBhLmFjdGlvbnMudjJkaGFzaFggYA+JJb+qHVGay5nfpfRMVwzCm2M5vRxFN+/ZnItYUOmiY3VybHgpc2VsZiNqdW1iZj1jMnBhLmFzc2VydGlvbnMvYzJwYS5oYXNoLmRhdGFkaGFzaFggH4Wfz+wdWkgw1na/EofhpItbLkMU/XJfOwjsZfhn38ZoZGM6dGl0bGV4GlJlY3JhZnQgQUkgR2VuZXJhdGVkIEltYWdlY2FsZ2ZzaGEyNTYAAC8oanVtYgAAAChqdW1kYzJjcwARABCAAACqADibcQNjMnBhLnNpZ25hdHVyZQAAAC74Y2JvctKEWQPsogEmGCGCWQH0MIIB8DCCAZWgAwIBAgIUJcFH1Va4pZJDhzepwEtzPPNj2YMwCgYIKoZIzj0EAwIwQTELMAkGA1UEBhMCVVMxEzARBgNVBAoMClJlY3JhZnQgQUkxHTAbBgNVBAMMFFJlY3JhZnQgQzJQQSBSb290IENBMB4XDTI2MDkxMDE2NTIzNFoXDTI3MDkxMDE2NTIzNFowNzELMAkGA1UEBhMCVVMxEzARBgNVBAoMClJlY3JhZnQgQUkxEzARBgNVBAMMCnJlY3JhZnQuYWkwWTATBgcqhkjOPQIBBggqhkjOPQMBBwNCAASoOPdqG3YmNRdGd+dltfh1ikcE/nkLm8YK10H29taFa8iegusHYB1678yl5Bs18hLaV/Fhd+Ni32xAlnHdbimFo3UwczAMBgNVHRMBAf8EAjAAMA4GA1UdDwEB/wQEAwIGwDATBgNVHSUEDDAKBggrBgEFBQcDBDAdBgNVHQ4EFgQUgVwhvbEXPSSgCubOfUHxCtuoVAQwHwYDVR0jBBgwFoAUc9yF+sfWlRHeWv2Iucaec5jwdAgwCgYIKoZIzj0EAwIDSQAwRgIhAJltDpQN+vbXITLxb+8BNwSL6/5WktO4Sevkb0VXjtfWAiEAqhoz7z/sN32NxdnnZsQVTeu3P7CgGtJdXFx283fp08RZAewwggHoMIIBjaADAgECAhQAydo/NKOQWWu/4V5FktVQHX7jTDAKBggqhkjOPQQDAjBBMQswCQYDVQQGEwJVUzETMBEGA1UECgwKUmVjcmFmdCBBSTEdMBsGA1UEAwwUUmVjcmFmdCBDMlBBIFJvb3QgQ0EwHhcNMjYwOTEwMTY1MjM0WhcNMzYwOTA3MTY1MjM0WjBBMQswCQYDVQQGEwJVUzETMBEGA1UECgwKUmVjcmFmdCBBSTEdMBsGA1UEAwwUUmVjcmFmdCBDMlBBIFJvb3QgQ0EwWTATBgcqhkjOPQIBBggqhkjOPQMBBwNCAAQbQ+eF6fkpnHhTwrMxSBLh/JhROWkzsC8L8jN1r1Rlf8oECvzEFk3WujloPtNs3PLADriqR5rGtd+8giFuiTLno2MwYTAfBgNVHSMEGDAWgBRz3IX6x9aVEd5a/Yi5xp5zmPB0CDAPBgNVHRMBAf8EBTADAQH/MA4GA1UdDwEB/wQEAwIBhjAdBgNVHQ4EFgQUc9yF+sfWlRHeWv2Iucaec5jwdAgwCgYIKoZIzj0EAwIDSQAwRgIhAND2Z+xryBRnMbxk8eAzMcAq8bzl0rfA9Y2z7q5QoEUeAiEA6ZbI3e47h5clRZaARSOOotKXsK/YQMWC3vj91d3bmlOhY3BhZFkqtAAAAAAAAAAAAAAAAAAAAAAAAAAAAAAAAAAAAAAAAAAAAAAAAAAAAAAAAAAAAAAAAAAAAAAAAAAAAAAAAAAAAAAAAAAAAAAAAAAAAAAAAAAAAAAAAAAAAAAAAAAAAAAAAAAAAAAAAAAAAAAAAAAAAAAAAAAAAAAAAAAAAAAAAAAAAAAAAAAAAAAAAAAAAAAAAAAAAAAAAAAAAAAAAAAAAAAAAAAAAAAAAAAAAAAAAAAAAAAAAAAAAAAAAAAAAAAAAAAAAAAAAAAAAAAAAAAAAAAAAAAAAAAAAAAAAAAAAAAAAAAAAAAAAAAAAAAAAAAAAAAAAAAAAAAAAAAAAAAAAAAAAAAAAAAAAAAAAAAAAAAAAAAAAAAAAAAAAAAAAAAAAAAAAAAAAAAAAAAAAAAAAAAAAAAAAAAAAAAAAAAAAAAAAAAAAAAAAAAAAAAAAAAAAAAAAAAAAAAAAAAAAAAAAAAAAAAAAAAAAAAAAAAAAAAAAAAAAAAAAAAAAAAAAAAAAAAAAAAAAAAAAAAAAAAAAAAAAAAAAAAAAAAAAAAAAAAAAAAAAAAAAAAAAAAAAAAAAAAAAAAAAAAAAAAAAAAAAAAAAAAAAAAAAAAAAAAAAAAAAAAAAAAAAAAAAAAAAAAAAAAAAAAAAAAAAAAAAAAAAAAAAAAAAAAAAAAAAAAAAAAAAAAAAAAAAAAAAAAAAAAAAAAAAAAAAAAAAAAAAAAAAAAAAAAAAAAAAAAAAAAAAAAAAAAAAAAAAAAAAAAAAAAAAAAAAAAAAAAAAAAAAAAAAAAAAAAAAAAAAAAAAAAAAAAAAAAAAAAAAAAAAAAAAAAAAAAAAAAAAAAAAAAAAAAAAAAAAAAAAAAAAAAAAAAAAAAAAAAAAAAAAAAAAAAAAAAAAAAAAAAAAAAAAAAAAAAAAAAAAAAAAAAAAAAAAAAAAAAAAAAAAAAAAAAAAAAAAAAAAAAAAAAAAAAAAAAAAAAAAAAAAAAAAAAAAAAAAAAAAAAAAAAAAAAAAAAAAAAAAAAAAAAAAAAAAAAAAAAAAAAAAAAAAAAAAAAAAAAAAAAAAAAAAAAAAAAAAAAAAAAAAAAAAAAAAAAAAAAAAAAAAAAAAAAAAAAAAAAAAAAAAAAAAAAAAAAAAAAAAAAAAAAAAAAAAAAAAAAAAAAAAAAAAAAAAAAAAAAAAAAAAAAAAAAAAAAAAAAAAAAAAAAAAAAAAAAAAAAAAAAAAAAAAAAAAAAAAAAAAAAAAAAAAAAAAAAAAAAAAAAAAAAAAAAAAAAAAAAAAAAAAAAAAAAAAAAAAAAAAAAAAAAAAAAAAAAAAAAAAAAAAAAAAAAAAAAAAAAAAAAAAAAAAAAAAAAAAAAAAAAAAAAAAAAAAAAAAAAAAAAAAAAAAAAAAAAAAAAAAAAAAAAAAAAAAAAAAAAAAAAAAAAAAAAAAAAAAAAAAAAAAAAAAAAAAAAAAAAAAAAAAAAAAAAAAAAAAAAAAAAAAAAAAAAAAAAAAAAAAAAAAAAAAAAAAAAAAAAAAAAAAAAAAAAAAAAAAAAAAAAAAAAAAAAAAAAAAAAAAAAAAAAAAAAAAAAAAAAAAAAAAAAAAAAAAAAAAAAAAAAAAAAAAAAAAAAAAAAAAAAAAAAAAAAAAAAAAAAAAAAAAAAAAAAAAAAAAAAAAAAAAAAAAAAAAAAAAAAAAAAAAAAAAAAAAAAAAAAAAAAAAAAAAAAAAAAAAAAAAAAAAAAAAAAAAAAAAAAAAAAAAAAAAAAAAAAAAAAAAAAAAAAAAAAAAAAAAAAAAAAAAAAAAAAAAAAAAAAAAAAAAAAAAAAAAAAAAAAAAAAAAAAAAAAAAAAAAAAAAAAAAAAAAAAAAAAAAAAAAAAAAAAAAAAAAAAAAAAAAAAAAAAAAAAAAAAAAAAAAAAAAAAAAAAAAAAAAAAAAAAAAAAAAAAAAAAAAAAAAAAAAAAAAAAAAAAAAAAAAAAAAAAAAAAAAAAAAAAAAAAAAAAAAAAAAAAAAAAAAAAAAAAAAAAAAAAAAAAAAAAAAAAAAAAAAAAAAAAAAAAAAAAAAAAAAAAAAAAAAAAAAAAAAAAAAAAAAAAAAAAAAAAAAAAAAAAAAAAAAAAAAAAAAAAAAAAAAAAAAAAAAAAAAAAAAAAAAAAAAAAAAAAAAAAAAAAAAAAAAAAAAAAAAAAAAAAAAAAAAAAAAAAAAAAAAAAAAAAAAAAAAAAAAAAAAAAAAAAAAAAAAAAAAAAAAAAAAAAAAAAAAAAAAAAAAAAAAAAAAAAAAAAAAAAAAAAAAAAAAAAAAAAAAAAAAAAAAAAAAAAAAAAAAAAAAAAAAAAAAAAAAAAAAAAAAAAAAAAAAAAAAAAAAAAAAAAAAAAAAAAAAAAAAAAAAAAAAAAAAAAAAAAAAAAAAAAAAAAAAAAAAAAAAAAAAAAAAAAAAAAAAAAAAAAAAAAAAAAAAAAAAAAAAAAAAAAAAAAAAAAAAAAAAAAAAAAAAAAAAAAAAAAAAAAAAAAAAAAAAAAAAAAAAAAAAAAAAAAAAAAAAAAAAAAAAAAAAAAAAAAAAAAAAAAAAAAAAAAAAAAAAAAAAAAAAAAAAAAAAAAAAAAAAAAAAAAAAAAAAAAAAAAAAAAAAAAAAAAAAAAAAAAAAAAAAAAAAAAAAAAAAAAAAAAAAAAAAAAAAAAAAAAAAAAAAAAAAAAAAAAAAAAAAAAAAAAAAAAAAAAAAAAAAAAAAAAAAAAAAAAAAAAAAAAAAAAAAAAAAAAAAAAAAAAAAAAAAAAAAAAAAAAAAAAAAAAAAAAAAAAAAAAAAAAAAAAAAAAAAAAAAAAAAAAAAAAAAAAAAAAAAAAAAAAAAAAAAAAAAAAAAAAAAAAAAAAAAAAAAAAAAAAAAAAAAAAAAAAAAAAAAAAAAAAAAAAAAAAAAAAAAAAAAAAAAAAAAAAAAAAAAAAAAAAAAAAAAAAAAAAAAAAAAAAAAAAAAAAAAAAAAAAAAAAAAAAAAAAAAAAAAAAAAAAAAAAAAAAAAAAAAAAAAAAAAAAAAAAAAAAAAAAAAAAAAAAAAAAAAAAAAAAAAAAAAAAAAAAAAAAAAAAAAAAAAAAAAAAAAAAAAAAAAAAAAAAAAAAAAAAAAAAAAAAAAAAAAAAAAAAAAAAAAAAAAAAAAAAAAAAAAAAAAAAAAAAAAAAAAAAAAAAAAAAAAAAAAAAAAAAAAAAAAAAAAAAAAAAAAAAAAAAAAAAAAAAAAAAAAAAAAAAAAAAAAAAAAAAAAAAAAAAAAAAAAAAAAAAAAAAAAAAAAAAAAAAAAAAAAAAAAAAAAAAAAAAAAAAAAAAAAAAAAAAAAAAAAAAAAAAAAAAAAAAAAAAAAAAAAAAAAAAAAAAAAAAAAAAAAAAAAAAAAAAAAAAAAAAAAAAAAAAAAAAAAAAAAAAAAAAAAAAAAAAAAAAAAAAAAAAAAAAAAAAAAAAAAAAAAAAAAAAAAAAAAAAAAAAAAAAAAAAAAAAAAAAAAAAAAAAAAAAAAAAAAAAAAAAAAAAAAAAAAAAAAAAAAAAAAAAAAAAAAAAAAAAAAAAAAAAAAAAAAAAAAAAAAAAAAAAAAAAAAAAAAAAAAAAAAAAAAAAAAAAAAAAAAAAAAAAAAAAAAAAAAAAAAAAAAAAAAAAAAAAAAAAAAAAAAAAAAAAAAAAAAAAAAAAAAAAAAAAAAAAAAAAAAAAAAAAAAAAAAAAAAAAAAAAAAAAAAAAAAAAAAAAAAAAAAAAAAAAAAAAAAAAAAAAAAAAAAAAAAAAAAAAAAAAAAAAAAAAAAAAAAAAAAAAAAAAAAAAAAAAAAAAAAAAAAAAAAAAAAAAAAAAAAAAAAAAAAAAAAAAAAAAAAAAAAAAAAAAAAAAAAAAAAAAAAAAAAAAAAAAAAAAAAAAAAAAAAAAAAAAAAAAAAAAAAAAAAAAAAAAAAAAAAAAAAAAAAAAAAAAAAAAAAAAAAAAAAAAAAAAAAAAAAAAAAAAAAAAAAAAAAAAAAAAAAAAAAAAAAAAAAAAAAAAAAAAAAAAAAAAAAAAAAAAAAAAAAAAAAAAAAAAAAAAAAAAAAAAAAAAAAAAAAAAAAAAAAAAAAAAAAAAAAAAAAAAAAAAAAAAAAAAAAAAAAAAAAAAAAAAAAAAAAAAAAAAAAAAAAAAAAAAAAAAAAAAAAAAAAAAAAAAAAAAAAAAAAAAAAAAAAAAAAAAAAAAAAAAAAAAAAAAAAAAAAAAAAAAAAAAAAAAAAAAAAAAAAAAAAAAAAAAAAAAAAAAAAAAAAAAAAAAAAAAAAAAAAAAAAAAAAAAAAAAAAAAAAAAAAAAAAAAAAAAAAAAAAAAAAAAAAAAAAAAAAAAAAAAAAAAAAAAAAAAAAAAAAAAAAAAAAAAAAAAAAAAAAAAAAAAAAAAAAAAAAAAAAAAAAAAAAAAAAAAAAAAAAAAAAAAAAAAAAAAAAAAAAAAAAAAAAAAAAAAAAAAAAAAAAAAAAAAAAAAAAAAAAAAAAAAAAAAAAAAAAAAAAAAAAAAAAAAAAAAAAAAAAAAAAAAAAAAAAAAAAAAAAAAAAAAAAAAAAAAAAAAAAAAAAAAAAAAAAAAAAAAAAAAAAAAAAAAAAAAAAAAAAAAAAAAAAAAAAAAAAAAAAAAAAAAAAAAAAAAAAAAAAAAAAAAAAAAAAAAAAAAAAAAAAAAAAAAAAAAAAAAAAAAAAAAAAAAAAAAAAAAAAAAAAAAAAAAAAAAAAAAAAAAAAAAAAAAAAAAAAAAAAAAAAAAAAAAAAAAAAAAAAAAAAAAAAAAAAAAAAAAAAAAAAAAAAAAAAAAAAAAAAAAAAAAAAAAAAAAAAAAAAAAAAAAAAAAAAAAAAAAAAAAAAAAAAAAAAAAAAAAAAAAAAAAAAAAAAAAAAAAAAAAAAAAAAAAAAAAAAAAAAAAAAAAAAAAAAAAAAAAAAAAAAAAAAAAAAAAAAAAAAAAAAAAAAAAAAAAAAAAAAAAAAAAAAAAAAAAAAAAAAAAAAAAAAAAAAAAAAAAAAAAAAAAAAAAAAAAAAAAAAAAAAAAAAAAAAAAAAAAAAAAAAAAAAAAAAAAAAAAAAAAAAAAAAAAAAAAAAAAAAAAAAAAAAAAAAAAAAAAAAAAAAAAAAAAAAAAAAAAAAAAAAAAAAAAAAAAAAAAAAAAAAAAAAAAAAAAAAAAAAAAAAAAAAAAAAAAAAAAAAAAAAAAAAAAAAAAAAAAAAAAAAAAAAAAAAAAAAAAAAAAAAAAAAAAAAAAAAAAAAAAAAAAAAAAAAAAAAAAAAAAAAAAAAAAAAAAAAAAAAAAAAAAAAAAAAAAAAAAAAAAAAAAAAAAAAAAAAAAAAAAAAAAAAAAAAAAAAAAAAAAAAAAAAAAAAAAAAAAAAAAAAAAAAAAAAAAAAAAAAAAAAAAAAAAAAAAAAAAAAAAAAAAAAAAAAAAAAAAAAAAAAAAAAAAAAAAAAAAAAAAAAAAAAAAAAAAAAAAAAAAAAAAAAAAAAAAAAAAAAAAAAAAAAAAAAAAAAAAAAAAAAAAAAAAAAAAAAAAAAAAAAAAAAAAAAAAAAAAAAAAAAAAAAAAAAAAAAAAAAAAAAAAAAAAAAAAAAAAAAAAAAAAAAAAAAAAAAAAAAAAAAAAAAAAAAAAAAAAAAAAAAAAAAAAAAAAAAAAAAAAAAAAAAAAAAAAAAAAAAAAAAAAAAAAAAAAAAAAAAAAAAAAAAAAAAAAAAAAAAAAAAAAAAAAAAAAAAAAAAAAAAAAAAAAAAAAAAAAAAAAAAAAAAAAAAAAAAAAAAAAAAAAAAAAAAAAAAAAAAAAAAAAAAAAAAAAAAAAAAAAAAAAAAAAAAAAAAAAAAAAAAAAAAAAAAAAAAAAAAAAAAAAAAAAAAAAAAAAAAAAAAAAAAAAAAAAAAAAAAAAAAAAAAAAAAAAAAAAAAAAAAAAAAAAAAAAAAAAAAAAAAAAAAAAAAAAAAAAAAAAAAAAAAAAAAAAAAAAAAAAAAAAAAAAAAAAAAAAAAAAAAAAAAAAAAAAAAAAAAAAAAAAAAAAAAAAAAAAAAAAAAAAAAAAAAAAAAAAAAAAAAAAAAAAAAAAAAAAAAAAAAAAAAAAAAAAAAAAAAAAAAAAAAAAAAAAAAAAAAAAAAAAAAAAAAAAAAAAAAAAAAAAAAAAAAAAAAAAAAAAAAAAAAAAAAAAAAAAAAAAAAAAAAAAAAAAAAAAAAAAAAAAAAAAAAAAAAAAAAAAAAAAAAAAAAAAAAAAAAAAAAAAAAAAAAAAAAAAAAAAAAAAAAAAAAAAAAAAAAAAAAAAAAAAAAAAAAAAAAAAAAAAAAAAAAAAAAAAAAAAAAAAAAAAAAAAAAAAAAAAAAAAAAAAAAAAAAAAAAAAAAAAAAAAAAAAAAAAAAAAAAAAAAAAAAAAAAAAAAAAAAAAAAAAAAAAAAAAAAAAAAAAAAAAAAAAAAAAAAAAAAAAAAAAAAAAAAAAAAAAAAAAAAAAAAAAAAAAAAAAAAAAAAAAAAAAAAAAAAAAAAAAAAAAAAAAAAAAAAAAAAAAAAAAAAAAAAAAAAAAAAAAAAAAAAAAAAAAAAAAAAAAAAAAAAAAAAAAAAAAAAAAAAAAAAAAAAAAAAAAAAAAAAAAAAAAAAAAAAAAAAAAAAAAAAAAAAAAAAAAAAAAAAAAAAAAAAAAAAAAAAAAAAAAAAAAAAAAAAAAAAAAAAAAAAAAAAAAAAAAAAAAAAAAAAAAAAAAAAAAAAAAAAAAAAAAAAAAAAAAAAAAAAAAAAAAAAAAAAAAAAAAAAAAAAAAAAAAAAAAAAAAAAAAAAAAAAAAAAAAAAAAAAAAAAAAAAAAAAAAAAAAAAAAAAAAAAAAAAAAAAAAAAAAAAAAAAAAAAAAAAAAAAAAAAAAAAAAAAAAAAAAAAAAAAAAAAAAAAAAAAAAAAAAAAAAAAAAAAAAAAAAAAAAAAAAAAAAAAAAAAAAAAAAAAAAAAAAAAAAAAAAAAAAAAAAAAAAAAAAAAAAAAAAAAAAAAAAAAAAAAAAAAAAAAAAAAAAAAAAAAAAAAAAAAAAAAAAAAAAAAAAAAAAAAAAAAAAAAAAAAAAAAAAAAAAAAAAAAAAAAAAAAAAAAAAAAAAAAAAAAAAAAAAAAAAAAAAAAAAAAAAAAAAAAAAAAAAAAAAAAAAAAAAAAAAAAAAAAAAAAAAAAAAAAAAAAAAAAAAAAAAAAAAAAAAAAAAAAAAAAAAAAAAAAAAAAAAAAAAAAAAAAAAAAAAAAAAAAAAAAAAAAAAAAAAAAAAAAAAAAAAAAAAAAAAAAAAAAAAAAAAAAAAAAAAAAAAAAAAAAAAAAAAAAAAAAAAAAAAAAAAAAAAAAAAAAAAAAAAAAAAAAAAAAAAAAAAAAAAAAAAAAAAAAAAAAAAAAAAAAAAAAAAAAAAAAAAAAAAAAAAAAAAAAAAAAAAAAAAAAAAAAAAAAAAAAAAAAAAAAAAAAAAAAAAAAAAAAAAAAAAAAAAAAAAAAAAAAAAAAAAAAAAAAAAAAAAAAAAAAAAAAAAAAAAAAAAAAAAAAAAAAAAAAAAAAAAAAAAAAAAAAAAAAAAAAAAAAAAAAAAAAAAAAAAAAAAAAAAAAAAAAAAAAAAAAAAAAAAAAAAAAAAAAAAAAAAAAAAAAAAAAAAAAAAAAAAAAAAAAAAAAAAAAAAAAAAAAAAAAAAAAAAAAAAAAAAAAAAAAAAAAAAAAAAAAAAAAAAAAAAAAAAAAAAAAAAAAAAAAAAAAAAAAAAAAAAAAAAAAAAAAAAAAAAAAAAAAAAAAAAAAAAAAAAAAAAAAAAAAAAAAAAAAAAAAAAAAAAAAAAAAAAAAAAAAAAAAAAAAAAAAAAAAAAAAAAAAAAAAAAAAAAAAAAAAAAAAAAAAAAAAAAAAAAAAAAAAAAAAAAAAAAAAAAAAAAAAAAAAAAAAAAAAAAAAAAAAAAAAAAAAAAAAAAAAAAAAAAAAAAAAAAAAAAAAAAAAAAAAAAAAAAAAAAAAAAAAAAAAAAAAAAAAAAAAAAAAAAAAAAAAAAAAAAAAAAAAAAAAAAAAAAAAAAAAAAAAAAAAAAAAAAAAAAAAAAAAAAAAAAAAAAAAAAAAAAAAAAAAAAAAAAAAAAAAAAAAAAAAAAAAAAAAAAAAAAAAAAAAAAAAAAAAAAAAAAAAAAAAAAAAAAAAAAAAAAAAAAAAAAAAAAAAAAAAAAAAAAAAAAAAAAAAAAAAAAAAAAAAAAAAAAAAAAAAAAAAAAAAAAAAAAAAAAAAAAAAAAAAAAAAAAAAAAAAAAAAAAAAAAAAAAAAAAAAAAAAAAAAAAAAAAAAAAAAAAAAAAAAAAAAAAAAAAAAAAAAAAAAAAAAAAAAAAAAAAAAAAAAAAAAAAAAAAAAAAAAAAAAAAAAAAAAAAAAAAAAAAAAAAAAAAAAAAAAAAAAAAAAAAAAAAAAAAAAAAAAAAAAAAAAAAAAAAAAAAAAAAAAAAAAAAAAAAAAAAAAAAAAAAAAAAAAAAAAAAAAAAAAAAAAAAAAAAAAAAAAAAAAAAAAAAAAAAAAAAAAAAAAAAAAAAAAAAAAAAAAAAAAAAAAAAAAAAAAAAAAAAAAAAAAAAAAAAAAAAAAAAAAAAAAAAAAAAAAAAAAAAAAAAAAAAAAAAAAAAAAAAAAAAAAAAAAAAAAAAAAAAAAAAAAAAAAAAAAAAAAAAAAAAAAAAAAAAAAAAAAAAAAAAAAAAAAAAAAAAAAAAAAAAAAAAAAAAAAAAAAAAAAAAAAAAAAAAAAAAAAAAAAAAAAAAAAAAAAAAAAAAAAAAAAAAAAAAAAAAAAAAAAAAAAAAAAAAAAAAAAAAAAAAAAAAAAAAAAAAAAAAAAAAAAAAAAAAAAAAAAAAAAAAAAAAAAAAAAAAAAAAAAAAAAAAAAAAAAAAAAAAAAAAAAAAAAAAAAAAAAAAAAAAAAAAAAAAAAAAAAAAAAAAAAAAAAAAAAAAAAAAAAAAAAAAAAAAAAAAAAAAAAAAAAAAAAAAAAAAAAAAAAAAAAAAAAAAAAAAAAAAAAAAAAAAAAAAAAAAAAAAAAAAAAAAAAAAAAAAAAAAAAAAAAAAAAAAAAAAAAAAAAAAAAAAAAAAAAAAAAAAAAAAAAAAAAAAAAAAAAAAAAAAAAAAAAAAAAAAAAAAAAAAAAAAAAAAAAAAAAAAAAAAAAAAAAAAAAAAAAAAAAAAAAAAAAAAAAAAAAAAAAAAAAAAAAAAAAAAAAAAAAAAAAAAAAAAAAAAAAAAAAAAAAAAAAAAAAAAAAAAAAAAAAAAAAAAAAAAAAAAAAAAAAAAAAAAAAAAAAAAAAAAAAAAAAAAAAAAAAAAAAAAAAAAAAAAAAAAAAAAAAAAAAAAAAAAAAAAAAAAAAAAAAAAAAAAAAAAAAAAAAAAAAAAAAAAAAAAAAAAAAAAAAAAAAAAAAAAAAAAAAAAAAAAAAAAAAAAAAAAAAAAAAAAAAAAAAAAAAAAAAAAAAAAAAAAAAAAAAAAAAAAAAAAAAAAAAAAAAAAAAAAAAAAAAAAAAAAAAAAAAAAAAAAAAAAAAAAAAAAAAAAAAAAAAAAAAAAAAAAAAAAAAAAAAAAAAAAAAAAAAAAAAAAAAAAAAAAAAAAAAAAAAAAAAAAAAAAAAAAAAAAAAAAAAAAAAAAAAAAAAAAAAAAAAAAAAAAAAAAAAAAAAAAAAAAAAAAAAAAAAAAAAAAAAAAAAAAAAAAAAAAAAAAAAAAAAAAAAAAAAAAAAAAAAAAAAAAAAAAAAAAAAAAAAAAAAAAAAAAAAAAAAAAAAAAAAAAAAAAAAAAAAAAAAAAAAAAAAAAAAAAAAAAAAAAAAAAAAAAAAAAAAAAAAAAAAAAAAAAAAAAAAAAAAAAAAAAAAAAAAAAAAAAAAAAAAAAAAAAAAAAAAAAAAAAAAAAAAAAAAAAAAAAAAAAAAAAAAAAAAAAAAAAAAAAAAAAAAAAAAAAAAAAAAAAAAAAAAAAAAAAAAAAAAAAAAAAAAAAAAAAAAAAAAAAAAAAAAAAAAAAAAAAAAAAAAAAAAAAAAAAAAAAAAAAAAAAAAAAAAAAAAAAAAAAAAAAAAAAAAAAAAAAAAAAAAAAAAAAAAAAAAAAAAAAAAAAAAAAAAAAAAAAAAAAAAAAAAAAAAAAAAAAAAAAAAAAAAAAAAAAAAAAAAAAAAAAAAAAAAAAAAAAAAAAAAAAAAAAAAAAAAAAAAAAAAAAAAAAAAAAAAAAAAAAAAAAAAAAAAAAAAAAAAAAAAAAAAAAAAAAAAAAAAAAAAAAAAAAAAAAAAAAAAAAAAAAAAAAAAAAAAAAAAAAAAAAAAAAAAAAAAAAAAAAAAAAAAAAAAAAAAAAAAAAAAAAAAAAAAAAAAAAAAAAAAAAAAAAAAAAAAAAAAAAAAAAAAAAAAAAAAAAAAAAAAAAAAAAAAAAAAAAAAAAAAAAAAAAAAAAAAAAAAAAAAAAAAAAAAAAAAAAAAAAAAAAAAAAAAAAAAAAAAAAAAAAAAAAAAAAAAAAAAAAAAAAAAAAAAAAAAAAAAAAAAAAAAAAAAAAAAAAAAAAAAAAAAAAAAAAAAAAAAAAAAAAAAAAAAAAAAAAAAAAAAAAAAAAAAAAAAAAAAAAAAAAAAAAAAAAAAAAAAAAAAAAAAAAAAAAAAAAAAAAAAAAAAAAAAAAAAAAAAAAAAAAAAAAAAAAAAAAAAAAAAAAAAAAAAAAAAAAAAAAAAAAAAAAAAAAAAAAAAAAAAAAAAAAAAAAAAAAAAAAAAAAAAAAAAAAAAAAAAAAAAAAAAAAAAAAAAAAAAAAAAAAAAAAAAAAAAAAAAAAAAAAAAAAAAAAAAAAAAAAAAAAAAAAAAAAAAAAAAAAAAAAAAAAAAAAAAAAAAAAAAAAAAAAAAAAAAAAAAAAAAAAAAAAAAAAAAAAAAAAAAAAAAAAAAAAAAAAAAAAAAAAAAAAAAAAAAAAAAAAAAAAAAAAAAAAAAAAAAAAAAAAAAAAAAAAAAAAAAAAAAAAAAAAAAAAAAAAAAAAAAAAAAAAAAAAAAAAAAAAAAAAAAAAAAAAAAAAAAAAAAAAAAAAAAAAAAAAAAAAAAAAAAAAAAAAAAAAAAAAAAAAAAAAAAAAAAAAAAAAAAAAAAAAAAAAAAAAAAAAAAAAAAAAAAAAAAAAAAAAAAAAAAAAAAAAAAAAAAAAAAAAAAAAAAAAAAAAAAAAAAAAAAAAAAAAAAAAAAAAAAAAAAAAAAAAAAAAAAAAAAAAAAAAAAAAAAAAAAAAAAAAAAAAAAAAAAAAAAAAAAAAAAAAAAAAAAAAAAAAAAAAAAAAAAAAAAAAAAAAAAAAAAAAAAAAAAAAAAAAAAAAAAAAAAAAAAAAAAAAAAAAAAAAAAAAAAAAAAAAAAAAAAAAAAAAAAAAAAAAAAAAAAAAAAAAAAAAAAAAAAAAAAAAAAAAAAAAAAAAAAAAAAAAAAAAAAAAAAAAAAAAAAAAAAAAAAAAAAAAAAAAAAAAAAAAAAAAAAAAAAAAAAAAAAAAAAAAAAAAAAAAAAAAAAAAAAAAAAAAAAAAAAAAAAAAAAAAAAAAAAAAAAAAAAAAAAAAAAAAAAAAAAAAAAAAAAAAAAAAAAAAAAAAAAAAAAAAAAAAAAAAAAAAAAAAAAAAAAAAAAAAAAAAAAAAAAAAAAAAAAAAAAAAAAAAAAAAAAAAAAAAAAAAAAAAAAAAAAAAAAAAAAAAAAAAAAAAAAAAAAAAAAAAAAAAAAAAAAAAAAAAAAAAAAAAAAAAAAAAAAAAAAAAAAAAAAAAAAAAAAAAAAAAAAAAAAAAAAAAAAAAAAAAAAAAAAAAAAAAAAAAAAAAAAAAAAAAAAAAAAAAAAAAAAAAAAAAAAAAAAAAAAAAAAAAAAAAAAAAAAAAAAAAAAAAAAAAAAAAAAAAAAAAAAAAAAAAAAAAAAAAAAAAAAAAAAAAAAAAAAAAAAAAAAAAAAAAAAAAAAAAAAAAAAAAAAAAAAAAAAAAAAAAAAAAAAAAAAAAAAAAAAAAAAAAAAAAAAAAAAAAAAAAAAAAAAAAAAAAAAAAAAAAAAAAAAAAAAAAAAAAAAAAAAAAAAAAAAAAAAAAAAAAAAAAAAAAAAAAAAAAAAAAAAAAAAAAAAAAAAAAAAAAAAAAAAAAAAAAAAAAAAAAAAAAAAAAAAAAAAAAAAAAAAAAAAAAAAAAAAAAAAAAAAAAAAAAAAAAAAAAAAAAAAAAAAAAAAAAAAAAAAAAAAAAAAAAAAAAAAAAAAAAAAAAAAAAAAAAAAAAAAAAAAAAAAAAAAAAAAAAAAAAAAAAAAAAAAAAAAAAAAAAAAAAAAAAAAAAAAAAAAAAAAAAAAAAAAAAAAAAAAAAAAAAAAAAAAAAAAAAAAAAAAAAAAAAAAAAAAAAAAAAAAAAAAAAAAAAAAAAAAAAAAAAAAAAAAAAAAAAAAAAAAAAAAAAAAAAAAAAAAAAAAAAAAAAAAAAAAAAAAAAAAAAAAAAAAAAAAAAAAAAAAAAAAAAAAAAAAAAAAAAAAAAAAAAAAAAAAAAAAAAAAAAAAAAAAAAAAAAAAAAAAAAAAAAAAAAAAAAAAAAAAAAAAAAAAAAAAAAAAAAAAAAAAAAAAAAAAAAAAAAAAAAAAAAAAAAAAAAAAAAAAAAAAAAAAAAAAAAAAAAAAAAAAAAAAAAAAAAAAAAAAAAAAAAAAAAAAAAAAAAAAAAAAAAAAAAAAAAAAAAAAAAAAAAAAAAAAAAAAAAAAAAAAAAAAAAAAAAAAAAAAAAAAAAAAAAAAAAAAAAAAAAAAAAAAAAAAAAAAAAAAAAAAAAAAAAAAAAAAAAAAAAAAAAAAAAAAAAAAAAAAAAAAAAAAAAAAAAAAAAAAAAAAAAAAAAAAAAAAAAAAAAAAAAAAAAAAAAAAAAAAAAAAAAAAAAAAAAAAAAAAAAAAAAAAAAAAAAAAAAAAAAAAAAAAAAAAAAAAAAAAAAAAAAAAAAAAAAAAAAAAAAAAAAAAAAAAAAAAAAAAAAAAAAAAAAAAAAAAAAAAAAAAAAAAAAAAAAAAAAAAAAAAAAAAAAAAAAAAAAAAAAAAAAAAAAAAAAAAAAAAAAAAAAAAAAAAAAAAAAAAAAAAAAAAAAAAAAAAAAAAAAAAAAAAAAAAAAAAAAAAAAAAAAAAAAAAAAAAAAAAAAAAAAAAAAAAAAAAAAAAAAAAAAAAAAAAAAAAAAAAAAAAAAAAAAAAAAAAAAAAAAAAAAAAAAAAAAAAAAAAAAAAAAAAAAAAAAAAAAAAAAAAAAAAAAAAAAAAAAAAAAAAAAAAAAAAAAAAAAAAAAAAAAAAAAAAAAAAAAAAAAAAAAAAAAAAAAAAAAAAAAAAAAAAAAAAAAAAAAAAAAAAAAAAAAAAAAAAAAAAAAAAAAAAAAAAAAAAAAAAAAAAAAAAAAAAAAAAAAAAAAAAAAAAAAAAAAAAAAAAAAAAAAAAAAAAAAAAAAAAAAAAAAAAAAAAAAAAAAAAAAAAAAAAAAAAAAAAAAAAAAAAAAAAAAAAAAAAAAAAAAAAAAAAAAAAAAAAAAAAAAAAAAAAAAAAAAAAAAAAAAAAAAAAAAAAAAAAAAAAAAAAAAAAAAAAAAAAAAAAAAAAAAAAAAAAAAAAAAAAAAAAAAAAAAAAAAAAAAAAAAAAAAAAAAAAAAAAAAAAAAAAAAAAAAAAAAAAAAAAAAAAAAAAAAAAAAAAAAAAAAAAAAAAAAAAAAAAAAAAAAAAAAAAAAAAAAAAAAAAAAAAAAAAAAAAAAAAAAAAAAAAAAAAAAAAAAAAAAAAAAAAAAAAAAAAAAAAAAAAAAAAAAAAAAAAAAAAAAAAAAAAAAAAAAAAAAAAAAAAAAAAAAAAAAAAAAAAAAAAAAAAAAAAAAAAAAAAAAAAAAAAAAAAAAAAAAAAAAAAAAAAAAAAAAAAAAAAAAAAAAAAAAAAAAAAAAAAAAAAAAAAAAAAAAAAAAAAAAAAAAAAAAAAAAAAAAAAAAAAAAAAAAAAAAAAAAAAAAAAAAAAAAAAAAAAAAAAAAAAAAAAAAAAAAAAAAAAAAAAAAAAAAAAAAAAAAAAAAAAAAAAAAAAAAAAAAAAAAAAAAAAAAAAAAAAAAAAAAAAAAAAAAAAAAAAAAAAAAAAAAAAAAAAAAAAAAAAAAAAAAAAAAAAAAAAAAAAAAAAAAAAAAAAAAAAAAAAAAAAAAAAAAAAAAAAAAAAAAAAAAAAAAAAAAAAAAAAAAAAAAAAAAAAAAAAAAAAAAAAAAAAAAAAAAAAAAAAAAAAAAAAAAAAAAAAAAAAAAAAAAAAAAAAAAAAAAAAAAAAAAAAAAAAAAAAAAAAAAAAAAAAAAAAAAAAAAAAAAAAAAAAAAAAAAAAAAAAAAAAAAAAAAAAAAAAAAAAAAAAAAAAAAAAAAAAAAAAAAAAAAAAAAAAAAAAAAAAAAAAAAAAAAAAAAAAAAAAAAAAAAAAAAAAAAAAAAAAAAAAAAAAAAAAAAAAAAAAAAAAAAAAAAAAAAAAAAAAAAAAAAAAAAAAAAAAAAAAAAAAAAAAAAAAAAAAAAAAAAAAAAAAAAAAAAAAAAAAAAAAAAAAAAAAAAAAAAAAAAAAAAAAAAAAAAAAAAAAAAAAAAAAAAAAAAAAAAAAAAAAAAAAAAAAAAAAAAAAAAAAAAAAAAAAAAAAAAAAAAAAAAAAAAAAPZYQCG6ABMGyUmvkRUIUi8Y2MNyTL4Y5+StW89UjmI4nGPwxFtb44GSb5JADw7EqI3Nn4EQ6gCLZwAEsFsmg1sZSf8=</c2pa:manifest></metadata>
<path transform="translate(0,0)" fill="rgb(233,226,201)" d="M 0 0 L 932.328 0 L 1124.76 0 L 2048 0 L 2048 932.661 L 2048 1119.04 L 2048 2048 L 1742.68 2048 L 1575.02 2048 L 1070.49 2048 L 974.449 2048 L 474.733 2048 L 305.15 2048 L 0 2048 L 0 1114.93 L 0 942.496 L 0 0 z"/>
<path transform="translate(0,0)" fill="rgb(254,116,34)" d="M 482.263 906.878 C 488.972 904.335 506.189 887.485 512.147 882.017 C 555.492 842.236 590.363 791.154 607.511 734.582 C 614.051 713.056 617.838 690.789 618.78 668.312 C 619.339 654.28 618.866 640.606 620.227 626.606 C 625.478 572.575 654.854 520.363 703.155 493.791 C 742.245 472.286 792.775 477.227 836.396 477.38 L 972.003 477.666 L 1196.03 477.667 C 1222.93 477.819 1259.95 476.444 1285.58 477.8 C 1296.65 478.291 1307.63 480.109 1318.26 483.215 C 1376.78 500.916 1416.53 556.595 1425.42 615.464 C 1428.2 633.867 1427.15 652.45 1428.13 670.968 C 1434.25 772.303 1491.66 845.122 1565.08 908.118 L 1564.95 1148.22 C 1564.94 1195.5 1567.22 1265.13 1562.35 1310.24 C 1548.75 1436.42 1486.96 1563.69 1396.68 1652.84 C 1335.9 1712.86 1287.87 1741.85 1210.72 1773.92 C 1210.6 1780.01 1208.43 1812.1 1210.9 1814.72 L 1215.53 1815.64 C 1209.92 1854.3 1182.04 1891.79 1151.47 1914.85 C 1065.14 1979.94 926.327 1966.78 860.71 1878.04 C 848.777 1861.89 835.552 1835.7 830.214 1816.16 L 837.503 1814.84 C 837.493 1801.23 837.568 1787.63 837.728 1774.02 C 759.165 1743.12 702.886 1707.44 643.729 1645.73 C 552.413 1550.66 496.085 1427.4 483.972 1296.14 C 482.165 1274.39 481.896 1253.77 482.326 1231.97 C 484.456 1123.82 480.014 1014.99 482.263 906.878 z"/>
<path transform="translate(0,0)" fill="rgb(233,226,201)" d="M 726.732 984.42 C 731.681 983.895 736.021 983.804 740.969 983.753 C 830.487 982.831 886.22 1033.17 945.825 1092 C 891.183 1146.08 839.144 1191.7 757.954 1199.59 C 752.96 1200.08 747.946 1200.34 742.928 1200.39 C 656.945 1201.67 595.939 1147.17 538.545 1091.01 C 597.328 1036.36 643.129 991.644 726.732 984.42 z"/>
<path transform="translate(0,0)" fill="rgb(4,0,45)" d="M 738.001 1010.02 C 783.497 1007.43 822.488 1042.19 825.111 1087.68 C 827.734 1133.18 792.996 1172.19 747.504 1174.84 C 701.971 1177.5 662.914 1142.72 660.289 1097.19 C 657.663 1051.65 692.464 1012.62 738.001 1010.02 z"/>
<path transform="translate(0,0)" fill="rgb(233,226,201)" d="M 1290.85 984.411 C 1298.03 983.394 1306.73 983.657 1314.01 983.717 C 1391.48 984.357 1458.87 1037.9 1509.74 1092.55 C 1498.64 1102.81 1488.44 1114.12 1477.09 1124.25 C 1431.2 1165.23 1388.07 1193.22 1325.25 1198.89 C 1233.07 1205.48 1164.24 1155.41 1104.5 1091.3 C 1162.28 1034.93 1207.14 992.831 1290.85 984.411 z"/>
<path transform="translate(0,0)" fill="rgb(4,0,45)" d="M 1297.12 1010.41 C 1342.54 1003.89 1384.58 1035.6 1390.79 1081.06 C 1397.01 1126.52 1365.02 1168.34 1319.52 1174.24 C 1274.45 1180.09 1233.11 1148.47 1226.96 1103.45 C 1220.81 1058.43 1252.14 1016.87 1297.12 1010.41 z"/>
<path transform="translate(0,0)" fill="rgb(4,0,45)" d="M 766.757 869.449 C 802.391 868.651 838.249 871.756 873.865 872.821 C 893.258 873.4 918.709 873.116 922.003 898.03 C 922.901 904.921 920.975 911.882 916.662 917.331 C 912.479 922.651 905.102 926.621 898.464 926.939 C 878.967 927.875 856.551 923.717 837.142 922.753 C 785.052 920.164 720.209 912.567 669.012 919.278 C 624.773 925.733 587.838 945.815 553.469 973.293 C 558.665 965.782 563.954 959.647 570.097 953.068 C 629.842 889.076 683.584 873.176 766.757 869.449 z"/>
<path transform="translate(0,0)" fill="rgb(4,0,45)" d="M 1471.65 954.895 C 1440.76 934.543 1409.85 923.729 1373.14 918.469 C 1347.11 914.74 1318.1 916.599 1291.8 917.805 C 1247.68 919.827 1203.7 923.539 1159.7 927.136 C 1150.05 927.925 1141.14 926.47 1133.87 919.514 C 1128.81 914.668 1125.88 908.006 1125.74 900.998 C 1125.35 879.311 1145.05 873.666 1162.74 873.15 C 1290.3 869.432 1379.15 851.575 1477.15 951.75 C 1474.87 954.034 1474.97 953.819 1471.65 954.895 z"/>
<path transform="translate(0,0)" fill="rgb(4,0,45)" d="M 853.854 1489.1 C 870.93 1488.1 895.43 1488.83 912.961 1488.85 L 1021.73 1488.87 L 1130.54 1488.66 C 1150.51 1488.61 1175.24 1487.85 1194.75 1489.16 C 1209.52 1498.29 1209.03 1512.43 1193.43 1520.29 C 1184.13 1521.61 1156.92 1520.93 1146.61 1520.91 L 1055.6 1520.85 L 916.478 1520.87 C 896.318 1520.89 874.4 1521.59 854.255 1519.89 C 850.766 1519.08 845.915 1516.33 844.423 1513.02 C 839.449 1501.98 844.568 1494.1 853.854 1489.1 z"/>
<path transform="translate(0,0)" fill="rgb(4,0,45)" d="M 972.314 1557.47 C 1006.54 1567.34 1042.8 1567.71 1077.22 1558.56 C 1083.22 1561.32 1080.4 1559.87 1076.86 1565.67 C 1073.01 1568.61 1061.36 1573.51 1056.62 1574.84 C 1024.5 1583.81 997.086 1576.81 968.662 1561.58 L 972.314 1557.47 z"/>
<path transform="translate(0,0)" fill="rgb(4,0,45)" d="M 1007.32 1374.86 C 1002.06 1375.66 934.607 1383.01 955.92 1359.82 C 959.656 1355.76 998.961 1357.45 1007.1 1358.75 C 1015.04 1363.41 1015.84 1370.35 1007.32 1374.86 z"/>
<path transform="translate(0,0)" fill="rgb(5,1,11)" d="M 1007.1 1358.75 C 1015.04 1363.41 1015.84 1370.35 1007.32 1374.86 C 1008.26 1368 1008.16 1365.45 1007.1 1358.75 z"/>
<path transform="translate(0,0)" fill="rgb(4,0,45)" d="M 1047.43 1357.31 C 1058.53 1357.12 1081.33 1355.79 1090.99 1358.06 C 1100.1 1360.21 1097.82 1372.15 1086.53 1375.79 C 1079.79 1375.9 1050.63 1377.24 1045.58 1375.69 C 1033.2 1371.88 1035.29 1362.14 1047.43 1357.31 z"/>
<path transform="translate(0,0)" fill="rgb(4,0,45)" d="M 929.263 1311.18 C 933.283 1312.2 933.529 1312.44 936.744 1315.27 C 931.736 1333.09 932.724 1349.67 940.727 1366.43 C 943.018 1371.22 945.554 1374.97 947.484 1380 C 938.839 1375.21 933.312 1372.95 928.254 1363.88 C 919.044 1347.35 918.363 1327.03 929.263 1311.18 z"/>
<path transform="translate(0,0)" fill="rgb(4,0,45)" d="M 1115.58 1304.7 C 1133.34 1323.29 1132.87 1350.8 1116.47 1370.2 C 1110.61 1375.17 1109.25 1375.59 1102.74 1379.07 C 1106.56 1373.33 1108.44 1370.63 1111.35 1364.19 C 1117.69 1343.59 1120.01 1329.49 1111.51 1308.68 L 1115.58 1304.7 z"/>
<path transform="translate(0,0)" fill="rgb(5,1,11)" d="M 1111.35 1364.19 C 1114.7 1368.11 1107.18 1368.2 1116.47 1370.2 C 1110.61 1375.17 1109.25 1375.59 1102.74 1379.07 C 1106.56 1373.33 1108.44 1370.63 1111.35 1364.19 z"/>
<path transform="translate(0,0)" fill="rgb(5,1,11)" d="M 1477.15 951.75 C 1484.2 957.857 1490.91 965.788 1496.63 973.116 C 1490.13 968.316 1477.42 959.526 1471.65 954.895 C 1474.97 953.819 1474.87 954.034 1477.15 951.75 z"/>
<path transform="translate(0,0)" fill="rgb(5,1,11)" d="M 929.263 1311.18 C 935.649 1303.57 937.994 1302.26 945.841 1296.61 C 941.593 1304.26 939.973 1307.25 936.744 1315.27 C 933.529 1312.44 933.283 1312.2 929.263 1311.18 z"/>
<path transform="translate(0,0)" fill="rgb(5,1,11)" d="M 1077.22 1558.56 C 1083.84 1556.32 1088.52 1554.97 1095.15 1553.15 C 1089.2 1558.05 1083.74 1562.11 1076.86 1565.67 C 1080.4 1559.87 1083.22 1561.32 1077.22 1558.56 z"/>
<path transform="translate(0,0)" fill="rgb(5,1,11)" d="M 953.319 1551.63 C 959.311 1553.52 966.397 1555.84 972.314 1557.47 L 968.662 1561.58 C 963.197 1558.08 958.793 1555.4 953.319 1551.63 z"/>
<path transform="translate(0,0)" fill="rgb(5,1,11)" d="M 1106.23 1297.53 C 1109.87 1300.07 1112.22 1301.77 1115.58 1304.7 L 1111.51 1308.68 L 1106.23 1297.53 z"/>
<path transform="translate(0,0)" fill="rgb(4,0,45)" d="M 482.263 906.878 L 482.255 572.274 L 482.252 480.218 C 482.236 440.007 480.713 405.839 490.283 366.182 C 503.332 313.045 530.865 264.57 569.819 226.146 C 685.847 110.934 869.417 76.6102 1027.13 78.0046 C 1184.53 79.3961 1364.69 112.19 1480.22 228.612 C 1519.64 268.341 1543.84 312.263 1557.23 366.404 C 1567.04 406.071 1565.05 442.666 1565.08 483.103 L 1565.12 592.524 L 1565.08 908.118 C 1491.66 845.122 1434.25 772.303 1428.13 670.968 C 1427.15 652.45 1428.2 633.867 1425.42 615.464 C 1416.53 556.595 1376.78 500.916 1318.26 483.215 C 1307.63 480.109 1296.65 478.291 1285.58 477.8 C 1259.95 476.444 1222.93 477.819 1196.03 477.667 L 972.003 477.666 L 836.396 477.38 C 792.775 477.227 742.245 472.286 703.155 493.791 C 654.854 520.363 625.478 572.575 620.227 626.606 C 618.866 640.606 619.339 654.28 618.78 668.312 C 617.838 690.789 614.051 713.056 607.511 734.582 C 590.363 791.154 555.492 842.236 512.147 882.017 C 506.189 887.485 488.972 904.335 482.263 906.878 z"/>
<path transform="translate(0,0)" fill="rgb(231,219,166)" d="M 1124.76 0 L 2048 0 L 2048 932.661 C 2044.82 924.339 2038.93 878.706 2037.02 867.112 C 2032.09 838.788 2026.24 810.633 2019.47 782.693 C 1935 442.423 1683.93 168.092 1352.46 53.8716 C 1302.61 37.158 1251.67 23.9022 1200 14.1986 C 1186.46 11.6861 1134.5 6.21818 1125.48 0.482179 C 1125.24 0.326867 1125 0.160726 1124.76 0 z"/>
<path transform="translate(0,0)" fill="rgb(231,219,166)" d="M 0 0 L 932.328 0 C 913.648 5.67503 883.475 7.85405 862.998 11.4932 C 815.96 19.6457 769.439 30.5449 723.675 44.135 C 545.686 99.4887 386.016 202.024 261.629 340.847 C 208.862 400.432 162.884 465.699 124.543 535.446 C 69.4833 633.366 38.9847 728.892 16.5069 837.761 C 13.6979 851.402 11.3363 865.132 9.42593 878.927 C 7.567 892.871 5.29004 932.31 0 942.496 L 0 0 z"/>
<path transform="translate(0,0)" fill="rgb(231,219,166)" d="M 0 1114.93 C 4.9269 1123.15 7.54056 1160.92 9.07101 1173.31 C 12.3812 1198.55 16.6381 1223.65 21.8326 1248.56 C 52.2874 1392.38 112.674 1528.19 199.066 1647.14 C 252.42 1721.09 315.379 1787.62 386.285 1844.96 C 399.742 1856.08 413.531 1866.79 427.633 1877.08 C 435.336 1882.64 443.574 1888.14 451.286 1893.72 C 453.251 1895.14 453.692 1897.4 454.267 1899.68 C 486.004 1885.95 509.248 1883.89 542.116 1877.33 C 527.28 1911.99 513.156 1946.94 499.753 1982.18 C 491.783 2002.98 483.176 2027.91 474.733 2048 L 305.15 2048 L 0 2048 L 0 1114.93 z"/>
<path transform="translate(0,0)" fill="rgb(4,0,45)" d="M 454.267 1899.68 C 486.004 1885.95 509.248 1883.89 542.116 1877.33 C 527.28 1911.99 513.156 1946.94 499.753 1982.18 C 491.783 2002.98 483.176 2027.91 474.733 2048 L 305.15 2048 C 329.579 1975.38 386.138 1929.12 454.267 1899.68 z"/>
<path transform="translate(0,0)" fill="rgb(231,219,166)" d="M 1590.02 1897.73 C 1595.76 1893.04 1600.97 1890.15 1606.91 1886.13 C 1633.2 1868.31 1659.03 1847.08 1683.25 1826.6 C 1844.48 1688.98 1959.86 1505.44 2013.96 1300.49 C 2028.38 1246.78 2036.6 1190.89 2043.73 1135.76 C 2044.28 1131.49 2044.7 1121.14 2048 1119.04 L 2048 2048 L 1742.68 2048 L 1575.02 2048 C 1569.93 2033.52 1562.37 2017.91 1556.99 2003.34 C 1541.9 1962.5 1522.66 1919.39 1508.81 1878.51 C 1539.7 1883.2 1560.5 1887.71 1590.02 1897.73 z"/>
<path transform="translate(0,0)" fill="rgb(4,0,45)" d="M 1508.81 1878.51 C 1539.7 1883.2 1560.5 1887.71 1590.02 1897.73 C 1667.35 1928.53 1709.39 1971.29 1742.08 2046.57 L 1742.68 2048 L 1575.02 2048 C 1569.93 2033.52 1562.37 2017.91 1556.99 2003.34 C 1541.9 1962.5 1522.66 1919.39 1508.81 1878.51 z"/>
<path transform="translate(0,0)" fill="rgb(4,0,45)" d="M 1215.53 1815.64 C 1247.64 1821.66 1278.74 1829.21 1310.48 1835.65 C 1352.82 1844.95 1395.22 1854 1437.67 1862.79 C 1456.23 1866.62 1491.09 1872.95 1508.81 1878.51 C 1522.66 1919.39 1541.9 1962.5 1556.99 2003.34 C 1562.37 2017.91 1569.93 2033.52 1575.02 2048 L 1070.49 2048 L 974.449 2048 L 474.733 2048 C 483.176 2027.91 491.783 2002.98 499.753 1982.18 C 513.156 1946.94 527.28 1911.99 542.116 1877.33 C 560.368 1872.57 587.494 1867.89 606.591 1863.86 L 741.793 1835.29 C 765.493 1830.8 807.693 1822.17 830.214 1816.16 C 835.552 1835.7 848.777 1861.89 860.71 1878.04 C 926.327 1966.78 1065.14 1979.94 1151.47 1914.85 C 1182.04 1891.79 1209.92 1854.3 1215.53 1815.64 z"/>
<path transform="translate(0,0)" fill="rgb(254,116,34)" d="M 1310.48 1835.65 C 1352.82 1844.95 1395.22 1854 1437.67 1862.79 C 1456.23 1866.62 1491.09 1872.95 1508.81 1878.51 C 1522.66 1919.39 1541.9 1962.5 1556.99 2003.34 C 1562.37 2017.91 1569.93 2033.52 1575.02 2048 L 1070.49 2048 C 1078.51 2045.18 1095.91 2042.75 1104.99 2040.99 C 1126.1 2036.76 1146.55 2029.74 1165.81 2020.11 C 1241.89 1982.79 1284.21 1912.84 1310.48 1835.65 z"/>
<path transform="translate(0,0)" fill="rgb(254,116,34)" d="M 542.116 1877.33 C 560.368 1872.57 587.494 1867.89 606.591 1863.86 L 741.793 1835.29 C 762.077 1909.66 794.619 1970.67 864.074 2010.47 C 888.208 2024.27 914.277 2034.38 941.41 2040.45 C 947.933 2041.96 969.338 2046.12 974.449 2048 L 474.733 2048 C 483.176 2027.91 491.783 2002.98 499.753 1982.18 C 513.156 1946.94 527.28 1911.99 542.116 1877.33 z"/>
</svg>