<svg version="1.1" xmlns="http://www.w3.org/2000/svg" style="display: block;" viewBox="0 0 2048 2048" width="1024" height="1024" preserveAspectRatio="none" xmlns:c2pa="http://c2pa.org/manifest"><metadata><c2pa:manifest>AAAzs2p1bWIAAAAeanVtZGMycGEAEQAQgAAAqgA4m3EDYzJwYQAAADONanVtYgAAAEdqdW1kYzJtYQARABCAAACqADibcQN1cm46YzJwYTplZGUzYmM4Ni0yNDJjLTRmYTItYjU5Ny02NzMwNjA3NmY2NmUAAAAB4mp1bWIAAAApanVtZGMyYXMAEQAQgAAAqgA4m3EDYzJwYS5hc3NlcnRpb25zAAAAAO1qdW1iAAAAQWp1bWRjYm9yABEAEIAAAKoAOJtxE2MycGEuYWN0aW9ucy52MgAAAAAYYzJzaIjsswlyzvRa8RzJBrc2xoIAAACkY2JvcqFnYWN0aW9uc4GjZmFjdGlvbmxjMnBhLmNyZWF0ZWRxZGlnaXRhbFNvdXJjZVR5cGV4Rmh0dHA6Ly9jdi5pcHRjLm9yZy9uZXdzY29kZXMvZGlnaXRhbHNvdXJjZXR5cGUvdHJhaW5lZEFsZ29yaXRobWljTWVkaWFrZGVzY3JpcHRpb252Q3JlYXRlZCBieSBSZWNyYWZ0IEFJLgAAAMRqdW1iAAAAQGp1bWRjYm9yABEAEIAAAKoAOJtxE2MycGEuaGFzaC5kYXRhAAAAABhjMnNoclbV3PjZCBKt2dG7VShKjwAAAHxjYm9ypWpleGNsdXNpb25zgaJlc3RhcnQY22ZsZW5ndGgZRPBkbmFtZW5qdW1iZiBtYW5pZmVzdGNhbGdmc2hhMjU2ZGhhc2hYIPKqrOP1EWAXB8vucaywC68kaQ4ALsIio16TjtI0ybCSY3BhZEkAAAAAAAAAAAAAAAI0anVtYgAAACdqdW1kYzJjbAARABCAAACqADibcQNjMnBhLmNsYWltLnYyAAAAAgVjYm9ypmppbnN0YW5jZUlEeCx4bXA6aWlkOmUyNDc5ODg0LTRjZmMtNDljZS1iZWY2LTQ3YWFkMGM3Zjg0N3RjbGFpbV9nZW5lcmF0b3JfaW5mb6NkbmFtZWpyZWNyYWZ0LmFpZ3ZlcnNpb254KDgxY2U4MmUyYzVjM2NiZmJlOGM2ZmJlMTc5ZDVmOGQ5MWM0MDljZTF3b3JnLmNvbnRlbnRhdXRoLmMycGFfcnNmMC45MC43aXNpZ25hdHVyZXhNc2VsZiNqdW1iZj0vYzJwYS91cm46YzJwYTplZGUzYmM4Ni0yNDJjLTRmYTItYjU5Ny02NzMwNjA3NmY2NmUvYzJwYS5zaWduYXR1cmVyY3JlYXRlZF9hc3NlcnRpb25zgqJjdXJseCpzZWxmI2p1bWJmPWMycGEuYXNzZXJ0aW9ucy9jMnBhLmFjdGlvbnMudjJkaGFzaFgge9B//aRSWCNrZUg2QQcrCeRyD5Dxu344sisVRQgGUY2iY3VybHgpc2VsZiNqdW1iZj1jMnBhLmFzc2VydGlvbnMvYzJwYS5oYXNoLmRhdGFkaGFzaFggguYlqr+rzgovNbjnq/emj35c7I5OcOMGOOsNjdDONstoZGM6dGl0bGV4GlJlY3JhZnQgQUkgR2VuZXJhdGVkIEltYWdlY2FsZ2ZzaGEyNTYAAC8oanVtYgAAAChqdW1kYzJjcwARABCAAACqADibcQNjMnBhLnNpZ25hdHVyZQAAAC74Y2JvctKEWQPsogEmGCGCWQH0MIIB8DCCAZWgAwIBAgIUJcFH1Va4pZJDhzepwEtzPPNj2YMwCgYIKoZIzj0EAwIwQTELMAkGA1UEBhMCVVMxEzARBgNVBAoMClJlY3JhZnQgQUkxHTAbBgNVBAMMFFJlY3JhZnQgQzJQQSBSb290IENBMB4XDTI2MDkxMDE2NTIzNFoXDTI3MDkxMDE2NTIzNFowNzELMAkGA1UEBhMCVVMxEzARBgNVBAoMClJlY3JhZnQgQUkxEzARBgNVBAMMCnJlY3JhZnQuYWkwWTATBgcqhkjOPQIBBggqhkjOPQMBBwNCAASoOPdqG3YmNRdGd+dltfh1ikcE/nkLm8YK10H29taFa8iegusHYB1678yl5Bs18hLaV/Fhd+Ni32xAlnHdbimFo3UwczAMBgNVHRMBAf8EAjAAMA4GA1UdDwEB/wQEAwIGwDATBgNVHSUEDDAKBggrBgEFBQcDBDAdBgNVHQ4EFgQUgVwhvbEXPSSgCubOfUHxCtuoVAQwHwYDVR0jBBgwFoAUc9yF+sfWlRHeWv2Iucaec5jwdAgwCgYIKoZIzj0EAwIDSQAwRgIhAJltDpQN+vbXITLxb+8BNwSL6/5WktO4Sevkb0VXjtfWAiEAqhoz7z/sN32NxdnnZsQVTeu3P7CgGtJdXFx283fp08RZAewwggHoMIIBjaADAgECAhQAydo/NKOQWWu/4V5FktVQHX7jTDAKBggqhkjOPQQDAjBBMQswCQYDVQQGEwJVUzETMBEGA1UECgwKUmVjcmFmdCBBSTEdMBsGA1UEAwwUUmVjcmFmdCBDMlBBIFJvb3QgQ0EwHhcNMjYwOTEwMTY1MjM0WhcNMzYwOTA3MTY1MjM0WjBBMQswCQYDVQQGEwJVUzETMBEGA1UECgwKUmVjcmFmdCBBSTEdMBsGA1UEAwwUUmVjcmFmdCBDMlBBIFJvb3QgQ0EwWTATBgcqhkjOPQIBBggqhkjOPQMBBwNCAAQbQ+eF6fkpnHhTwrMxSBLh/JhROWkzsC8L8jN1r1Rlf8oECvzEFk3WujloPtNs3PLADriqR5rGtd+8giFuiTLno2MwYTAfBgNVHSMEGDAWgBRz3IX6x9aVEd5a/Yi5xp5zmPB0CDAPBgNVHRMBAf8EBTADAQH/MA4GA1UdDwEB/wQEAwIBhjAdBgNVHQ4EFgQUc9yF+sfWlRHeWv2Iucaec5jwdAgwCgYIKoZIzj0EAwIDSQAwRgIhAND2Z+xryBRnMbxk8eAzMcAq8bzl0rfA9Y2z7q5QoEUeAiEA6ZbI3e47h5clRZaARSOOotKXsK/YQMWC3vj91d3bmlOhY3BhZFkqtAAAAAAAAAAAAAAAAAAAAAAAAAAAAAAAAAAAAAAAAAAAAAAAAAAAAAAAAAAAAAAAAAAAAAAAAAAAAAAAAAAAAAAAAAAAAAAAAAAAAAAAAAAAAAAAAAAAAAAAAAAAAAAAAAAAAAAAAAAAAAAAAAAAAAAAAAAAAAAAAAAAAAAAAAAAAAAAAAAAAAAAAAAAAAAAAAAAAAAAAAAAAAAAAAAAAAAAAAAAAAAAAAAAAAAAAAAAAAAAAAAAAAAAAAAAAAAAAAAAAAAAAAAAAAAAAAAAAAAAAAAAAAAAAAAAAAAAAAAAAAAAAAAAAAAAAAAAAAAAAAAAAAAAAAAAAAAAAAAAAAAAAAAAAAAAAAAAAAAAAAAAAAAAAAAAAAAAAAAAAAAAAAAAAAAAAAAAAAAAAAAAAAAAAAAAAAAAAAAAAAAAAAAAAAAAAAAAAAAAAAAAAAAAAAAAAAAAAAAAAAAAAAAAAAAAAAAAAAAAAAAAAAAAAAAAAAAAAAAAAAAAAAAAAAAAAAAAAAAAAAAAAAAAAAAAAAAAAAAAAAAAAAAAAAAAAAAAAAAAAAAAAAAAAAAAAAAAAAAAAAAAAAAAAAAAAAAAAAAAAAAAAAAAAAAAAAAAAAAAAAAAAAAAAAAAAAAAAAAAAAAAAAAAAAAAAAAAAAAAAAAAAAAAAAAAAAAAAAAAAAAAAAAAAAAAAAAAAAAAAAAAAAAAAAAAAAAAAAAAAAAAAAAAAAAAAAAAAAAAAAAAAAAAAAAAAAAAAAAAAAAAAAAAAAAAAAAAAAAAAAAAAAAAAAAAAAAAAAAAAAAAAAAAAAAAAAAAAAAAAAAAAAAAAAAAAAAAAAAAAAAAAAAAAAAAAAAAAAAAAAAAAAAAAAAAAAAAAAAAAAAAAAAAAAAAAAAAAAAAAAAAAAAAAAAAAAAAAAAAAAAAAAAAAAAAAAAAAAAAAAAAAAAAAAAAAAAAAAAAAAAAAAAAAAAAAAAAAAAAAAAAAAAAAAAAAAAAAAAAAAAAAAAAAAAAAAAAAAAAAAAAAAAAAAAAAAAAAAAAAAAAAAAAAAAAAAAAAAAAAAAAAAAAAAAAAAAAAAAAAAAAAAAAAAAAAAAAAAAAAAAAAAAAAAAAAAAAAAAAAAAAAAAAAAAAAAAAAAAAAAAAAAAAAAAAAAAAAAAAAAAAAAAAAAAAAAAAAAAAAAAAAAAAAAAAAAAAAAAAAAAAAAAAAAAAAAAAAAAAAAAAAAAAAAAAAAAAAAAAAAAAAAAAAAAAAAAAAAAAAAAAAAAAAAAAAAAAAAAAAAAAAAAAAAAAAAAAAAAAAAAAAAAAAAAAAAAAAAAAAAAAAAAAAAAAAAAAAAAAAAAAAAAAAAAAAAAAAAAAAAAAAAAAAAAAAAAAAAAAAAAAAAAAAAAAAAAAAAAAAAAAAAAAAAAAAAAAAAAAAAAAAAAAAAAAAAAAAAAAAAAAAAAAAAAAAAAAAAAAAAAAAAAAAAAAAAAAAAAAAAAAAAAAAAAAAAAAAAAAAAAAAAAAAAAAAAAAAAAAAAAAAAAAAAAAAAAAAAAAAAAAAAAAAAAAAAAAAAAAAAAAAAAAAAAAAAAAAAAAAAAAAAAAAAAAAAAAAAAAAAAAAAAAAAAAAAAAAAAAAAAAAAAAAAAAAAAAAAAAAAAAAAAAAAAAAAAAAAAAAAAAAAAAAAAAAAAAAAAAAAAAAAAAAAAAAAAAAAAAAAAAAAAAAAAAAAAAAAAAAAAAAAAAAAAAAAAAAAAAAAAAAAAAAAAAAAAAAAAAAAAAAAAAAAAAAAAAAAAAAAAAAAAAAAAAAAAAAAAAAAAAAAAAAAAAAAAAAAAAAAAAAAAAAAAAAAAAAAAAAAAAAAAAAAAAAAAAAAAAAAAAAAAAAAAAAAAAAAAAAAAAAAAAAAAAAAAAAAAAAAAAAAAAAAAAAAAAAAAAAAAAAAAAAAAAAAAAAAAAAAAAAAAAAAAAAAAAAAAAAAAAAAAAAAAAAAAAAAAAAAAAAAAAAAAAAAAAAAAAAAAAAAAAAAAAAAAAAAAAAAAAAAAAAAAAAAAAAAAAAAAAAAAAAAAAAAAAAAAAAAAAAAAAAAAAAAAAAAAAAAAAAAAAAAAAAAAAAAAAAAAAAAAAAAAAAAAAAAAAAAAAAAAAAAAAAAAAAAAAAAAAAAAAAAAAAAAAAAAAAAAAAAAAAAAAAAAAAAAAAAAAAAAAAAAAAAAAAAAAAAAAAAAAAAAAAAAAAAAAAAAAAAAAAAAAAAAAAAAAAAAAAAAAAAAAAAAAAAAAAAAAAAAAAAAAAAAAAAAAAAAAAAAAAAAAAAAAAAAAAAAAAAAAAAAAAAAAAAAAAAAAAAAAAAAAAAAAAAAAAAAAAAAAAAAAAAAAAAAAAAAAAAAAAAAAAAAAAAAAAAAAAAAAAAAAAAAAAAAAAAAAAAAAAAAAAAAAAAAAAAAAAAAAAAAAAAAAAAAAAAAAAAAAAAAAAAAAAAAAAAAAAAAAAAAAAAAAAAAAAAAAAAAAAAAAAAAAAAAAAAAAAAAAAAAAAAAAAAAAAAAAAAAAAAAAAAAAAAAAAAAAAAAAAAAAAAAAAAAAAAAAAAAAAAAAAAAAAAAAAAAAAAAAAAAAAAAAAAAAAAAAAAAAAAAAAAAAAAAAAAAAAAAAAAAAAAAAAAAAAAAAAAAAAAAAAAAAAAAAAAAAAAAAAAAAAAAAAAAAAAAAAAAAAAAAAAAAAAAAAAAAAAAAAAAAAAAAAAAAAAAAAAAAAAAAAAAAAAAAAAAAAAAAAAAAAAAAAAAAAAAAAAAAAAAAAAAAAAAAAAAAAAAAAAAAAAAAAAAAAAAAAAAAAAAAAAAAAAAAAAAAAAAAAAAAAAAAAAAAAAAAAAAAAAAAAAAAAAAAAAAAAAAAAAAAAAAAAAAAAAAAAAAAAAAAAAAAAAAAAAAAAAAAAAAAAAAAAAAAAAAAAAAAAAAAAAAAAAAAAAAAAAAAAAAAAAAAAAAAAAAAAAAAAAAAAAAAAAAAAAAAAAAAAAAAAAAAAAAAAAAAAAAAAAAAAAAAAAAAAAAAAAAAAAAAAAAAAAAAAAAAAAAAAAAAAAAAAAAAAAAAAAAAAAAAAAAAAAAAAAAAAAAAAAAAAAAAAAAAAAAAAAAAAAAAAAAAAAAAAAAAAAAAAAAAAAAAAAAAAAAAAAAAAAAAAAAAAAAAAAAAAAAAAAAAAAAAAAAAAAAAAAAAAAAAAAAAAAAAAAAAAAAAAAAAAAAAAAAAAAAAAAAAAAAAAAAAAAAAAAAAAAAAAAAAAAAAAAAAAAAAAAAAAAAAAAAAAAAAAAAAAAAAAAAAAAAAAAAAAAAAAAAAAAAAAAAAAAAAAAAAAAAAAAAAAAAAAAAAAAAAAAAAAAAAAAAAAAAAAAAAAAAAAAAAAAAAAAAAAAAAAAAAAAAAAAAAAAAAAAAAAAAAAAAAAAAAAAAAAAAAAAAAAAAAAAAAAAAAAAAAAAAAAAAAAAAAAAAAAAAAAAAAAAAAAAAAAAAAAAAAAAAAAAAAAAAAAAAAAAAAAAAAAAAAAAAAAAAAAAAAAAAAAAAAAAAAAAAAAAAAAAAAAAAAAAAAAAAAAAAAAAAAAAAAAAAAAAAAAAAAAAAAAAAAAAAAAAAAAAAAAAAAAAAAAAAAAAAAAAAAAAAAAAAAAAAAAAAAAAAAAAAAAAAAAAAAAAAAAAAAAAAAAAAAAAAAAAAAAAAAAAAAAAAAAAAAAAAAAAAAAAAAAAAAAAAAAAAAAAAAAAAAAAAAAAAAAAAAAAAAAAAAAAAAAAAAAAAAAAAAAAAAAAAAAAAAAAAAAAAAAAAAAAAAAAAAAAAAAAAAAAAAAAAAAAAAAAAAAAAAAAAAAAAAAAAAAAAAAAAAAAAAAAAAAAAAAAAAAAAAAAAAAAAAAAAAAAAAAAAAAAAAAAAAAAAAAAAAAAAAAAAAAAAAAAAAAAAAAAAAAAAAAAAAAAAAAAAAAAAAAAAAAAAAAAAAAAAAAAAAAAAAAAAAAAAAAAAAAAAAAAAAAAAAAAAAAAAAAAAAAAAAAAAAAAAAAAAAAAAAAAAAAAAAAAAAAAAAAAAAAAAAAAAAAAAAAAAAAAAAAAAAAAAAAAAAAAAAAAAAAAAAAAAAAAAAAAAAAAAAAAAAAAAAAAAAAAAAAAAAAAAAAAAAAAAAAAAAAAAAAAAAAAAAAAAAAAAAAAAAAAAAAAAAAAAAAAAAAAAAAAAAAAAAAAAAAAAAAAAAAAAAAAAAAAAAAAAAAAAAAAAAAAAAAAAAAAAAAAAAAAAAAAAAAAAAAAAAAAAAAAAAAAAAAAAAAAAAAAAAAAAAAAAAAAAAAAAAAAAAAAAAAAAAAAAAAAAAAAAAAAAAAAAAAAAAAAAAAAAAAAAAAAAAAAAAAAAAAAAAAAAAAAAAAAAAAAAAAAAAAAAAAAAAAAAAAAAAAAAAAAAAAAAAAAAAAAAAAAAAAAAAAAAAAAAAAAAAAAAAAAAAAAAAAAAAAAAAAAAAAAAAAAAAAAAAAAAAAAAAAAAAAAAAAAAAAAAAAAAAAAAAAAAAAAAAAAAAAAAAAAAAAAAAAAAAAAAAAAAAAAAAAAAAAAAAAAAAAAAAAAAAAAAAAAAAAAAAAAAAAAAAAAAAAAAAAAAAAAAAAAAAAAAAAAAAAAAAAAAAAAAAAAAAAAAAAAAAAAAAAAAAAAAAAAAAAAAAAAAAAAAAAAAAAAAAAAAAAAAAAAAAAAAAAAAAAAAAAAAAAAAAAAAAAAAAAAAAAAAAAAAAAAAAAAAAAAAAAAAAAAAAAAAAAAAAAAAAAAAAAAAAAAAAAAAAAAAAAAAAAAAAAAAAAAAAAAAAAAAAAAAAAAAAAAAAAAAAAAAAAAAAAAAAAAAAAAAAAAAAAAAAAAAAAAAAAAAAAAAAAAAAAAAAAAAAAAAAAAAAAAAAAAAAAAAAAAAAAAAAAAAAAAAAAAAAAAAAAAAAAAAAAAAAAAAAAAAAAAAAAAAAAAAAAAAAAAAAAAAAAAAAAAAAAAAAAAAAAAAAAAAAAAAAAAAAAAAAAAAAAAAAAAAAAAAAAAAAAAAAAAAAAAAAAAAAAAAAAAAAAAAAAAAAAAAAAAAAAAAAAAAAAAAAAAAAAAAAAAAAAAAAAAAAAAAAAAAAAAAAAAAAAAAAAAAAAAAAAAAAAAAAAAAAAAAAAAAAAAAAAAAAAAAAAAAAAAAAAAAAAAAAAAAAAAAAAAAAAAAAAAAAAAAAAAAAAAAAAAAAAAAAAAAAAAAAAAAAAAAAAAAAAAAAAAAAAAAAAAAAAAAAAAAAAAAAAAAAAAAAAAAAAAAAAAAAAAAAAAAAAAAAAAAAAAAAAAAAAAAAAAAAAAAAAAAAAAAAAAAAAAAAAAAAAAAAAAAAAAAAAAAAAAAAAAAAAAAAAAAAAAAAAAAAAAAAAAAAAAAAAAAAAAAAAAAAAAAAAAAAAAAAAAAAAAAAAAAAAAAAAAAAAAAAAAAAAAAAAAAAAAAAAAAAAAAAAAAAAAAAAAAAAAAAAAAAAAAAAAAAAAAAAAAAAAAAAAAAAAAAAAAAAAAAAAAAAAAAAAAAAAAAAAAAAAAAAAAAAAAAAAAAAAAAAAAAAAAAAAAAAAAAAAAAAAAAAAAAAAAAAAAAAAAAAAAAAAAAAAAAAAAAAAAAAAAAAAAAAAAAAAAAAAAAAAAAAAAAAAAAAAAAAAAAAAAAAAAAAAAAAAAAAAAAAAAAAAAAAAAAAAAAAAAAAAAAAAAAAAAAAAAAAAAAAAAAAAAAAAAAAAAAAAAAAAAAAAAAAAAAAAAAAAAAAAAAAAAAAAAAAAAAAAAAAAAAAAAAAAAAAAAAAAAAAAAAAAAAAAAAAAAAAAAAAAAAAAAAAAAAAAAAAAAAAAAAAAAAAAAAAAAAAAAAAAAAAAAAAAAAAAAAAAAAAAAAAAAAAAAAAAAAAAAAAAAAAAAAAAAAAAAAAAAAAAAAAAAAAAAAAAAAAAAAAAAAAAAAAAAAAAAAAAAAAAAAAAAAAAAAAAAAAAAAAAAAAAAAAAAAAAAAAAAAAAAAAAAAAAAAAAAAAAAAAAAAAAAAAAAAAAAAAAAAAAAAAAAAAAAAAAAAAAAAAAAAAAAAAAAAAAAAAAAAAAAAAAAAAAAAAAAAAAAAAAAAAAAAAAAAAAAAAAAAAAAAAAAAAAAAAAAAAAAAAAAAAAAAAAAAAAAAAAAAAAAAAAAAAAAAAAAAAAAAAAAAAAAAAAAAAAAAAAAAAAAAAAAAAAAAAAAAAAAAAAAAAAAAAAAAAAAAAAAAAAAAAAAAAAAAAAAAAAAAAAAAAAAAAAAAAAAAAAAAAAAAAAAAAAAAAAAAAAAAAAAAAAAAAAAAAAAAAAAAAAAAAAAAAAAAAAAAAAAAAAAAAAAAAAAAAAAAAAAAAAAAAAAAAAAAAAAAAAAAAAAAAAAAAAAAAAAAAAAAAAAAAAAAAAAAAAAAAAAAAAAAAAAAAAAAAAAAAAAAAAAAAAAAAAAAAAAAAAAAAAAAAAAAAAAAAAAAAAAAAAAAAAAAAAAAAAAAAAAAAAAAAAAAAAAAAAAAAAAAAAAAAAAAAAAAAAAAAAAAAAAAAAAAAAAAAAAAAAAAAAAAAAAAAAAAAAAAAAAAAAAAAAAAAAAAAAAAAAAAAAAAAAAAAAAAAAAAAAAAAAAAAAAAAAAAAAAAAAAAAAAAAAAAAAAAAAAAAAAAAAAAAAAAAAAAAAAAAAAAAAAAAAAAAAAAAAAAAAAAAAAAAAAAAAAAAAAAAAAAAAAAAAAAAAAAAAAAAAAAAAAAAAAAAAAAAAAAAAAAAAAAAAAAAAAAAAAAAAAAAAAAAAAAAAAAAAAAAAAAAAAAAAAAAAAAAAAAAAAAAAAAAAAAAAAAAAAAAAAAAAAAAAAAAAAAAAAAAAAAAAAAAAAAAAAAAAAAAAAAAAAAAAAAAAAAAAAAAAAAAAAAAAAAAAAAAAAAAAAAAAAAAAAAAAAAAAAAAAAAAAAAAAAAAAAAAAAAAAAAAAAAAAAAAAAAAAAAAAAAAAAAAAAAAAAAAAAAAAAAAAAAAAAAAAAAAAAAAAAAAAAAAAAAAAAAAAAAAAAAAAAAAAAAAAAAAAAAAAAAAAAAAAAAAAAAAAAAAAAAAAAAAAAAAAAAAAAAAAAAAAAAAAAAAAAAAAAAAAAAAAAAAAAAAAAAAAAAAAAAAAAAAAAAAAAAAAAAAAAAAAAAAAAAAAAAAAAAAAAAAAAAAAAAAAAAAAAAAAAAAAAAAAAAAAAAAAAAAAAAAAAAAAAAAAAAAAAAAAAAAAAAAAAAAAAAAAAAAAAAAAAAAAAAAAAAAAAAAAAAAAAAAAAAAAAAAAAAAAAAAAAAAAAAAAAAAAAAAAAAAAAAAAAAAAAAAAAAAAAAAAAAAAAAAAAAAAAAAAAAAAAAAAAAAAAAAAAAAAAAAAAAAAAAAAAAAAAAAAAAAAAAAAAAAAAAAAAAAAAAAAAAAAAAAAAAAAAAAAAAAAAAAAAAAAAAAAAAAAAAAAAAAAAAAAAAAAAAAAAAAAAAAAAAAAAAAAAAAAAAAAAAAAAAAAAAAAAAAAAAAAAAAAAAAAAAAAAAAAAAAAAAAAAAAAAAAAAAAAAAAAAAAAAAAAAAAAAAAAAAAAAAAAAAAAAAAAAAAAAAAAAAAAAAAAAAAAAAAAAAAAAAAAAAAAAAAAAAAAAAAAAAAAAAAAAAAAAAAAAAAAAAAAAAAAAAAAAAAAAAAAAAAAAAAAAAAAAAAAAAAAAAAAAAAAAAAAAAAAAAAAAAAAAAAAAAAAAAAAAAAAAAAAAAAAAAAAAAAAAAAAAAAAAAAAAAAAAAAAAAAAAAAAAAAAAAAAAAAAAAAAAAAAAAAAAAAAAAAAAAAAAAAAAAAAAAAAAAAAAAAAAAAAAAAAAAAAAAAAAAAAAAAAAAAAAAAAAAAAAAAAAAAAAAAAAAAAAAAAAAAAAAAAAAAAAAAAAAAAAAAAAAAAAAAAAAAAAAAAAAAAAAAAAAAAAAAAAAAAAAAAAAAAAAAAAAAAAAAAAAAAAAAAAAAAAAAAAAAAAAAAAAAAAAAAAAAAAAAAAAAAAAAAAAAAAAAAAAAAAAAAAAAAAAAAAAAAAAAAAAAAAAAAAAAAAAAAAAAAAAAAAAAAAAAAAAAAAAAAAAAAAAAAAAAAAAAAAAAAAAAAAAAAAAAAAAAAAAAAAAAAAAAAAAAAAAAAAAAAAAAAAAAAAAAAAAAAAAAAAAAAAAAAAAAAAAAAAAAAAAAAAAAAAAAAAAAAAAAAAAAAAAAAAAAAAAAAAAAAAAAAAAAAAAAAAAAAAAAAAAAAAAAAAAAAAAAAAAAAAAAAAAAAAAAAAAAAAAAAAAAAAAAAAAAAAAAAAAAAAAAAAAAAAAAAAAAAAAAAAAAAAAAAAAAAAAAAAAAAAAAAAAAAAAAAAAAAAAAAAAAAAAAAAAAAAAAAAAAAAAAAAAAAAAAAAAAAAAAAAAAAAAAAAAAAAAAAAAAAAAAAAAAAAAAAAAAAAAAAAAAAAAAAAAAAAAAAAAAAAAAAAAAAAAAAAAAAAAAAAAAAAAAAAAAAAAAAAAAAAAAAAAAAAAAAAAAAAAAAAAAAAAAAAAAAAAAAAAAAAAAAAAAAAAAAAAAAAAAAAAAAAAAAAAAAAAAAAAAAAAAAAAAAAAAAAAAAAAAAAAAAAAAAAAAAAAAAAAAAAAAAAAAAAAAAAAAAAAAAAAAAAAAAAAAAAAAAAAAAAAAAAAAAAAAAAAAAAAAAAAAAAAAAAAAAAAAAAAAAAAAAAAAAAAAAAAAAAAAAAAAAAAAAAAAAAAAAAAAAAAAAAAAAAAAAAAAAAAAAAAAAAAAAAAAAAAAAAAAAAAAAAAAAAAAAAAAAAAAAAAAAAAAAAAAAAAAAAAAAAAAAAAAAAAAAAAAAAAAAAAAAAAAAAAAAAAAAAAAAAAAAAAAAAAAAAAAAAAAAAAAAAAAAAAAAAAAAAAAAAAAAAAAAAAAAAAAAAAAAAAAAAAAAAAAAAAAAAAAAAAAAAAAAAAAAAAAAAAAAAAAAAAAAAAAAAAAAAAAAAAAAAAAAAAAAAAAAAAAAAAAAAAAAAAAAAAAAAAAAAAAAAAAAAAAAAAAAAAAAAAAAAAAAAAAAAAAAAAAAAAAAAAAAAAAAAAAAAAAAAAAAAAAAAAAAAAAAAAAAAAAAAAAAAAAAAAAAAAAAAAAAAAAAAAAAAAAAAAAAAAAAAAAAAAAAAAAAAAAAAAAAAAAAAAAAAAAAAAAAAAAAAAAAAAAAAAAAAAAAAAAAAAAAAAAAAAAAAAAAAAAAAAAAAAAAAAAAAAAAAAAAAAAAAAAAAAAAAAAAAAAAAAAAAAAAAAAAAAAAAAAAAAAAAAAAAAAAAAAAAAAAAAAAAAAAAAAAAAAAAAAAAAAAAAAAAAAAAAAAAAAAAAAAAAAAAAAAAAAAAAAAAAAAAAAAAAAAAAAAAAAAAAAAAAAAAAAAAAAAAAAAAAAAAAAAAAAAAAAAAAAAAAAAAAAAAAAAAAAAAAAAAAAAAAAAAAAAAAAAAAAAAAAAAAAAAAAAAAAAAAAAAAAAAAAAAAAAAAAAAAAAAAAAAAAAAAAAAAAAAAAAAAAAAAAAAAAAAAAAAAAAAAAAAAAAAAAAAAAAAAAAAAAAAAAAAAAAAAAAAAAAAAAAAAAAAAAAAAAAAAAAAAAAAAAAAAAAAAAAAAAAAAAAAAAAAAAAAAAAAAAAAAAAAAAAAAAAAAAAAAAAAAAAAAAAAAAAAAAAAAAAAAAAAAAAAAAAAAAAAAAAAAAAAAAAAAAAAAAAAAAAAAAAAAAAAAAAAAAAAAAAAAAAAAAAAAAAAAAAAAAAAAAAAAAAAAAAAAAAAAAAAAAAAAAAAAAAAAAAAAAAAAAAAAAAAAAAAAAAAAAAAAAAAAAAAAAAAAAAAAAAAAAAAAAAAAAAAAAAAAAAAAAAAAAAAAAAAAAAAAAAAAAAAAAAAAAAAAAAAAAAAAAAAAAAAAAAAAAAAAAAAAAAAAAAAAAAAAAAAAAAAAAAAAAAAAAAAAAAAAAAAAAAAAAAAAAAAAAAAAAAAAAAAAAAAAAAAAAAAAAAAAAAAAAAAAAAAAAAAAAAAAAAAAAAAAAAAAAAAAAAAAAAAAAAAAAAAAAAAAAAAAAAAAAAAAAAAAAAAAAAAAAAAAAAAAAAAAAAAAAAAAAAAAAAAAAAAAAAAAAAAAAAAAAAAAAAAAAAAAAAAAAAAAAAAAAAAAAAAAAAAAAAAAAAAAAAAAAAAAAAAAAAAAAAAAAAAAAAAAAAAAAAAAAAAAAAAAAAAAAAAAAAAAAAAAAAAAAAAAAAAAAAAAAAAAAAAAAAAAAAAAAAAAAAAAAAAAAAAAAAAAAAAAAAAAAAAAAAAAAAAAAAAAAAAAAAAAAAAAAAAAAAAAAAAAAAAAAAAAAAAAAAAAAAAAAAAAAAAAAAAAAAAAAAAAAAAAAAAAAAAAAAAAAAAAAAAAAAAAAAAAAAAAAAAAAAAAAAAAAAAAAAAAAAAAAAAAAAAAAAAAAAAAAAAAAAAAAAAAAAAAAAAAAAAAAAAAAAAAAAAAAAAAAAAAAAAAAAAAAAAAAAAAAAAAAAAAAAAAAAAAAAAAAAAAAAAAAAAAAAAAAAAAAAAAAAAAAAAAAAAAAAAAAAAAAAAAAAAAAAAAAAAAAAAAAAAAAAAAAAAAAAAAAAAAAAAAAAAAAAAAAAAAAAAAAAAAAAAAAAAAAAAAAAAAAAAAAAAAAAAAAAAAAAAAAAAAAAAAAAAAAAAAAAAAAAAAAAAAAAAAAAAAAAAAAAAAAAAAAAAAAAAAAAAAAAAAAAAAAAAAAAAAAAAAAAAAAAAAAAAAAAAAAAAAAAAAAAAAAAAAAAAAAAAAAAAAAAAAAAAAAAAAAAAAAAAAAAAAAAAAAAAAAAAAAAAAAAAAAAAAAAAAAAAAAAAAAAAAAAAAAAAAAAAAAAAAAAAAAAAAAAAAAAAAAAAAAAAAAAAAAAAAAAAAAAAAAAAAAAAAAAAAAAAAAAAAAAAAAAAAAAAAAAAAAAAAAAAAAAAAAAAAAAAAAAAAAAAAAAAAAAAAAAAAAAAAAAAAAAAAAAAAAAAAAAAAAAAAAAAAAAAAAAAAAAAAAAAAAAAAAAAAAAAAAAAAAAAAAAAAAAAAAAAAAAAAAAAAAAAAAAAAAAAAAAAAAAAAAAAAAAAAAAAAAAAAAAAAAAAAAAAAAAAAAAAAAAAAAAAAAAAAAAAAAAAAAAAAAAAAAAAAAAAAAAAAAAAAAAAAAAAAAAAAAAAAAAAAAAAAAAAAAAAAAAAAAAAAAAAAAAAAAAAAAAAAAAAAAAAAAAAAAAAAAAAAAAAAAAAAAAAAAAAAAAAAAAAAAAAAAAAAAAAAAAAAAAAAAAAAAAAAAAAAAAAAAAAAAAAAAAAAAAAAAAAAAAAAAAAAAAAAAAAAAAAAAAAAAAAAAAAAAAAAAAAAAAAAAAAAAAAAAAAAAAAAAAAAAAAAAAAAAAAAAAAAAAAAAAAAAAAAAAAAAAAAAAAAAAAAAAAAAAAAAAAAAAAAAAAAAAAAAAAAAAAAAAAAAAAAAAAAAAAAAAAAAAAAAAAAAAAAAAAAAAAAAAAAAAAAAAAAAAAAAAAAAAAAAAAAAAAAAAAAAAAAAAAAAAAAAAAAAAAAAAAAAAAAAAAAAAAAAAAAAAAAAAAAAAAAAAAAAAAAAAAAAAAAAAAAAAAAAAAAAAAAAAAAAAAAAAAAAAAAAAAAAAAAAAAAAAAAAAAAAAAAAAAAAAAAAAAAAAAAAAAAAAAAAAAAAAAAAAAAAAAAAAAAAAAAAAAAAAAAAAAAAAAAAAAAAAAAAAAAAAAAAAAAAAAAAAAAAAAAAAAAAAAAAAAAAAAAAAAAAAAAAAAAAAAAAAAAAAAAAAAAAAAAAAAAAAAAAAAAAAAAAAAAAAAAAAAAAAAAAAAAAAAAAAAAAAAAAAAAAAAAAAAAAAAAAAAAAAAAAAAAAAAAAAAAAAAAAAAAAAAAAAAAAAAAAAAAAAAAAAAAAAAAAAAAAAAAAAAAAAAAAAAAAAAAAAAAAAAAAAAAAAAAAAAAAAAAAAAAAAAAAAAAAAAAAAAAAAAAAAAAAAAAAAAAAAAAAAAAAAAAAAAAAAAAAAAAAAAAAAAAAAAAAAAAAAAAAAAAAAAAAAAAAAAAAAAAAAAAAAAAAAAAAAAAAAAAAAAAAAAAAAAAAAAAAAAAAAAAAAAAAAAAAAAAAAAAAAAAAAAAAAAAAAAAAAAAAAAAAAAAAAAAAAAAAAAAAAAAAAAAAAAAAAAAAAAAAAAAAAAAAAAAAAAAAAAAAAAAAAAAAAAAAAAAAAAAAAAAAAAAAAAAAAAAAAAAAAAAAAAAAAAAAAAAAAAAAAAAAAAAAAAAAAAAAAAAAAAAAAAAAAAAAAAAAAAAAAAAAAAAAAAAAAAAAAAAAAAAAAAAAAAAAAAAAAAAAAAAAAAAAAAAAAAAAAAAAAAAAAAAAAAAAAAAAAAAAAAAAAAAAAAAAAAAAAAAAAAAAAAAAAAAAAAAAAAAAAAAAAAAAAAAAAAAAAAAAAAAAAAAAAAAAAAAAAAAAAAAAAAAAAAAAAAAAAAAAAAAAAAAAAAAAAAAAAAAAAAAAAAAAAAAAAAAAAAAAAAAAAAAAAAAAAAAAAAAAAAAAAAAAAAAAAAAAAAAAAAAAAAAAAAAAAAAAAAAAAAAAAAAAAAAAAAAAAAAAAAAAAAAAAAAAAAAAAAAAAAAAAAAAAAAAAAAAAAAAAAAAAAAAAAAAAAAAAAAAAAAAAAAAAAAAAAAAAAAAAAAAAAAAAAAAAAAAAAAAAAAAAAAAAAAAAAAAAAAAAAAAAAAAAAAAAAAAAAAAAAAAAAAAAAAAAAAAAAAAAAAAAAAAAAAAAAAAAAAAAAAAAAAAAAAAAAAAAAAAAAAAAAAAAAAAAAAAAAAAAAAAAAAAAAAAAAAAAAAAAAAAAAAAAAAAAAAAAAAAAAAAAAAAAAAAAAAAAAAAAAAAAAAAAAAAAAAAAAAAAAAAAAAAAAAAAAAAAAAAAAAAAAAAAAAAAAAAAAAAAAAAAAAAAAAAAAAAAAAAAAAAAAAAAAAAAAAAAAAAAAAAAAAAAAAAAAAAAAAAAAAAAAAAAAAAAAAAAAAAAAAAAAAAAAAAAAAAAAAAAAAAAAAAAAAAAAAAAAAAAAAAAAAAAAAAAAAAAAAAAAAAAAAAAAAAAAAAAAAAAAAAAAAAAAAAAAAAAAAAAAAAAAAAAAAAAAAAAAAAAAAAAAAAAAAAAAAAAAAAAAAAAAAAAAAAAAAAAAAAAAAAAAAAAAAAAAAAAAAAAAAAAAAAAAAAAAAAAAAAAAAAAAAAAAAAAAAAAAAAAAAAAAAAAAAAAAAAAAAAAAAAAAAAAAAAAAAAAAAAAAAAAAAAAAAAAAAAAAAAAAAAAAAAAAAAAAAAAAAAAAAAAAAAAAAAAAAAAAAAAAAAAAAAAAAAAAAAAAAAAAAAAAAAAAAAAAAAAAAAAAAAAAAAAAAAAAAAAAAAAAAAAAAAAAAAAAAAAAAAAAAAAAAAAAAAAAAAAAAAAAAAAAAAAAAAAAAAAAAAAAAAAAAAAAAAAAAAAAAAAAAAAAAAAAAAAAAAAAAAAAAAAAAAAAAAAAAAAAAAAAAAAAAAAAAAAAAAAAAAAAAAAAAAAAAAAAAAAAAAAAAAAAAAAAAAAAAAAAAAAAAAAAAAAAAAAAAAAAAAAAAAAAAAAAAAAAAAAAAAAAAAAAAAAAAAAAAAAAAAAAAAAAAAAAAAAAAAAAAAAAAAAAAAAAAAAAAAAAAAAAAAAAAAAAAAAAAAAAAAAAAAAAAAAAAAAAAAAAAAAAAAAAAAAAAAAAAAAAAAAAAAAAAAAAAAAAAAAAAAAAAAAAAAAAAAAAAAAAAAAAAAAAAAAAAAAAAAAAAAAAAAAAAAAAAAAAAAAAAAAAAAAAAAAAAAAAAAAAAAAAAAAAAAAAAAAAAAAAAAAAAAAAAAAAAAAAAAAAAAAAAAAAAAAAAAAAAAAAAAAAAAAAAAAAAAAAAAAAAAAAAAAAAAAAAAAAAAAAAAAAAAAAAAAAAAAAAAAAAAAAAAAAAAAAAAAAAAAAAAAAAAAAAAAAAAAAAAAAAAAAAAAAAAAAAAAAAAAAAAAAAAAAAAAAAAAAAAAAAAAAAAAAAAAAAAAAAAAAAAAAAAAAAAAAAAAAAAAAAAAAAAAAAAAAAAAAAAAAAAAAAAAAAAAAAAAAAAAAAAAAAAAAAAAAAAAAAAAAAAAAAAAAAAAAAAAAAAAAAAAAAAAAAAAAAAAAAAAAAAAAAAAAAAAAAAAAAAAAAAAAAAAAAAAAAAAAAAAAAAAAAAAAAAAAAAAAAAAAAAAAAAAAAAAAAAAAAAAAAAAAAAAAAAAAAAAAAAAAAAAAAAAAAAAAAAAAAAAAAAAAAAAAAAAAAAAAAAAAAAAAAAAAAAAAAAAAAAAAAAAAAAAAAAAAAAAAAAAAAAAAAAAAAAAAAAAAAAAAAAAAAAAAAAAAAAAAAAAAAAAAAAAAAAAAAAAAAAAAAAAAAAAAAAAAAAAAAAAAAAAAAAAAAAAAAAAAAAAAAAAAAAAAAAAAAAAAAAAAAAAAAAAAAAAAAAAAAAAAAAAAAAAAAAAAAAAAAAAAAAAAAAAAAAAAAAAAAAPZYQMzADOe3fLT6iBwYUdfn6gJAZx8CnuF6+8PLrg/TBsFu4Mut8LaVd4QKTs/KceOt7yn7iD42BC8e5Tjwj4RTHhk=</c2pa:manifest></metadata>
<path transform="translate(0,0)" fill="rgb(235,229,203)" d="M 0 0 L 973.258 0 L 1063.79 0 L 2048 0 L 2048 941.155 L 2048 1114.93 L 2048 2048 L 1743.22 2048 L 1574.99 2048 L 1070.75 2048 L 975.609 2048 L 473.938 2048 L 305.088 2048 L 0 2048 L 0 1110.66 L 0 948.186 L 0 0 z"/>
<path transform="translate(0,0)" fill="rgb(254,119,32)" d="M 1466.51 366.116 L 1468.53 370.181 C 1465.15 394.513 1461.8 417.855 1460.02 442.394 C 1453.03 538.987 1472.16 628.25 1531.36 706.308 C 1566.91 753.177 1605.04 781.351 1647.87 820.672 C 1674.89 845.477 1701.58 893.128 1713.98 927.84 C 1724.25 956.796 1730.81 986.933 1733.52 1017.54 C 1735.2 1036.13 1733.56 1053.74 1734.66 1072.14 C 1736.37 1100.66 1762.04 1110.43 1785.72 1098.04 C 1795.55 1140.62 1790.34 1190.28 1766.47 1227.36 C 1745.08 1260.58 1728.98 1271.03 1695.81 1288.45 C 1657.59 1451.56 1527.74 1613.61 1386.69 1701.24 C 1328.2 1737.58 1280.01 1757.8 1214.07 1776.77 C 1214.4 1784.06 1212.99 1812.04 1214.84 1816.04 C 1215.03 1821.65 1212.47 1830.31 1210.52 1835.58 C 1161.87 1967.45 977.447 1993.42 880.265 1900.62 C 861.038 1882.26 834.084 1841.69 833.333 1814.75 C 834.821 1808.78 833.694 1783.26 833.478 1775.9 C 784.726 1761.52 749.831 1748.47 704.742 1724.72 C 574.436 1655.98 468.655 1548.53 401.977 1417.16 C 378.061 1369.09 367.622 1338.11 352.079 1288 C 278.169 1253.8 247.142 1176.73 264.109 1098.84 C 282.077 1108.14 305.59 1104.11 311.757 1082.51 C 316.142 1067.15 312.295 1049.1 313.178 1032.74 C 316.018 980.077 332.228 927.744 358.462 882.056 C 413.529 790.078 510.431 742.113 613.635 726.828 C 663.314 719.47 709.719 716.093 759.015 703.731 C 908.365 666.277 1020.16 576.234 1098.3 445.072 C 1081.86 534.997 1029.95 620.856 971.479 689.501 C 1027.79 691.365 1102.84 682.606 1155.68 664.457 C 1275.63 623.257 1372.14 531.393 1436.19 423.673 C 1447.38 404.851 1456.83 385.638 1466.51 366.116 z"/>
<path transform="translate(0,0)" fill="rgb(235,229,203)" d="M 1321.53 927.386 C 1422.69 916.127 1510.57 983.596 1575 1053.64 C 1562.1 1068.52 1539.66 1088.64 1524.34 1101.54 C 1474.22 1143.74 1429.51 1169.4 1363.24 1177.78 C 1353.69 1178.85 1344.08 1179.27 1334.47 1179.06 C 1243.68 1176.95 1167.4 1116.48 1107.84 1053.76 C 1170.3 988.846 1229.15 938.062 1321.53 927.386 z"/>
<path transform="translate(0,0)" fill="rgb(10,0,51)" d="M 1334.62 959.582 C 1386.91 954.91 1433.09 993.523 1437.75 1045.82 C 1442.41 1098.11 1403.79 1144.28 1351.49 1148.93 C 1299.21 1153.58 1253.06 1114.97 1248.4 1062.69 C 1243.74 1010.41 1282.34 964.253 1334.62 959.582 z"/>
<path transform="translate(0,0)" fill="rgb(235,229,203)" d="M 699.02 926.42 C 703.455 926.048 707.905 925.893 712.354 925.958 C 811.296 926.838 880.409 987.851 945.716 1053.98 C 930.466 1067.84 916.221 1083.17 900.874 1097.31 C 851.571 1142.74 792.699 1172.66 725.031 1178.34 C 711.614 1179.88 694.232 1178.28 680.984 1176.31 C 616.524 1166.69 563.236 1132.42 515.839 1089.54 C 502.42 1077.4 490.123 1067.13 479.164 1052.48 C 489.605 1040.67 504.632 1027.27 516.34 1016.45 C 571.776 965.239 621.529 932.367 699.02 926.42 z"/>
<path transform="translate(0,0)" fill="rgb(10,0,51)" d="M 701.09 959.556 C 753.147 953.81 800.049 991.244 805.988 1043.28 C 811.927 1095.31 774.666 1142.35 722.653 1148.49 C 670.367 1154.65 623.028 1117.15 617.058 1064.84 C 611.088 1012.53 648.761 965.333 701.09 959.556 z"/>
<path transform="translate(0,0)" fill="rgb(10,0,51)" d="M 898.952 1481.46 C 934.584 1480.48 974.93 1481.37 1010.86 1481.48 L 1161.51 1480.72 C 1179.43 1491.8 1179.67 1516.85 1153.16 1517.24 L 984.998 1517.13 C 958.069 1517.22 930.988 1517.95 904.073 1517.83 C 898.052 1517.35 890.928 1517.69 885.527 1514.79 C 875.762 1509.55 874.128 1496.44 880.399 1487.88 C 884.328 1482.53 892.526 1481.96 898.952 1481.46 z"/>
<path transform="translate(0,0)" fill="rgb(10,0,51)" d="M 1078.46 1557.86 C 1079.47 1557.51 1080.47 1557.16 1081.47 1556.82 L 1095.28 1552.34 C 1088.34 1558.6 1082.02 1563.79 1073.31 1567.48 C 1070.28 1569.94 1059.14 1574.2 1055.12 1575.22 C 1024.08 1583.03 993.948 1576.12 966.685 1560.9 C 967.991 1559.48 969.11 1558.2 970.347 1556.73 C 1003.89 1566.75 1044.97 1568.92 1078.46 1557.86 z"/>
<path transform="translate(0,0)" fill="rgb(6,1,9)" d="M 1078.46 1557.86 C 1079.47 1557.51 1080.47 1557.16 1081.47 1556.82 L 1095.28 1552.34 C 1088.34 1558.6 1082.02 1563.79 1073.31 1567.48 C 1076.29 1562.4 1087.06 1560.46 1078.46 1557.86 z"/>
<path transform="translate(0,0)" fill="rgb(10,0,51)" d="M 1008.3 1375.28 C 1000.14 1376.38 957.668 1378.98 954.472 1371.25 C 946.731 1352.53 975.53 1357.65 985.062 1357.48 C 990.753 1357.37 1001.86 1356.92 1007.23 1358.49 L 1008.5 1359.35 C 1015.57 1363.99 1013.02 1370.19 1008.3 1375.28 z"/>
<path transform="translate(0,0)" fill="rgb(2,0,36)" d="M 1007.23 1358.49 L 1008.5 1359.35 C 1015.57 1363.99 1013.02 1370.19 1008.3 1375.28 C 1008.21 1373.8 1007.14 1358.63 1007.23 1358.49 z"/>
<path transform="translate(0,0)" fill="rgb(10,0,51)" d="M 1045.79 1357.2 C 1054.58 1356.98 1063.73 1356.82 1072.59 1356.99 C 1078.82 1357.11 1093.14 1355.08 1096.28 1362.37 C 1099.07 1368.85 1092.69 1373.18 1087.54 1375.6 C 1078.82 1376.03 1069.79 1375.88 1061.08 1375.5 C 1054 1374.85 1043.22 1378.91 1038.69 1371.23 C 1034.59 1364.26 1040.39 1360.23 1045.79 1357.2 z"/>
<path transform="translate(0,0)" fill="rgb(10,0,51)" d="M 1106.59 1297.83 C 1114.33 1304.18 1118.91 1306.85 1123.73 1316.07 C 1133.37 1334.54 1129.15 1358.33 1113.49 1372.72 C 1111.78 1371.84 1110.24 1371.1 1108.49 1370.3 C 1120.54 1343.67 1118.32 1323.73 1106.59 1297.83 z"/>
<path transform="translate(0,0)" fill="rgb(10,0,51)" d="M 930.125 1309.84 C 934.407 1311.22 933.801 1311.24 937.496 1313.8 C 928.806 1339.11 935.859 1357.25 947.375 1379.51 C 926.347 1368.69 921.051 1356.74 921.916 1332.72 C 922.248 1323.49 924.584 1317.29 930.125 1309.84 z"/>
<path transform="translate(0,0)" fill="rgb(6,1,9)" d="M 944.969 1296.79 C 942.538 1302.24 939.334 1308.25 937.496 1313.8 C 933.801 1311.24 934.407 1311.22 930.125 1309.84 C 935.627 1303.91 938.643 1301.7 944.969 1296.79 z"/>
<path transform="translate(0,0)" fill="rgb(6,1,9)" d="M 954.184 1552.01 C 959.52 1553.75 964.911 1555.33 970.347 1556.73 C 969.11 1558.2 967.991 1559.48 966.685 1560.9 C 962.111 1558.03 958.46 1555.22 954.184 1552.01 z"/>
<path transform="translate(0,0)" fill="rgb(6,1,9)" d="M 1103.05 1379.88 C 1104.96 1376.25 1106.28 1373.85 1108.49 1370.3 C 1110.24 1371.1 1111.78 1371.84 1113.49 1372.72 C 1109.98 1375.1 1106.64 1377.53 1103.05 1379.88 z"/>
<path transform="translate(0,0)" fill="rgb(10,0,51)" d="M 264.109 1098.84 C 256.856 1093.72 252.126 1087.06 251.152 1078.08 C 248.03 1049.3 248.568 1020.1 247.15 991.116 L 237.489 752.2 C 236.096 715.555 234.638 676.805 237.776 640.196 C 248.235 518.175 297.686 398.215 380.876 307.785 C 396.649 290.639 422.17 265.994 440.443 251.641 C 574.682 146.2 749.532 110.793 916.601 105.556 C 960.98 104.165 1007.22 104.641 1051.56 104.931 C 1090.32 105.185 1134.48 105.184 1173 107.827 C 1345.16 119.635 1516.99 162.441 1645.12 284.897 C 1753.82 388.783 1808.69 529.723 1813.61 679.1 C 1814.97 720.507 1812.2 764.331 1810.2 805.502 L 1803.6 950.993 L 1800.08 1037.51 C 1799.49 1050.69 1799.24 1065.21 1797.51 1078.21 C 1796.43 1086.36 1791.14 1092.24 1785.72 1098.04 C 1762.04 1110.43 1736.37 1100.66 1734.66 1072.14 C 1733.56 1053.74 1735.2 1036.13 1733.52 1017.54 C 1730.81 986.933 1724.25 956.796 1713.98 927.84 C 1701.58 893.128 1674.89 845.477 1647.87 820.672 C 1605.04 781.351 1566.91 753.177 1531.36 706.308 C 1472.16 628.25 1453.03 538.987 1460.02 442.394 C 1461.8 417.855 1465.15 394.513 1468.53 370.181 L 1466.51 366.116 C 1456.83 385.638 1447.38 404.851 1436.19 423.673 C 1372.14 531.393 1275.63 623.257 1155.68 664.457 C 1102.84 682.606 1027.79 691.365 971.479 689.501 C 1029.95 620.856 1081.86 534.997 1098.3 445.072 C 1020.16 576.234 908.365 666.277 759.015 703.731 C 709.719 716.093 663.314 719.47 613.635 726.828 C 510.431 742.113 413.529 790.078 358.462 882.056 C 332.228 927.744 316.018 980.077 313.178 1032.74 C 312.295 1049.1 316.142 1067.15 311.757 1082.51 C 305.59 1104.11 282.077 1108.14 264.109 1098.84 z"/>
<path transform="translate(0,0)" fill="rgb(250,78,20)" d="M 1466.51 366.116 C 1466.86 365.059 1467.89 361.467 1469.2 361.559 C 1469.84 362.378 1468.79 368.967 1468.53 370.181 L 1466.51 366.116 z"/>
<path transform="translate(0,0)" fill="rgb(234,219,167)" d="M 1063.79 0 L 2048 0 L 2048 941.155 C 2043.85 933.58 2034.44 859.962 2031.78 844.347 C 2029.01 828.75 2025.79 813.235 2022.13 797.822 C 2005.16 728.663 1981.73 661.25 1952.16 596.469 C 1823.82 321.244 1580.67 116.595 1287.57 37.1096 C 1241.34 24.6755 1195.41 16.5354 1148.33 8.45715 C 1127.03 4.80183 1080.56 7.31357 1063.79 0 z"/>
<path transform="translate(0,0)" fill="rgb(234,219,167)" d="M 0 0 L 973.258 0 C 963.342 4.12758 943.857 4.83583 932.519 5.85864 C 876.497 10.9123 816.871 20.7457 762.598 36.0476 C 704.486 51.8482 647.814 72.5316 593.185 97.8769 C 374.016 200.565 197.971 377.102 95.8941 596.557 C 61.8011 669.863 36.5657 746.97 20.7216 826.248 C 16.9006 844.935 13.4524 862.753 10.615 881.484 C 8.48517 895.545 5.74723 938.336 0 948.186 L 0 0 z"/>
<path transform="translate(0,0)" fill="rgb(234,219,167)" d="M 0 1110.66 C 8.09225 1130.75 5.92086 1164.29 9.56569 1186.46 C 20.8636 1255.18 36.8992 1322.96 60.3445 1388.63 C 106.53 1515.44 176.41 1632.32 266.262 1733.02 C 301.666 1773.1 340.23 1810.26 381.583 1844.17 C 395.974 1856.04 410.674 1867.54 425.667 1878.64 C 432.075 1883.31 449.76 1893.75 451.886 1900.5 C 483.014 1888.04 508.637 1883.12 541.263 1877.3 C 535.761 1895.5 527.234 1912.42 520.257 1930.05 C 508.227 1960.47 496.536 1991.05 484.431 2021.43 C 480.906 2030.28 477.173 2039.05 473.938 2048 L 305.088 2048 L 0 2048 L 0 1110.66 z"/>
<path transform="translate(0,0)" fill="rgb(10,0,51)" d="M 541.263 1877.3 C 535.761 1895.5 527.234 1912.42 520.257 1930.05 C 508.227 1960.47 496.536 1991.05 484.431 2021.43 C 480.906 2030.28 477.173 2039.05 473.938 2048 L 305.088 2048 C 335.89 1969.25 378.443 1935.68 451.886 1900.5 C 483.014 1888.04 508.637 1883.12 541.263 1877.3 z"/>
<path transform="translate(0,0)" fill="rgb(234,219,167)" d="M 2048 1114.93 L 2048 2048 L 1743.22 2048 L 1574.99 2048 C 1568.1 2029.78 1508.89 1885.06 1509.68 1878.36 C 1536.69 1882.45 1565.4 1888.7 1591.21 1897.79 C 1596.16 1893.44 1616.4 1882.4 1624.61 1876.53 C 1651.54 1856.87 1677.43 1835.81 1702.16 1813.44 C 1862.42 1669.37 1974.16 1479.22 2022.04 1269.11 C 2029.24 1238.22 2034.83 1206.99 2038.78 1175.52 C 2040.31 1163.29 2042.14 1123.72 2048 1114.93 z"/>
<path transform="translate(0,0)" fill="rgb(10,0,51)" d="M 1574.99 2048 C 1568.1 2029.78 1508.89 1885.06 1509.68 1878.36 C 1536.69 1882.45 1565.4 1888.7 1591.21 1897.79 C 1669.91 1929.48 1708.54 1971.66 1743.22 2048 L 1574.99 2048 z"/>
<path transform="translate(0,0)" fill="rgb(10,0,51)" d="M 833.333 1814.75 C 834.084 1841.69 861.038 1882.26 880.265 1900.62 C 977.447 1993.42 1161.87 1967.45 1210.52 1835.58 C 1212.47 1830.31 1215.03 1821.65 1214.84 1816.04 C 1245.28 1820.17 1280.16 1829.13 1310.65 1835.66 C 1324.27 1837.85 1341.34 1842.15 1355.09 1845.12 C 1380.84 1850.47 1406.55 1856.01 1432.22 1861.76 C 1453.49 1866.43 1490.02 1872.56 1509.68 1878.36 C 1508.89 1885.06 1568.1 2029.78 1574.99 2048 L 1070.75 2048 L 975.609 2048 L 473.938 2048 C 477.173 2039.05 480.906 2030.28 484.431 2021.43 C 496.536 1991.05 508.227 1960.47 520.257 1930.05 C 527.234 1912.42 535.761 1895.5 541.263 1877.3 C 554.723 1872.86 594.606 1866.25 610.112 1863.21 C 652.465 1854.89 699.593 1842.18 741.532 1835.41 C 766.471 1831.37 807.674 1820.83 833.333 1814.75 z"/>
<path transform="translate(0,0)" fill="rgb(250,78,20)" d="M 1310.65 1835.66 C 1324.27 1837.85 1341.34 1842.15 1355.09 1845.12 C 1380.84 1850.47 1406.55 1856.01 1432.22 1861.76 C 1453.49 1866.43 1490.02 1872.56 1509.68 1878.36 C 1508.89 1885.06 1568.1 2029.78 1574.99 2048 L 1070.75 2048 C 1078 2045.52 1094.72 2043.23 1103.22 2041.51 C 1127.35 2036.82 1150.62 2028.5 1172.25 2016.83 C 1240.43 1980.38 1288.5 1908.43 1310.65 1835.66 z"/>
<path transform="translate(0,0)" fill="rgb(250,78,20)" d="M 541.263 1877.3 C 554.723 1872.86 594.606 1866.25 610.112 1863.21 C 652.465 1854.89 699.593 1842.18 741.532 1835.41 C 767.837 1942.49 835.635 2017.72 944.249 2041.53 C 953.491 2043.56 967.179 2045.31 975.609 2048 L 473.938 2048 C 477.173 2039.05 480.906 2030.28 484.431 2021.43 C 496.536 1991.05 508.227 1960.47 520.257 1930.05 C 527.234 1912.42 535.761 1895.5 541.263 1877.3 z"/>
</svg>