<svg version="1.1" xmlns="http://www.w3.org/2000/svg" style="display: block;" viewBox="0 0 2048 2048" width="1024" height="1024" preserveAspectRatio="none" xmlns:c2pa="http://c2pa.org/manifest"><metadata><c2pa:manifest>AAAzs2p1bWIAAAAeanVtZGMycGEAEQAQgAAAqgA4m3EDYzJwYQAAADONanVtYgAAAEdqdW1kYzJtYQARABCAAACqADibcQN1cm46YzJwYTpmZmE5M2IyNS04ZGUzLTQyMWUtYjQwYy02YjEwZDBjYjBkZTEAAAAB4mp1bWIAAAApanVtZGMyYXMAEQAQgAAAqgA4m3EDYzJwYS5hc3NlcnRpb25zAAAAAO1qdW1iAAAAQWp1bWRjYm9yABEAEIAAAKoAOJtxE2MycGEuYWN0aW9ucy52MgAAAAAYYzJzaIEIZB8v2ZlnMzkgbc5VczMAAACkY2JvcqFnYWN0aW9uc4GjZmFjdGlvbmxjMnBhLmNyZWF0ZWRxZGlnaXRhbFNvdXJjZVR5cGV4Rmh0dHA6Ly9jdi5pcHRjLm9yZy9uZXdzY29kZXMvZGlnaXRhbHNvdXJjZXR5cGUvdHJhaW5lZEFsZ29yaXRobWljTWVkaWFrZGVzY3JpcHRpb252Q3JlYXRlZCBieSBSZWNyYWZ0IEFJLgAAAMRqdW1iAAAAQGp1bWRjYm9yABEAEIAAAKoAOJtxE2MycGEuaGFzaC5kYXRhAAAAABhjMnNo9R8ZEomK4+QQWPKrQGPpRAAAAHxjYm9ypWpleGNsdXNpb25zgaJlc3RhcnQY22ZsZW5ndGgZRPBkbmFtZW5qdW1iZiBtYW5pZmVzdGNhbGdmc2hhMjU2ZGhhc2hYIFvbpePm/f193aGFoSij9Oir3jwxszzP24/h0GKPiGSvY3BhZEkAAAAAAAAAAAAAAAI0anVtYgAAACdqdW1kYzJjbAARABCAAACqADibcQNjMnBhLmNsYWltLnYyAAAAAgVjYm9ypmppbnN0YW5jZUlEeCx4bXA6aWlkOjE0Mzk4M2U4LWUwMmItNDA1Ni04ZjFmLTdkZDM3OTAwZTk3YXRjbGFpbV9nZW5lcmF0b3JfaW5mb6NkbmFtZWpyZWNyYWZ0LmFpZ3ZlcnNpb254KDgxY2U4MmUyYzVjM2NiZmJlOGM2ZmJlMTc5ZDVmOGQ5MWM0MDljZTF3b3JnLmNvbnRlbnRhdXRoLmMycGFfcnNmMC45MC43aXNpZ25hdHVyZXhNc2VsZiNqdW1iZj0vYzJwYS91cm46YzJwYTpmZmE5M2IyNS04ZGUzLTQyMWUtYjQwYy02YjEwZDBjYjBkZTEvYzJwYS5zaWduYXR1cmVyY3JlYXRlZF9hc3NlcnRpb25zgqJjdXJseCpzZWxmI2p1bWJmPWMycGEuYXNzZXJ0aW9ucy9jMnBhLmFjdGlvbnMudjJkaGFzaFggFvoYBN5gE0JPxoAkP288JQSiwN2hX+W59Sq8hJ4mXsaiY3VybHgpc2VsZiNqdW1iZj1jMnBhLmFzc2VydGlvbnMvYzJwYS5oYXNoLmRhdGFkaGFzaFggTorwQXrlj7f4a7MmrOCqbY0Ba1F0Gnmhv3xHtYeTx21oZGM6dGl0bGV4GlJlY3JhZnQgQUkgR2VuZXJhdGVkIEltYWdlY2FsZ2ZzaGEyNTYAAC8oanVtYgAAAChqdW1kYzJjcwARABCAAACqADibcQNjMnBhLnNpZ25hdHVyZQAAAC74Y2JvctKEWQPsogEmGCGCWQH0MIIB8DCCAZWgAwIBAgIUJcFH1Va4pZJDhzepwEtzPPNj2YMwCgYIKoZIzj0EAwIwQTELMAkGA1UEBhMCVVMxEzARBgNVBAoMClJlY3JhZnQgQUkxHTAbBgNVBAMMFFJlY3JhZnQgQzJQQSBSb290IENBMB4XDTI2MDkxMDE2NTIzNFoXDTI3MDkxMDE2NTIzNFowNzELMAkGA1UEBhMCVVMxEzARBgNVBAoMClJlY3JhZnQgQUkxEzARBgNVBAMMCnJlY3JhZnQuYWkwWTATBgcqhkjOPQIBBggqhkjOPQMBBwNCAASoOPdqG3YmNRdGd+dltfh1ikcE/nkLm8YK10H29taFa8iegusHYB1678yl5Bs18hLaV/Fhd+Ni32xAlnHdbimFo3UwczAMBgNVHRMBAf8EAjAAMA4GA1UdDwEB/wQEAwIGwDATBgNVHSUEDDAKBggrBgEFBQcDBDAdBgNVHQ4EFgQUgVwhvbEXPSSgCubOfUHxCtuoVAQwHwYDVR0jBBgwFoAUc9yF+sfWlRHeWv2Iucaec5jwdAgwCgYIKoZIzj0EAwIDSQAwRgIhAJltDpQN+vbXITLxb+8BNwSL6/5WktO4Sevkb0VXjtfWAiEAqhoz7z/sN32NxdnnZsQVTeu3P7CgGtJdXFx283fp08RZAewwggHoMIIBjaADAgECAhQAydo/NKOQWWu/4V5FktVQHX7jTDAKBggqhkjOPQQDAjBBMQswCQYDVQQGEwJVUzETMBEGA1UECgwKUmVjcmFmdCBBSTEdMBsGA1UEAwwUUmVjcmFmdCBDMlBBIFJvb3QgQ0EwHhcNMjYwOTEwMTY1MjM0WhcNMzYwOTA3MTY1MjM0WjBBMQswCQYDVQQGEwJVUzETMBEGA1UECgwKUmVjcmFmdCBBSTEdMBsGA1UEAwwUUmVjcmFmdCBDMlBBIFJvb3QgQ0EwWTATBgcqhkjOPQIBBggqhkjOPQMBBwNCAAQbQ+eF6fkpnHhTwrMxSBLh/JhROWkzsC8L8jN1r1Rlf8oECvzEFk3WujloPtNs3PLADriqR5rGtd+8giFuiTLno2MwYTAfBgNVHSMEGDAWgBRz3IX6x9aVEd5a/Yi5xp5zmPB0CDAPBgNVHRMBAf8EBTADAQH/MA4GA1UdDwEB/wQEAwIBhjAdBgNVHQ4EFgQUc9yF+sfWlRHeWv2Iucaec5jwdAgwCgYIKoZIzj0EAwIDSQAwRgIhAND2Z+xryBRnMbxk8eAzMcAq8bzl0rfA9Y2z7q5QoEUeAiEA6ZbI3e47h5clRZaARSOOotKXsK/YQMWC3vj91d3bmlOhY3BhZFkqtAAAAAAAAAAAAAAAAAAAAAAAAAAAAAAAAAAAAAAAAAAAAAAAAAAAAAAAAAAAAAAAAAAAAAAAAAAAAAAAAAAAAAAAAAAAAAAAAAAAAAAAAAAAAAAAAAAAAAAAAAAAAAAAAAAAAAAAAAAAAAAAAAAAAAAAAAAAAAAAAAAAAAAAAAAAAAAAAAAAAAAAAAAAAAAAAAAAAAAAAAAAAAAAAAAAAAAAAAAAAAAAAAAAAAAAAAAAAAAAAAAAAAAAAAAAAAAAAAAAAAAAAAAAAAAAAAAAAAAAAAAAAAAAAAAAAAAAAAAAAAAAAAAAAAAAAAAAAAAAAAAAAAAAAAAAAAAAAAAAAAAAAAAAAAAAAAAAAAAAAAAAAAAAAAAAAAAAAAAAAAAAAAAAAAAAAAAAAAAAAAAAAAAAAAAAAAAAAAAAAAAAAAAAAAAAAAAAAAAAAAAAAAAAAAAAAAAAAAAAAAAAAAAAAAAAAAAAAAAAAAAAAAAAAAAAAAAAAAAAAAAAAAAAAAAAAAAAAAAAAAAAAAAAAAAAAAAAAAAAAAAAAAAAAAAAAAAAAAAAAAAAAAAAAAAAAAAAAAAAAAAAAAAAAAAAAAAAAAAAAAAAAAAAAAAAAAAAAAAAAAAAAAAAAAAAAAAAAAAAAAAAAAAAAAAAAAAAAAAAAAAAAAAAAAAAAAAAAAAAAAAAAAAAAAAAAAAAAAAAAAAAAAAAAAAAAAAAAAAAAAAAAAAAAAAAAAAAAAAAAAAAAAAAAAAAAAAAAAAAAAAAAAAAAAAAAAAAAAAAAAAAAAAAAAAAAAAAAAAAAAAAAAAAAAAAAAAAAAAAAAAAAAAAAAAAAAAAAAAAAAAAAAAAAAAAAAAAAAAAAAAAAAAAAAAAAAAAAAAAAAAAAAAAAAAAAAAAAAAAAAAAAAAAAAAAAAAAAAAAAAAAAAAAAAAAAAAAAAAAAAAAAAAAAAAAAAAAAAAAAAAAAAAAAAAAAAAAAAAAAAAAAAAAAAAAAAAAAAAAAAAAAAAAAAAAAAAAAAAAAAAAAAAAAAAAAAAAAAAAAAAAAAAAAAAAAAAAAAAAAAAAAAAAAAAAAAAAAAAAAAAAAAAAAAAAAAAAAAAAAAAAAAAAAAAAAAAAAAAAAAAAAAAAAAAAAAAAAAAAAAAAAAAAAAAAAAAAAAAAAAAAAAAAAAAAAAAAAAAAAAAAAAAAAAAAAAAAAAAAAAAAAAAAAAAAAAAAAAAAAAAAAAAAAAAAAAAAAAAAAAAAAAAAAAAAAAAAAAAAAAAAAAAAAAAAAAAAAAAAAAAAAAAAAAAAAAAAAAAAAAAAAAAAAAAAAAAAAAAAAAAAAAAAAAAAAAAAAAAAAAAAAAAAAAAAAAAAAAAAAAAAAAAAAAAAAAAAAAAAAAAAAAAAAAAAAAAAAAAAAAAAAAAAAAAAAAAAAAAAAAAAAAAAAAAAAAAAAAAAAAAAAAAAAAAAAAAAAAAAAAAAAAAAAAAAAAAAAAAAAAAAAAAAAAAAAAAAAAAAAAAAAAAAAAAAAAAAAAAAAAAAAAAAAAAAAAAAAAAAAAAAAAAAAAAAAAAAAAAAAAAAAAAAAAAAAAAAAAAAAAAAAAAAAAAAAAAAAAAAAAAAAAAAAAAAAAAAAAAAAAAAAAAAAAAAAAAAAAAAAAAAAAAAAAAAAAAAAAAAAAAAAAAAAAAAAAAAAAAAAAAAAAAAAAAAAAAAAAAAAAAAAAAAAAAAAAAAAAAAAAAAAAAAAAAAAAAAAAAAAAAAAAAAAAAAAAAAAAAAAAAAAAAAAAAAAAAAAAAAAAAAAAAAAAAAAAAAAAAAAAAAAAAAAAAAAAAAAAAAAAAAAAAAAAAAAAAAAAAAAAAAAAAAAAAAAAAAAAAAAAAAAAAAAAAAAAAAAAAAAAAAAAAAAAAAAAAAAAAAAAAAAAAAAAAAAAAAAAAAAAAAAAAAAAAAAAAAAAAAAAAAAAAAAAAAAAAAAAAAAAAAAAAAAAAAAAAAAAAAAAAAAAAAAAAAAAAAAAAAAAAAAAAAAAAAAAAAAAAAAAAAAAAAAAAAAAAAAAAAAAAAAAAAAAAAAAAAAAAAAAAAAAAAAAAAAAAAAAAAAAAAAAAAAAAAAAAAAAAAAAAAAAAAAAAAAAAAAAAAAAAAAAAAAAAAAAAAAAAAAAAAAAAAAAAAAAAAAAAAAAAAAAAAAAAAAAAAAAAAAAAAAAAAAAAAAAAAAAAAAAAAAAAAAAAAAAAAAAAAAAAAAAAAAAAAAAAAAAAAAAAAAAAAAAAAAAAAAAAAAAAAAAAAAAAAAAAAAAAAAAAAAAAAAAAAAAAAAAAAAAAAAAAAAAAAAAAAAAAAAAAAAAAAAAAAAAAAAAAAAAAAAAAAAAAAAAAAAAAAAAAAAAAAAAAAAAAAAAAAAAAAAAAAAAAAAAAAAAAAAAAAAAAAAAAAAAAAAAAAAAAAAAAAAAAAAAAAAAAAAAAAAAAAAAAAAAAAAAAAAAAAAAAAAAAAAAAAAAAAAAAAAAAAAAAAAAAAAAAAAAAAAAAAAAAAAAAAAAAAAAAAAAAAAAAAAAAAAAAAAAAAAAAAAAAAAAAAAAAAAAAAAAAAAAAAAAAAAAAAAAAAAAAAAAAAAAAAAAAAAAAAAAAAAAAAAAAAAAAAAAAAAAAAAAAAAAAAAAAAAAAAAAAAAAAAAAAAAAAAAAAAAAAAAAAAAAAAAAAAAAAAAAAAAAAAAAAAAAAAAAAAAAAAAAAAAAAAAAAAAAAAAAAAAAAAAAAAAAAAAAAAAAAAAAAAAAAAAAAAAAAAAAAAAAAAAAAAAAAAAAAAAAAAAAAAAAAAAAAAAAAAAAAAAAAAAAAAAAAAAAAAAAAAAAAAAAAAAAAAAAAAAAAAAAAAAAAAAAAAAAAAAAAAAAAAAAAAAAAAAAAAAAAAAAAAAAAAAAAAAAAAAAAAAAAAAAAAAAAAAAAAAAAAAAAAAAAAAAAAAAAAAAAAAAAAAAAAAAAAAAAAAAAAAAAAAAAAAAAAAAAAAAAAAAAAAAAAAAAAAAAAAAAAAAAAAAAAAAAAAAAAAAAAAAAAAAAAAAAAAAAAAAAAAAAAAAAAAAAAAAAAAAAAAAAAAAAAAAAAAAAAAAAAAAAAAAAAAAAAAAAAAAAAAAAAAAAAAAAAAAAAAAAAAAAAAAAAAAAAAAAAAAAAAAAAAAAAAAAAAAAAAAAAAAAAAAAAAAAAAAAAAAAAAAAAAAAAAAAAAAAAAAAAAAAAAAAAAAAAAAAAAAAAAAAAAAAAAAAAAAAAAAAAAAAAAAAAAAAAAAAAAAAAAAAAAAAAAAAAAAAAAAAAAAAAAAAAAAAAAAAAAAAAAAAAAAAAAAAAAAAAAAAAAAAAAAAAAAAAAAAAAAAAAAAAAAAAAAAAAAAAAAAAAAAAAAAAAAAAAAAAAAAAAAAAAAAAAAAAAAAAAAAAAAAAAAAAAAAAAAAAAAAAAAAAAAAAAAAAAAAAAAAAAAAAAAAAAAAAAAAAAAAAAAAAAAAAAAAAAAAAAAAAAAAAAAAAAAAAAAAAAAAAAAAAAAAAAAAAAAAAAAAAAAAAAAAAAAAAAAAAAAAAAAAAAAAAAAAAAAAAAAAAAAAAAAAAAAAAAAAAAAAAAAAAAAAAAAAAAAAAAAAAAAAAAAAAAAAAAAAAAAAAAAAAAAAAAAAAAAAAAAAAAAAAAAAAAAAAAAAAAAAAAAAAAAAAAAAAAAAAAAAAAAAAAAAAAAAAAAAAAAAAAAAAAAAAAAAAAAAAAAAAAAAAAAAAAAAAAAAAAAAAAAAAAAAAAAAAAAAAAAAAAAAAAAAAAAAAAAAAAAAAAAAAAAAAAAAAAAAAAAAAAAAAAAAAAAAAAAAAAAAAAAAAAAAAAAAAAAAAAAAAAAAAAAAAAAAAAAAAAAAAAAAAAAAAAAAAAAAAAAAAAAAAAAAAAAAAAAAAAAAAAAAAAAAAAAAAAAAAAAAAAAAAAAAAAAAAAAAAAAAAAAAAAAAAAAAAAAAAAAAAAAAAAAAAAAAAAAAAAAAAAAAAAAAAAAAAAAAAAAAAAAAAAAAAAAAAAAAAAAAAAAAAAAAAAAAAAAAAAAAAAAAAAAAAAAAAAAAAAAAAAAAAAAAAAAAAAAAAAAAAAAAAAAAAAAAAAAAAAAAAAAAAAAAAAAAAAAAAAAAAAAAAAAAAAAAAAAAAAAAAAAAAAAAAAAAAAAAAAAAAAAAAAAAAAAAAAAAAAAAAAAAAAAAAAAAAAAAAAAAAAAAAAAAAAAAAAAAAAAAAAAAAAAAAAAAAAAAAAAAAAAAAAAAAAAAAAAAAAAAAAAAAAAAAAAAAAAAAAAAAAAAAAAAAAAAAAAAAAAAAAAAAAAAAAAAAAAAAAAAAAAAAAAAAAAAAAAAAAAAAAAAAAAAAAAAAAAAAAAAAAAAAAAAAAAAAAAAAAAAAAAAAAAAAAAAAAAAAAAAAAAAAAAAAAAAAAAAAAAAAAAAAAAAAAAAAAAAAAAAAAAAAAAAAAAAAAAAAAAAAAAAAAAAAAAAAAAAAAAAAAAAAAAAAAAAAAAAAAAAAAAAAAAAAAAAAAAAAAAAAAAAAAAAAAAAAAAAAAAAAAAAAAAAAAAAAAAAAAAAAAAAAAAAAAAAAAAAAAAAAAAAAAAAAAAAAAAAAAAAAAAAAAAAAAAAAAAAAAAAAAAAAAAAAAAAAAAAAAAAAAAAAAAAAAAAAAAAAAAAAAAAAAAAAAAAAAAAAAAAAAAAAAAAAAAAAAAAAAAAAAAAAAAAAAAAAAAAAAAAAAAAAAAAAAAAAAAAAAAAAAAAAAAAAAAAAAAAAAAAAAAAAAAAAAAAAAAAAAAAAAAAAAAAAAAAAAAAAAAAAAAAAAAAAAAAAAAAAAAAAAAAAAAAAAAAAAAAAAAAAAAAAAAAAAAAAAAAAAAAAAAAAAAAAAAAAAAAAAAAAAAAAAAAAAAAAAAAAAAAAAAAAAAAAAAAAAAAAAAAAAAAAAAAAAAAAAAAAAAAAAAAAAAAAAAAAAAAAAAAAAAAAAAAAAAAAAAAAAAAAAAAAAAAAAAAAAAAAAAAAAAAAAAAAAAAAAAAAAAAAAAAAAAAAAAAAAAAAAAAAAAAAAAAAAAAAAAAAAAAAAAAAAAAAAAAAAAAAAAAAAAAAAAAAAAAAAAAAAAAAAAAAAAAAAAAAAAAAAAAAAAAAAAAAAAAAAAAAAAAAAAAAAAAAAAAAAAAAAAAAAAAAAAAAAAAAAAAAAAAAAAAAAAAAAAAAAAAAAAAAAAAAAAAAAAAAAAAAAAAAAAAAAAAAAAAAAAAAAAAAAAAAAAAAAAAAAAAAAAAAAAAAAAAAAAAAAAAAAAAAAAAAAAAAAAAAAAAAAAAAAAAAAAAAAAAAAAAAAAAAAAAAAAAAAAAAAAAAAAAAAAAAAAAAAAAAAAAAAAAAAAAAAAAAAAAAAAAAAAAAAAAAAAAAAAAAAAAAAAAAAAAAAAAAAAAAAAAAAAAAAAAAAAAAAAAAAAAAAAAAAAAAAAAAAAAAAAAAAAAAAAAAAAAAAAAAAAAAAAAAAAAAAAAAAAAAAAAAAAAAAAAAAAAAAAAAAAAAAAAAAAAAAAAAAAAAAAAAAAAAAAAAAAAAAAAAAAAAAAAAAAAAAAAAAAAAAAAAAAAAAAAAAAAAAAAAAAAAAAAAAAAAAAAAAAAAAAAAAAAAAAAAAAAAAAAAAAAAAAAAAAAAAAAAAAAAAAAAAAAAAAAAAAAAAAAAAAAAAAAAAAAAAAAAAAAAAAAAAAAAAAAAAAAAAAAAAAAAAAAAAAAAAAAAAAAAAAAAAAAAAAAAAAAAAAAAAAAAAAAAAAAAAAAAAAAAAAAAAAAAAAAAAAAAAAAAAAAAAAAAAAAAAAAAAAAAAAAAAAAAAAAAAAAAAAAAAAAAAAAAAAAAAAAAAAAAAAAAAAAAAAAAAAAAAAAAAAAAAAAAAAAAAAAAAAAAAAAAAAAAAAAAAAAAAAAAAAAAAAAAAAAAAAAAAAAAAAAAAAAAAAAAAAAAAAAAAAAAAAAAAAAAAAAAAAAAAAAAAAAAAAAAAAAAAAAAAAAAAAAAAAAAAAAAAAAAAAAAAAAAAAAAAAAAAAAAAAAAAAAAAAAAAAAAAAAAAAAAAAAAAAAAAAAAAAAAAAAAAAAAAAAAAAAAAAAAAAAAAAAAAAAAAAAAAAAAAAAAAAAAAAAAAAAAAAAAAAAAAAAAAAAAAAAAAAAAAAAAAAAAAAAAAAAAAAAAAAAAAAAAAAAAAAAAAAAAAAAAAAAAAAAAAAAAAAAAAAAAAAAAAAAAAAAAAAAAAAAAAAAAAAAAAAAAAAAAAAAAAAAAAAAAAAAAAAAAAAAAAAAAAAAAAAAAAAAAAAAAAAAAAAAAAAAAAAAAAAAAAAAAAAAAAAAAAAAAAAAAAAAAAAAAAAAAAAAAAAAAAAAAAAAAAAAAAAAAAAAAAAAAAAAAAAAAAAAAAAAAAAAAAAAAAAAAAAAAAAAAAAAAAAAAAAAAAAAAAAAAAAAAAAAAAAAAAAAAAAAAAAAAAAAAAAAAAAAAAAAAAAAAAAAAAAAAAAAAAAAAAAAAAAAAAAAAAAAAAAAAAAAAAAAAAAAAAAAAAAAAAAAAAAAAAAAAAAAAAAAAAAAAAAAAAAAAAAAAAAAAAAAAAAAAAAAAAAAAAAAAAAAAAAAAAAAAAAAAAAAAAAAAAAAAAAAAAAAAAAAAAAAAAAAAAAAAAAAAAAAAAAAAAAAAAAAAAAAAAAAAAAAAAAAAAAAAAAAAAAAAAAAAAAAAAAAAAAAAAAAAAAAAAAAAAAAAAAAAAAAAAAAAAAAAAAAAAAAAAAAAAAAAAAAAAAAAAAAAAAAAAAAAAAAAAAAAAAAAAAAAAAAAAAAAAAAAAAAAAAAAAAAAAAAAAAAAAAAAAAAAAAAAAAAAAAAAAAAAAAAAAAAAAAAAAAAAAAAAAAAAAAAAAAAAAAAAAAAAAAAAAAAAAAAAAAAAAAAAAAAAAAAAAAAAAAAAAAAAAAAAAAAAAAAAAAAAAAAAAAAAAAAAAAAAAAAAAAAAAAAAAAAAAAAAAAAAAAAAAAAAAAAAAAAAAAAAAAAAAAAAAAAAAAAAAAAAAAAAAAAAAAAAAAAAAAAAAAAAAAAAAAAAAAAAAAAAAAAAAAAAAAAAAAAAAAAAAAAAAAAAAAAAAAAAAAAAAAAAAAAAAAAAAAAAAAAAAAAAAAAAAAAAAAAAAAAAAAAAAAAAAAAAAAAAAAAAAAAAAAAAAAAAAAAAAAAAAAAAAAAAAAAAAAAAAAAAAAAAAAAAAAAAAAAAAAAAAAAAAAAAAAAAAAAAAAAAAAAAAAAAAAAAAAAAAAAAAAAAAAAAAAAAAAAAAAAAAAAAAAAAAAAAAAAAAAAAAAAAAAAAAAAAAAAAAAAAAAAAAAAAAAAAAAAAAAAAAAAAAAAAAAAAAAAAAAAAAAAAAAAAAAAAAAAAAAAAAAAAAAAAAAAAAAAAAAAAAAAAAAAAAAAAAAAAAAAAAAAAAAAAAAAAAAAAAAAAAAAAAAAAAAAAAAAAAAAAAAAAAAAAAAAAAAAAAAAAAAAAAAAAAAAAAAAAAAAAAAAAAAAAAAAAAAAAAAAAAAAAAAAAAAAAAAAAAAAAAAAAAAAAAAAAAAAAAAAAAAAAAAAAAAAAAAAAAAAAAAAAAAAAAAAAAAAAAAAAAAAAAAAAAAAAAAAAAAAAAAAAAAAAAAAAAAAAAAAAAAAAAAAAAAAAAAAAAAAAAAAAAAAAAAAAAAAAAAAAAAAAAAAAAAAAAAAAAAAAAAAAAAAAAAAAAAAAAAAAAAAAAAAAAAAAAAAAAAAAAAAAAAAAAAAAAAAAAAAAAAAAAAAAAAAAAAAAAAAAAAAAAAAAAAAAAAAAAAAAAAAAAAAAAAAAAAAAAAAAAAAAAAAAAAAAAAAAAAAAAAAAAAAAAAAAAAAAAAAAAAAAAAAAAAAAAAAAAAAAAAAAAAAAAAAAAAAAAAAAAAAAAAAAAAAAAAAAAAAAAAAAAAAAAAAAAAAAAAAAAAAAAAAAAAAAAAAAAAAAAAAAAAAAAAAAAAAAAAAAAAAAAAAAAAAAAAAAAAAAAAAAAAAAAAAAAAAAAAAAAAAAAAAAAAAAAAAAAAAAAAAAAAAAAAAAAAAAAAAAAAAAAAAAAAAAAAAAAAAAAAAAAAAAAAAAAAAAAAAAAAAAAAAAAAAAAAAAAAAAAAAAAAAAAAAAAAAAAAAAAAAAAAAAAAAAAAAAAAAAAAAAAAAAAAAAAAAAAAAAAAAAAAAAAAAAAAAAAAAAAAAAAAAAAAAAAAAAAAAAAAAAAAAAAAAAAAAAAAAAAAAAAAAAAAAAAAAAAAAAAAAAAAAAAAAAAAAAAAAAAAAAAAAAAAAAAAAAAAAAAAAAAAAAAAAAAAAAAAAAAAAAAAAAAAAAAAAAAAAAAAAAAAAAAAAAAAAAAAAAAAAAAAAAAAAAAAAAAAAAAAAAAAAAAAAAAAAAAAAAAAAAAAAAAAAAAAAAAAAAAAAAAAAAAAAAAAAAAAAAAAAAAAAAAAAAAAAAAAAAAAAAAAAAAAAAAAAAAAAAAAAAAAAAAAAAAAAAAAAAAAAAAAAAAAAAAAAAAAAAAAAAAAAAAAAAAAAAAAAAAAAAAAAAAAAAAAAAAAAAAAAAAAAAAAAAAAAAAAAAAAAAAAAAAAAAAAAAAAAAAAAAAAAAAAAAAAAAAAAAAAAAAAAAAAAAAAAAAAAAAAAAAAAAAAAAAAAAAAAAAAAAAAAAAAAAAAAAAAAAAAAAAAAAAAAAAAAAAAAAAAAAAAAAAAAAAAAAAAAAAAAAAAAAAAAAAAAAAAAAAAAAAAAAAAAAAAAAAAAAAAAAAAAAAAAAAAAAAAAAAAAAAAAAAAAAAAAAAAAAAAAAAAAAAAAAAAAAAAAAAAAAAAAAAAAAAAAAAAAAAAAAAAAAAAAAAAAAAAAAAAAAAAAAAAAAAAAAAAAAAAAAAAAAAAAAAAAAAAAAAAAAAAAAAAAAAAAAAAAAAAAAAAAAAAAAAAAAAAAAAAAAAAAAAAAAAAAAAAAAAAAAAAAAAAAAAAAAAAAAAAAAAAAAAAAAAAAAAAAAAAAAAAAAAAAAAAAAAAAAAAAAAAAAAAAAAAAAAAAAAAAAAAAAAAAAAAAAAAAAAAAAAAAAAAAAAAAAAAAAAAAAAAAAAAAAAAAAAAAAAAAAAAAAAAAAAAAAAAAAAAAAAAAAAAAAAAAAAAAAAAAAAAAAAAAAAAAAAAAAAAAAAAAAAAAAAAAAAAAAAAAAAAAAAAAAAAAAAAAAAAAAAAAAAAAAAAAAAAAAAAAAAAAAAAAAAAAAAAAAAAAAAAAAAAAAAAAAAAAAAAAAAAAAAAAAAAAAAAAAAAAAAAAAAAAAAAAAAAAAAAAAAAAAAAAAAAAAAAAAAAAAAAAAAAAAAAAAAAAAAAAAAAAAAAAAAAAAAAAAAAAAAAAAAAAAAAAAAAAAAAAAAAAAAAAAAAAAAAAAAAAAAAAAAAAAAAAAAAAAAAAAAAAAAAAAAAAAAAAAAAAAAAAAAAAAAAAAAAAAAAAAAAAAAAAAAAAAAAAAAAAAAAAAAAAAAAAAAAAAAAAAAAAAAAAAAAAAAAAAAAAAAAAAAAAAAAAAAAAAAAAAAAAAAAAAAAAAAAAAAAAAAAAAAAAAAAAAAAAAAAAAAAAAAAAAAAAAAAAAAAAAAAAAAAAAAAAAAAAAAAAAAAAAAAAAAAAAAAAAAAAAAAAAAAAAAAAAAAAAAAAAAAAAAAAAAAAAAAAAAAAAAAAAAAAAAAAAAAAAAAAAAAAAAAAAAAAAAAAAAAAAAAAAAAAAAAAAAAAAAAAAAAAAAAAAAAAAAAAAAAAAAAAAAAAAAAAAAAAAAAAAAAAAAAAAAAAAAAAAAAAAAAAAAAAAAAAAAAAAAAAAAAAAAAAAAAAAAAAAAAAAAAAAAAAAAAAAAAAAAAAAAAAAAAAAAAAAAAAAAAAAAAAAAAAAAAAAAAAAAAAAAAAAAAAAAAAAAAAAAAAAAAAAAAAAAAAAAAAAAAAAAAAAAAAAAAAAAAAAAAAAAAAAAAAAAAAAAAAAAAAAAAAAAAAAAAAAAAAAAAAAAAAAAAAAAAAAAAAAAAAAAAAAAAAAAAAAAAAAAAAAAAAAAAAAAAAAAAAAAAAAAAAAAAAAAAAAAAAAAAAAAAAAAAAAAAAAAAAAAAAAAAAAAAAAAAAAAAAAAAAAAAAAAAAAAAAAAAAAAAAAAAAAAAAAAAAAAAAAAAAAAAAAAAAAAAAAAAAAAAAAAAAAAAAAAAAAAAAAAAAAAAAAAAAAAAAAAAAAAAAAAAAAAAAAAAAAAAAAAAAAAAAAAAAAAAAAAAAAAAAAAAAAAAAAAAAAAAAAAAAAAAAAAAAAAAAAAAAAAAAAAAAAAAAAAAAAAAAAAAAAAAAAAAAAAAAAAAAAAAAAAAAAAAAAAAAAAAAAAAAAAAAAAAAAAAAAAAAAAAAAAAAAAAAAAAAAAAAAAAAAAAAAAAAAAAAAAAAAAAAAAAAAAAAAAAAAAAAAAAAAAAAAAAAAAAAAAAAAAAAAAAAAAAAAAAAAAAAAAAAAAAAAAAAAAAAAAAAAAAAAAAAAAAAAAAAAAAAAAAAAAAAAAAAAAAAAAAAAAAAAAAAAAAAAAAAAAAAAAAAAAAAAAAAAAAAAAAAAAAAAAAAAAAAAAAAAAAAAAAAAAAAAAAAAAAAAAAAAAAAAAAAAAAAAAAAAAAAAAAAAAAAAAAAAAAAAAAAAAAAAAAAAAAAAAAAAAAAAAAAAAAAAAAAAAAAAAAAAAAAAAAAAAAAAAAAAAAAAAAAAAAAAAAAAAAAAAAAAAAAAAAAAAAAAAAAAAAAAAAAAAAAAAAAAAAAAAAAAAAAAAAAAAAAAAAAAAAAAAAAAAAAAAAAAAAAAAAAAAAAAAAAAAAAAAAAAAAAAAAAAAAAAAAAAAAAAAAAAAAAAAAAAAAAAAAAAAAAAAAAAAAAAAAAAAAAAAAAAAAAAAAAAAAAAAAAAAAAAAAAAAAAAAAAAAAAAAAAAAAAAAAAAAAAAAAAAAAAAAAAAAAAAAAAAAAAAAAAAAAAAAAAAAAAAAAAAAAAAAAAAAAAAAAAAAAAAAAAAAAAAAAAAAAAAAAAAAAAAAAAAAAAAAAAAAAAAAAAAAAAAAAAAAAAAAAAAAAAAAAAAAAAAAAAAAAAAAAAAAAAAAAAAAAAAAAAAAAAAAAAAAAAAAAAAAAAAAAAAAAAAAAAAAAAAAAAAAAAAAAAAAAAAAAAAAAAAAAAAAAAAAAAAAAAAAAAAAAAAAAAAAAAAAAAAAAAAAAAAAAAAAAAAAAAAAAAAAAAAAAAAAAAAAAAAAAAAAAAAAAAAAAAAAAAAAAAAAAAAAAAAAAAAAAAAAAAAAAAAAAAAAAAAAAAAAAAAAAAAAAAAAAAAAAAAAAAAAAAAAAAAAAAAAAAAAAAAAAAAAAAAAAAAAAAAAAAAAAAAAAAAAAAAAAAAAAAAAAAAAAAAAAAAAAAAAAAAAAAAAAAAAAAAAAAAAAAAAAAAAAAAAAAAAAAAAAAAAAAAAAAAAAAAAAAAAAAAAAAAAAAAAAAAAAAAAAAAAAAAAAAAAAAAAAAAAAAAAAAAAAAAAAAAAAAAAAAAAAAAAAAAAAAAAAAAAAAAAAAAAAAAAAAAAAAAAAAAAAAAAAAAAAAAAAAAAAAAAAAAAAAAAAAAAAAAAAAAAAAAAAAAAAAAAAAAAAAAAAAAAAAAAAAAAAAAAAAAAAAAAAAAAAAAAAAAAAAAAAAAAAAAAAAAAAAAAAAAAAAAAAAAAAAAAAAAAAAAAAAAAAAAAAAAAAAAAAAAAAAAAAAAAAAAAAAAAAAAAAAAAAAAAAAAAAAAAAAAAAAAAAAAAAAAAAAAAAAAAAAAAAAAAAAAAAAAAAAAAAAAAAAAAAAAAAAAAAAAAAAAAAAAAAAAAAAAAAAAAAAAAAAAAAAAAAAAAAAAAAAAAAAAAAAAAAAAAAAAAAAAAAAAAAAAAAAAAAAAAAAAAAAAAAAAAAAAAAAAAAAAAAAAAAAAAAAAAAAAAAAAAAAAAAAAAAAAAAAAAAAAAAAAAAAAAAAAAAAAAAAAAAAAAAAAAAAAAAAAAAAAAAAAAAAAAAAAAAAAAAAAAAAAAAAAAAAAAAAAAAAAAAAAAAAAAAAAAAAAAAAAAAAAAAAAAAAAAAAAAAAAAAAAAAAAAAAAAAAAAAAAAAAAAAAAAAAAAAAAAAAAAAAAAAAAAAAAAAAAAAAAAAAAAAAAAAAAAAAAAAAAAAAAAAAAAAAAAAAAAAAAAAAAAAAAAAAAAAAAAAAAAAAAAAAAAAAAAAAAAAAAAAAAAAAAAAAAAAAAAAAAAAAAAAAAAAAAAAAAAAAAAAAAAAAAAAAAAAAAAAAAAAAAAAAAAAAAAAAAAAAAAAAAAAAAAAAAAAAAAAAAAAAAAAAAAAAAAAAAAAAAAAAAAAAAAAAAAAAAAAAAAAAAAAAAAAAAAAAAAAAAAAAAAAAAAAAAAAAAAAAAAAAAAAAAAAAAAAAAAAAAAAAAAAAAAAAAAAAAAAAAAAAAAAAAAAAAAAAAAAAAAAAAAAAAAAAAAAAAAAAAAAAAAAAAAAAAAAAAAAAAAAAAAAAAAAAAAAAAAAAAAAAAAAAAAAAAAAAAAAAAAAAAAAAAAAAAAAAAAAAAAAAAAAAAAAAAAAAAAAAAAAAAAAAAAAAAAAAAAAAAAAAAAAAAAAAAAAAAAAAAAAAAAAAAAAAAAAAAAAAAAAAAAAAAAAAAAAAAAAAAAAAAAAAAAAAAAAAAAAAAAAAAAAAAAAAAAAAAAAAAAAAAAAAAAAAAAAAAAAAAAAAAAAAAAAAAAAAAAAAAAAAAAAAAAAAAAAAAAAAAAAAAAAAAAAAAAAAAAAAAAAAAAAAAAAAAAAAAAAAAAAAAAAAAAAAAAAAAAAAAAAAAAAAAAAAAAAAAAAAAAAAAAAAAAAAAAAAAAAAAAAAAAAAAAAAAAAAAAAAAAAAAAAAAAAAAAAAAAAAAAAAAAAAAAAAAAAAAAAAAAAAAAAAAAAAAAAAAAAAAAAAAAAAAAAAAAAAAAAAAAAAAAAAAAAAAAAAAAAAAAAAAAAAAAAAAAAAAAAAAAAAAAAAAAAAAAAAAAAAAAAAAAAAAAAAAAAAAAAAAAAAAAAAAAAAAAAAAAAAAAAAAAAAAAAAAAAAAAAAAAAAAAAAAAAAAAAAAAAAAAAAAAAAAAAAAAAAAAAAAAAAAAAAAAAAAAAAAAAAAAAAAAAAAAAAAAAAAAAAAAAAAAAAAAAAAAAAAAAAAAAAAAAAAAAAAAAAAAAAAAAAAAAAAAAAAAAAAAAAAAAAAAAAAAAAAAAAAAAAAAAAAAAAAAAAAAAAAAAAAAAAAAAAAAAAAAAAAAAAAAAAAAAAAAAAAAAAAAAAAAAAAAAAAAAAAAAAAAAAAAAAAAAAAAAAAAAAAAAAAAAAAAAAAAAAAAAAAAAAAAAAAAAAAAAAAAAAAAAAAAAAAAAAAAAAAAAAAAAAAAAAAAAAAAAAAAAAAAAAAAAAAAAAAAAAAAAAAAAAAAAAAAAAAAAAAAAAAAAAAAAAAAAAAAAAAAAAAAAAAAAAAAAAAAAAAAAAAAAAAAAAAAAAAAAAAAAAAAAAAAAAAAAAAAAAAAAAAAAAAAAAAAAAAAAAAAAAAAAAAAAAAAAAAAAAAAAAAAAAAAAAAAAAAAAAAAAAAAAAAAAAAAAAAAAAAAAAAAAAAAAAAAAAAAAAAAAAAAAAAAAAAAAAAAAAAAAAAAAAAAAAAAAAAAAAAAAAAAAAAAAAAAAAAAAAAAAAAAAAAAAAAAAAAAAAAAAAAAAAAAAAAAAAAAAAAAAAAAAAAAAAAAAAAAAAAAAAAAAAAAAAAAAAAAAAAAAAAAAAAAAAAAAAAAAAAAAAAAAAAAAAAAAAAAAAAAAAAAAAAAAAAAAAAAAAAAAAAAAAAAAAAAAAAAAAAAAAAAAAAAAAAAAAAAAAAAAAAAAAAAAAAAAAAAAAAAAAAAAAAAAAAAAAAAAAAAAAAAAAAAAAAAAAAAAAAAAAAAAAAAAAAAAAAAAAAAAAAAAAAAAAAAAAAAAAAAAAAAAAAAAAAAAAAAAAAAAAAAAAAAAAAAAAAAAAAAAAAAAAAAAAAAAAAAAAAAAAAAAAAAAAAAAAAAAAAAAAAAAAAAAAAAAAAAAAAAAAAAAAAAAAAAAAAAAAAAAAAAAAAAAAAAAAAAAAAAAAAAAAAAAAAAAAAAAAAAAAAAAAAAAAAAAAAAAAAAAAAAAAAAAAAAAAAAAAAAAAAAAAAAAAAAAAAAAAAAAAAAAAAAAAAAAAAAAAAAAAAAAAAAAAAAAAAAAAAAAAAAAAAAAAAAAAAAAAAAAAAAAAAAAAAAAAAAAAAAAAAAAAAAAAAAAAAAAAAAAAAAAAAAAAAAAAAAAAAAAAAAAAAAAAAAAAAAAAAAAAAAAAAAAAAAAAAAAAAAAAAAAAAAAAAAAAAAAAAAAAAAAAAAAAAAAAAAAAAAAAAAAAAAAAAAAAAAAAAAAAAAAAAAAAAAAAAAAAAAAAAAAAAAAAAAAAAAAAAAAAAAAAAAAAAAAAAAAAAAAAAAAAAAAAAAAAAAAAAAAAAAAAAAAAAAAAAAAAAAAAAAAAAAAAAAAAAAAAAAAAAAAAAAPZYQP/TMuHMQisVLlsYRQMUsAGnp6GllyEozde4rxTErAIiaT7YD3aNFC8/ZFsjerytwEhpg9CNhl2tYw7mUYBXlbw=</c2pa:manifest></metadata>
<path transform="translate(0,0)" fill="rgb(255,173,51)" d="M 0 0 L 997.541 0 L 1050.76 0 L 2048 0 L 2048 1035.47 L 2048 1043.7 L 2048 2048 L 0 2048 L 0 1036.44 L 0 987.147 L 0 0 z"/>
<path transform="translate(0,0)" fill="rgb(254,129,90)" d="M 1278.72 684.218 C 1320.04 698.871 1359.67 708.022 1402.48 717.171 C 1415.05 719.857 1429.03 724.252 1441.02 726.662 C 1460.59 730.595 1473.45 730.342 1493.26 737.121 C 1514.07 762.153 1532.68 786.3 1550.55 813.478 C 1555.4 820.857 1566.21 841.393 1569.22 845.258 C 1577.99 856.547 1603.2 887.122 1613.15 895.057 C 1613.05 907.974 1611.09 923.462 1609.45 936.382 C 1602.86 988.41 1619.75 1059.45 1671.13 1085.2 C 1670.89 1116.87 1668.52 1137.89 1659.13 1168.59 C 1653.45 1187.18 1650.02 1203.62 1640.84 1221.56 C 1637.59 1227.89 1638.18 1249.8 1635.69 1257.47 C 1634.25 1265.98 1626.53 1277.81 1625.4 1284.79 C 1619.54 1321.3 1609.23 1346.99 1588.72 1377.9 C 1577 1395.54 1568.56 1420.32 1555.88 1438.05 C 1543.1 1455.21 1530.85 1473.89 1517.22 1490.21 C 1511.81 1496.68 1499.4 1503.8 1494.53 1509.98 C 1474.12 1535.99 1452.49 1555.24 1424.21 1572.26 C 1414.44 1578.14 1403.91 1591.11 1393.9 1597.4 C 1351.64 1623.94 1305.48 1646.23 1257.26 1659.48 C 1248.08 1662 1237.79 1666.46 1228.44 1668.95 C 1207.48 1672.64 1190.76 1672.08 1169.24 1677.48 C 1166.6 1698.98 1166.59 1708.75 1167.45 1730 C 1169.06 1770.18 1164.88 1823.74 1128.13 1848.16 C 1118.18 1854.87 1112.89 1863.62 1103.86 1870.96 C 1077.37 1885.92 1037.65 1896.18 1007.36 1892.2 C 968.033 1887.03 934.433 1871.42 909.706 1840.45 C 872.434 1793.76 887.854 1734.72 881.903 1677.93 C 846.351 1671.26 811.078 1663.19 776.164 1653.73 C 764.974 1650.67 751.799 1647.28 740.932 1643.47 C 729.177 1639.09 719.607 1630.43 708.44 1624.87 C 692.229 1616.79 675.17 1609.75 659.641 1600.39 C 650.184 1594.69 641.146 1587.23 632.072 1580.9 C 623.061 1574.61 613.961 1568.34 605.309 1561.58 C 578.007 1539.17 553.855 1513.01 530.482 1486.6 C 516.821 1471.16 501.525 1453.35 489.605 1436.6 C 483.383 1427.85 476.648 1412.53 471.114 1402.59 C 467.479 1396.05 459.104 1383.22 456.412 1377.33 C 455.755 1376.36 455.14 1375.45 454.453 1374.5 C 444.599 1355.55 439.909 1332.44 432.398 1312.2 C 425.908 1294.71 417.47 1277.68 412.803 1259.69 C 409.998 1248.88 410.488 1231.65 407.56 1221.44 C 405.047 1212.68 399.514 1201.81 396.751 1192.48 C 384.778 1152.08 378.268 1128.22 378.924 1085.91 C 416.792 1057.99 435.425 1022.9 440.143 976.103 C 442.853 949.223 438.698 923.815 435.455 897.288 C 457.299 871.398 476.573 849.737 492.696 820.067 C 498.272 809.806 544.314 743.764 551.79 741.773 C 623.401 722.701 699.55 712.188 769.56 686.286 C 788.648 690.133 808.873 695.079 828.202 697.366 C 857.537 700.838 887.208 701.816 916.569 706.213 C 927.44 707.842 942.491 706.044 953.996 706.904 C 993.47 709.853 1033.23 709.101 1072.76 707.989 C 1088.67 707.159 1105.05 703.818 1120.94 703.434 C 1151.14 702.705 1178.83 701.047 1208.76 696.496 C 1233.22 692.776 1254.45 690.344 1278.72 684.218 z"/>
<path transform="translate(0,0)" fill="rgb(0,0,0)" d="M 773.516 915.271 C 793.001 912.797 829.965 919.228 848.831 926.869 C 868.457 934.817 893.135 946.706 912.44 956.384 C 916.492 958.415 921.658 966.73 925.431 970.002 C 930.667 974.541 936.932 977.931 942.349 982.257 C 954.506 989.213 963.235 1015.15 950.38 1025.12 C 938.172 1034.58 922.495 1056.89 910.608 1064.45 C 877.717 1085.4 824.379 1101.18 786.085 1104.28 C 778.61 1104.32 755.399 1104.86 748.419 1103.35 C 716.748 1096.5 679.159 1086.17 652.61 1067.46 C 643.699 1060.69 636.478 1050.51 627.92 1043.51 C 618.737 1036.31 603.975 1033.84 601.4 1020.56 C 597.958 1003.99 612.608 990.914 622.623 980.329 C 640.301 961.644 659.547 949.696 682.565 938.909 C 692.819 934.104 705.195 925.876 716.661 923.666 C 735.721 919.991 754.308 918.941 773.516 915.271 z"/>
<path transform="translate(0,0)" fill="rgb(254,254,253)" d="M 771.547 918.315 C 772.821 918.095 774.104 917.927 775.392 917.811 C 794.644 915.945 830.574 922.349 849.041 929.62 C 858.371 933.294 870.803 940.008 880.421 944.343 C 889.441 948.409 900.536 953.492 909.216 958.324 C 915.213 962.062 920.22 969.243 925.614 973.439 C 938.53 983.482 952.894 989.294 953.839 1008.13 C 954.608 1023.44 940.998 1030.28 931.383 1039.45 C 927.717 1042.94 924.288 1046.96 920.879 1050.72 C 896.788 1079.52 822.953 1099.57 785.993 1101.33 C 778.839 1101.42 759.581 1102.08 752.939 1101.07 C 720.186 1096.05 682.185 1083.84 654.628 1065.58 C 647.333 1060.9 640.741 1049.87 634.234 1045 C 617.542 1032.49 590.285 1025.08 610.048 998.862 C 630.384 971.88 658.662 951.872 689.587 938.443 C 697.642 934.946 705.611 929.307 714.47 927.428 C 733.027 923.814 752.832 921.309 771.547 918.315 z"/>
<path transform="translate(0,0)" fill="rgb(0,0,0)" d="M 785.956 931.373 C 792.856 932.359 796.686 935.769 802.641 937.679 C 820.249 943.326 833.893 948.586 845.217 964.156 C 857.574 980.995 860.162 1008.55 856.953 1028.9 C 851.194 1065.41 810.447 1088.96 776.225 1083.01 C 761.426 1080.87 745.677 1078.78 733.356 1069.63 C 719.789 1059.55 706.223 1036.11 704.096 1019.45 C 701.857 1001.92 708.658 978.811 719.702 965.059 C 736.858 943.696 760 935.007 785.956 931.373 z"/>
<path transform="translate(0,0)" fill="rgb(0,0,0)" d="M 1248.75 918.393 C 1260.35 917.617 1269.76 919.226 1281.26 919.921 C 1300.43 921.079 1319.58 916.923 1337.29 926.708 C 1351.94 934.794 1367.92 940.626 1382.46 948.908 C 1405.01 962.112 1425.19 979.495 1446.04 995.131 C 1447.02 1000.4 1448.1 1005.66 1449.28 1010.89 C 1418.75 1063.03 1346.36 1097.05 1288.56 1106.63 C 1271.45 1108.47 1243.15 1103.53 1225.64 1100.1 C 1220.08 1099.01 1205.97 1093.18 1199.31 1091.36 C 1187.13 1087.24 1155.81 1080.15 1146.91 1070.67 C 1130.01 1052.67 1094.39 1035.39 1088.69 1011.06 C 1085.72 998.342 1104.53 991.423 1111.62 984.324 C 1119.34 976.593 1125.43 967.682 1133.78 960.68 C 1167.38 937.421 1208.24 922.784 1248.75 918.393 z"/>
<path transform="translate(0,0)" fill="rgb(254,254,253)" d="M 1251.03 920.378 C 1266.17 920.388 1308.32 922.575 1322.76 924.36 C 1331.49 925.44 1370.58 945.406 1380.26 950.664 C 1398.78 960.72 1424.69 981.88 1442.11 995.249 C 1444.15 1000.42 1445.05 1005.83 1446.21 1011.29 C 1440.63 1019.66 1432.25 1031.61 1424.64 1038.14 C 1385.63 1071.6 1338.3 1097.59 1287.24 1103.87 C 1274.15 1104.33 1243.29 1102.47 1229.21 1098.12 C 1203.18 1090.07 1168.98 1081.75 1146.14 1066.9 C 1139.69 1062.71 1132.74 1054.82 1126.7 1049.75 C 1114.48 1039.37 1094.78 1027.84 1091.32 1010.93 C 1088.93 999.227 1107.14 992.012 1114.46 985.375 C 1120.78 979.645 1129.88 966.14 1136.17 961.965 C 1168.8 940.308 1212.02 924.507 1251.03 920.378 z"/>
<path transform="translate(0,0)" fill="rgb(0,0,0)" d="M 1270.67 932.224 C 1280.36 932.61 1318.07 946.264 1325.16 952.279 C 1354.07 976.831 1349.17 1033.55 1327.52 1061.23 C 1317.6 1073.92 1286.77 1084.95 1270.85 1086.26 C 1254.51 1084.57 1240.94 1084.17 1226.91 1074.89 C 1204.45 1059.82 1192.95 1037.03 1193.79 1010.16 C 1195.38 959.224 1224.35 941.288 1270.67 932.224 z"/>
<path transform="translate(0,0)" fill="rgb(0,0,0)" d="M 1019.01 1038.28 C 1096.53 1034.24 1053.69 1142.62 1068.85 1182.72 C 1072.08 1186.27 1087.1 1186.79 1091.05 1187.22 C 1121.84 1190.59 1134.97 1217.46 1115.32 1242.3 C 1105.24 1255.04 1084.76 1251.91 1069.42 1252.83 C 1054.77 1269.28 1047.89 1273.31 1026.05 1275.81 C 1020.44 1276.07 1014.82 1275.59 1009.33 1274.39 C 993.776 1270.85 987.63 1262.89 979.733 1250.49 C 966.272 1250.8 951.45 1255.65 939.757 1248.6 C 931.677 1243.72 926.182 1234.51 924.229 1225.39 C 922.197 1216.19 924.094 1206.56 929.463 1198.82 C 941.658 1181.44 958.629 1187.83 976.209 1185.55 C 987.518 1184.09 981.842 1174.54 982.382 1166.78 C 983.737 1145.18 983.892 1122.93 982.281 1101.34 C 980.068 1071.68 983.354 1043.42 1019.01 1038.28 z"/>
<path transform="translate(0,0)" fill="rgb(249,180,160)" d="M 1018.1 1041.19 C 1027.77 1040.61 1038.78 1042.37 1046.92 1047.82 C 1053.65 1052.39 1058.64 1059.1 1061.06 1066.86 C 1068.7 1090.54 1060.35 1136.28 1062.96 1161.95 C 1064.62 1178.41 1058.02 1188.18 1079.52 1188.92 C 1096.2 1189.5 1115.83 1192.65 1120.67 1211.33 C 1122.86 1219.52 1121.45 1228.27 1116.79 1235.36 C 1101.83 1258.23 1081.1 1244.18 1071.1 1250.92 C 1052.92 1263.18 1055.57 1267.78 1028.24 1272.88 C 987.986 1274.22 994.478 1253.5 976.794 1248.61 C 964.425 1245.19 953.862 1253.01 941.197 1245.55 C 933.835 1241.21 928.569 1233.43 926.633 1225.17 C 924.772 1217.07 926.252 1208.55 930.738 1201.55 C 941.656 1184.55 964.671 1190.81 980.873 1187.65 C 981.747 1187.75 985.427 1185.9 985.498 1185.21 C 987.091 1169.63 986.495 1151.59 986.652 1136.02 C 986.906 1110.9 978.589 1080.29 991.961 1057.68 C 997.677 1048.01 1007.77 1043.59 1018.1 1041.19 z"/>
<path transform="translate(0,0)" fill="rgb(0,0,0)" d="M 660.313 827.414 C 681.967 826.348 701.796 829.865 723.222 830.118 C 736.824 830.279 751.95 827.485 765.597 827.328 C 779.012 826.705 794.139 829.454 807.335 828.823 C 832.868 827.603 856.527 826.377 882.076 828.69 C 896.59 830.004 913.74 825.92 928.694 828.88 C 934.561 830.041 937.779 831.125 942.642 834.749 C 948.971 839.405 953.028 846.525 953.805 854.343 C 956.979 883.886 929.642 884.494 909.249 885.432 C 899.324 886.203 885.763 884.343 875.835 884.735 C 856.788 885.486 837.59 884.271 818.926 884.372 L 698.908 884.356 C 685.304 884.368 671.409 885.797 657.971 885.418 C 649.634 884.508 638.705 885.212 631.127 881.617 C 615.313 874.115 609.772 853.484 621.584 839.908 C 630.802 829.314 647.117 828.327 660.313 827.414 z"/>
<path transform="translate(0,0)" fill="rgb(249,180,160)" d="M 658.413 830.388 C 679.539 828.958 702.817 832.935 724.017 833.075 C 736.437 833.157 749.981 830.759 762.344 830.518 C 776.957 829.844 792.63 832.09 807.113 831.505 C 833.926 830.422 859.271 829.531 886.088 831.514 C 898.896 832.461 912.515 829.653 925.994 831.172 C 947.174 833.56 956.936 857.665 944.685 874.444 C 938.131 882.865 921.388 882.242 911.249 882.595 C 899.754 883.192 883.456 881.143 871.171 881.144 L 733.805 880.912 C 717.933 880.906 702.062 881.136 686.196 881.601 C 665.233 882.344 620.96 888.872 618.334 859.124 C 617.744 852.843 619.717 846.59 623.804 841.786 C 632.142 831.938 646.53 831.244 658.413 830.388 z"/>
<path transform="translate(0,0)" fill="rgb(0,0,0)" d="M 1134.74 827.417 C 1151.37 825.154 1170.4 828.599 1187.31 828.767 C 1203.84 828.931 1220.37 826.959 1236.9 826.813 C 1251.89 826.681 1266.82 828.84 1281.81 829.019 C 1303.59 829.279 1410.56 825.11 1421.94 833.136 C 1427.54 837.09 1430.82 843.948 1431.94 850.552 C 1433.18 857.83 1432.24 866.771 1427.7 872.836 C 1421.18 881.548 1409.24 883.212 1399.24 884.855 C 1374.18 886.104 1356.04 885.335 1331.01 884.207 C 1311.84 884.258 1292.68 884.886 1273.51 884.976 C 1261.83 885.03 1250.18 883.949 1238.5 883.908 L 1170.3 883.873 C 1155.84 884 1119.73 887.067 1106.78 879.753 C 1094.91 873.047 1091.81 850.894 1101.53 840.16 C 1111.83 828.786 1120.16 828.736 1134.74 827.417 z"/>
<path transform="translate(0,0)" fill="rgb(249,180,160)" d="M 1140.43 830.46 C 1155.24 829.838 1173.26 831.638 1188.46 831.618 C 1205.49 831.594 1222.25 830.058 1239.06 829.94 C 1252.7 829.845 1267.64 831.772 1281.5 831.814 L 1353.75 831.895 C 1368.04 831.784 1382.82 830.99 1397.01 831.586 C 1402.84 831.832 1416.66 832.802 1421.14 836.46 C 1426.03 840.432 1428.6 846.276 1429.15 852.493 C 1431.53 879.149 1409.23 880.724 1389.28 882.582 C 1371.77 884.574 1350.88 881.527 1333.24 881.249 C 1319.02 881.026 1304.83 881.049 1290.61 881.012 L 1174.15 880.408 C 1156.36 880.406 1120.26 885.479 1105.67 874.645 C 1096.17 867.592 1097.55 847.457 1106.22 839.239 C 1115.88 830.091 1127.91 830.91 1140.43 830.46 z"/>
<path transform="translate(0,0)" fill="rgb(0,0,0)" d="M 1115.34 1363.48 C 1122.89 1363.57 1167.67 1362.72 1170.68 1364.39 L 1169.8 1365.93 C 1165.92 1367.31 1130.81 1366.92 1123.7 1367.02 C 1091.1 1422.79 1015.4 1431.84 962.174 1401.08 C 945.35 1389.84 938.765 1382.67 927.288 1366.49 C 914.963 1366.6 897.886 1367.66 886.19 1366.61 L 885.229 1365.33 L 886.443 1363.74 C 891.586 1363.14 905.403 1363.48 911.023 1363.48 L 962.114 1363.63 C 1013.19 1364.17 1064.27 1364.12 1115.34 1363.48 z"/>
<path transform="translate(0,0)" fill="rgb(249,180,160)" d="M 931.497 1367.01 L 1120.26 1367 C 1114.17 1378.46 1105.45 1385.73 1095.58 1393.91 L 1094.33 1394.84 C 1058.76 1420.91 1006.32 1422.06 968.128 1400.86 C 952.139 1391.99 942.05 1381.6 931.497 1367.01 z"/>
<path transform="translate(0,0)" fill="rgb(0,0,0)" d="M 452.731 1375.26 C 437.327 1349.26 440.468 1343.33 430.883 1315.26 C 424.987 1297.99 414.434 1280.3 409.926 1260.74 C 407.165 1248.76 407.163 1232.39 403.975 1222.41 C 395.229 1192.64 381.708 1160.22 378.243 1129.27 C 374.379 1094.77 374.689 1057.79 371.132 1022.93 C 370.182 1013.61 373.204 1000.24 372.708 990.398 C 373.396 980.211 367.995 964.524 369.064 955.026 C 373.387 916.627 369.08 878.289 369.537 839.751 C 369.663 829.079 372.005 818.216 372.109 807.685 C 372.218 796.594 368.829 784.831 368.901 773.629 C 368.509 766.452 372.304 756.139 371.834 749.342 C 370.199 725.675 369.851 702.632 370.787 678.931 C 371.31 670.66 368.601 658.932 369.446 651.106 C 371.644 630.769 369.76 608.777 370.714 588.962 C 371.743 567.62 374.448 538.251 379.902 517.997 C 386.05 495.16 399.878 469.992 410.036 448.613 C 412.37 443.881 422.74 435.462 424.553 431.254 C 436.219 404.174 449.728 385.286 472.867 366.816 C 480.755 360.402 490.366 349.488 498.384 342.488 C 507.452 334.573 513.276 331.11 524.64 326.871 C 532.169 322.745 543.748 312.719 552.981 307.335 C 569.452 297.731 579.196 294.771 596.839 288.797 C 608.515 284.844 618.713 278.662 631.772 276.469 C 644.138 274.392 657.915 272.057 670.269 270.496 C 678.493 269.456 696.537 265.811 703.548 265.891 C 725.013 266.134 745.767 266.144 767.293 265.729 C 783.771 265.412 801.637 263.613 817.682 263.698 C 832.083 263.775 846.869 265.201 861.712 265.181 L 992 265.405 C 1003.61 265.416 1015.65 264.684 1027.17 264.818 C 1037.34 264.937 1049.78 267.748 1060.05 267.718 L 1276.05 266.158 C 1299.57 266.104 1323.78 266.088 1347.34 264.448 C 1354.6 263.943 1372 270.951 1379.96 272.008 C 1388.61 273.156 1397.02 273.634 1405.8 273.912 C 1428.97 276.475 1462.2 293.706 1484.05 303.343 C 1494.06 307.756 1511.6 321.199 1522.08 326.772 C 1528.97 332.124 1544.67 337.749 1550.54 343.674 C 1569.01 362.311 1586.51 382.207 1606.48 399.645 C 1612.78 405.225 1615.96 419.074 1620.6 425.01 C 1638.53 447.936 1651.77 468.717 1658.95 497.253 C 1659.84 501.9 1666.94 516.103 1666.93 520.157 C 1666.89 542.672 1674.08 560.692 1678.72 582.158 C 1681.15 596.372 1676.77 611.622 1676.98 625.578 C 1677.61 667.607 1683.11 709.062 1676.88 750.812 C 1675.86 757.684 1681.06 772.421 1680.64 780.388 C 1678.96 811.764 1678.7 843.143 1676.89 874.528 C 1676.44 884.314 1681.14 897.624 1680.58 907.039 C 1679.53 924.774 1679.58 941.839 1679.75 959.55 C 1680.23 966.903 1675.94 983.206 1677.01 989.711 C 1682.61 1023.8 1675.88 1054.38 1674.05 1088.78 L 1671.13 1085.2 C 1619.75 1059.45 1602.86 988.41 1609.45 936.382 C 1611.09 923.462 1613.05 907.974 1613.15 895.057 C 1603.2 887.122 1577.99 856.547 1569.22 845.258 C 1566.21 841.393 1555.4 820.857 1550.55 813.478 C 1532.68 786.3 1514.07 762.153 1493.26 737.121 C 1473.45 730.342 1460.59 730.595 1441.02 726.662 C 1429.03 724.252 1415.05 719.857 1402.48 717.171 C 1359.67 708.022 1320.04 698.871 1278.72 684.218 C 1254.45 690.344 1233.22 692.776 1208.76 696.496 C 1178.83 701.047 1151.14 702.705 1120.94 703.434 C 1105.05 703.818 1088.67 707.159 1072.76 707.989 C 1033.23 709.101 993.47 709.853 953.996 706.904 C 942.491 706.044 927.44 707.842 916.569 706.213 C 887.208 701.816 857.537 700.838 828.202 697.366 C 808.873 695.079 788.648 690.133 769.56 686.286 C 699.55 712.188 623.401 722.701 551.79 741.773 C 544.314 743.764 498.272 809.806 492.696 820.067 C 476.573 849.737 457.299 871.398 435.455 897.288 C 438.698 923.815 442.853 949.223 440.143 976.103 C 435.425 1022.9 416.792 1057.99 378.924 1085.91 C 378.268 1128.22 384.778 1152.08 396.751 1192.48 C 399.514 1201.81 405.047 1212.68 407.56 1221.44 C 410.488 1231.65 409.998 1248.88 412.803 1259.69 C 417.47 1277.68 425.908 1294.71 432.398 1312.2 C 439.909 1332.44 444.599 1355.55 454.453 1374.5 L 452.731 1375.26 z"/>
<path transform="translate(0,0)" fill="rgb(254,254,253)" d="M 0 1036.44 C 1.22108 1040.81 1.60094 1042.4 2.17739 1046.85 C 4.52641 1076.14 4.57409 1105.77 7.86756 1134.73 C 9.66535 1150.54 15.6834 1168.5 17.6189 1184.94 C 19.3994 1203.59 20.2894 1221.64 23.3379 1240.15 C 26.3388 1258.38 35.965 1277.54 39.5792 1294.84 C 47.6547 1335.3 59.2146 1371.11 76.8539 1408.42 C 84.1568 1423.86 85.7676 1445.52 94.4562 1460.86 C 111.825 1491.53 128.746 1522.35 144.815 1553.76 C 148.988 1561.92 161.011 1571.63 165.528 1580.27 C 172.773 1592.02 178.621 1605.08 185.89 1616.74 C 192.805 1627.85 202.754 1638.26 210.178 1648.87 C 230.554 1678 251.338 1703.29 278.17 1726.74 C 288.389 1735.68 296.881 1752.52 309.124 1760.59 C 318.301 1768.07 329.548 1777.16 338.021 1785.13 C 347.562 1794.12 355.605 1803.67 365.745 1812.53 C 378.767 1823.92 392.367 1829.99 405.867 1839.52 C 418.721 1848.6 429.61 1859.46 443.234 1868.53 C 445.686 1870.4 448.386 1872.11 450.984 1873.78 C 479.287 1888.66 504.124 1907.94 531.965 1922.5 C 564.402 1939.47 598.371 1955.03 632.184 1968.92 C 646.588 1974.84 660.359 1983.54 675.327 1988.33 C 719.31 2003.65 759.995 2013.38 805.878 2022.06 C 828.437 2026.32 846.722 2031.9 870.732 2035.39 C 897.247 2039.26 922.608 2039.05 947.953 2042.31 L 949.928 2040.66 C 966.412 2041.76 979.021 2043.66 996.245 2044.36 C 998.731 2046.03 1007.65 2044.94 1011.81 2045.11 C 1014.32 2045.48 1016.59 2045.73 1019.11 2045.99 C 1021.32 2044.4 1021.77 2044.43 1024.49 2043.84 C 1025.15 2043.79 1025.82 2043.74 1026.48 2043.68 C 1030.72 2045.1 1033.29 2044.94 1037.57 2045.85 C 1049.18 2046.65 1063.7 2043.6 1075.57 2043.4 C 1084.76 2043.25 1094.61 2043.15 1103.71 2042.45 C 1115.83 2041.91 1130.03 2038.59 1142.04 2038.29 C 1185.4 2037.21 1224.62 2027.81 1266.01 2015.75 C 1277.04 2012.54 1291.12 2011.63 1302.93 2008.47 C 1330.27 2001.13 1357.02 1991.7 1383.81 1982.55 C 1399.94 1977.11 1415.62 1968 1431.29 1961.55 C 1443.87 1955.67 1460.17 1952.66 1472.42 1946.58 C 1494.08 1935.84 1515.46 1923.56 1537.44 1913.21 C 1547.78 1908.34 1559.6 1896.26 1569.68 1890.02 C 1583.27 1881.61 1597.11 1874.43 1610.33 1865.52 C 1623.2 1856.44 1634.76 1845.45 1647.1 1835.9 C 1657.36 1827.92 1670.24 1824.33 1679.67 1815.14 C 1701.58 1793.8 1722.33 1772.57 1746.43 1753.56 C 1751.76 1749.36 1758.51 1738.31 1764.17 1733.12 C 1775.04 1723.16 1786.33 1713.66 1796.22 1702.75 C 1814.34 1682.66 1821.76 1660.92 1842.62 1643 C 1860.93 1627.26 1873.47 1596.89 1886.41 1576.77 C 1892.47 1567.35 1899.68 1558.17 1905.58 1548.61 C 1911.54 1538.86 1915.8 1526.18 1922.14 1516.84 C 1935.57 1497.08 1944.31 1478.12 1953.87 1456.38 C 1964.89 1431.32 1974.45 1406.37 1982.92 1380.32 C 1985.27 1374.47 1987.38 1367.95 1989.86 1362.19 C 2002.79 1332.06 2009.63 1300.96 2015.09 1268.79 C 2016.17 1262.4 2021.52 1252.99 2022.48 1246.49 C 2026.63 1218.4 2033.02 1190.93 2038.19 1163.06 C 2042.36 1136.61 2043.51 1107.48 2044.72 1080.75 C 2045.37 1070.24 2045.46 1053.45 2048 1043.7 L 2048 2048 L 0 2048 L 0 1036.44 z"/>
<path transform="translate(0,0)" fill="rgb(0,0,0)" d="M 949.928 2040.66 C 966.412 2041.76 979.021 2043.66 996.245 2044.36 C 998.731 2046.03 1007.65 2044.94 1011.81 2045.11 C 1014.32 2045.48 1016.59 2045.73 1019.11 2045.99 C 1003.25 2048.66 964.229 2044.93 947.953 2042.31 L 949.928 2040.66 z"/>
<path transform="translate(0,0)" fill="rgb(0,0,0)" d="M 1024.49 2043.84 C 1025.15 2043.79 1025.82 2043.74 1026.48 2043.68 C 1030.72 2045.1 1033.29 2044.94 1037.57 2045.85 C 1032.47 2046.13 1023.95 2046.72 1019.11 2045.99 C 1021.32 2044.4 1021.77 2044.43 1024.49 2043.84 z"/>
<path transform="translate(0,0)" fill="rgb(14,8,5)" d="M 2042.77 1072.89 C 2043.3 1076.3 2043.07 1077.77 2044.72 1080.75 C 2043.51 1107.48 2042.36 1136.61 2038.19 1163.06 C 2033.02 1190.93 2026.63 1218.4 2022.48 1246.49 C 2021.52 1252.99 2016.17 1262.4 2015.09 1268.79 C 2009.63 1300.96 2002.79 1332.06 1989.86 1362.19 C 1987.38 1367.95 1985.27 1374.47 1982.92 1380.32 C 1974.45 1406.37 1964.89 1431.32 1953.87 1456.38 C 1944.31 1478.12 1935.57 1497.08 1922.14 1516.84 C 1915.8 1526.18 1911.54 1538.86 1905.58 1548.61 C 1899.68 1558.17 1892.47 1567.35 1886.41 1576.77 C 1873.47 1596.89 1860.93 1627.26 1842.62 1643 C 1821.76 1660.92 1814.34 1682.66 1796.22 1702.75 C 1786.33 1713.66 1775.04 1723.16 1764.17 1733.12 C 1758.51 1738.31 1751.76 1749.36 1746.43 1753.56 C 1722.33 1772.57 1701.58 1793.8 1679.67 1815.14 C 1670.24 1824.33 1657.36 1827.92 1647.1 1835.9 C 1634.76 1845.45 1623.2 1856.44 1610.33 1865.52 C 1597.11 1874.43 1583.27 1881.61 1569.68 1890.02 C 1559.6 1896.26 1547.78 1908.34 1537.44 1913.21 C 1515.46 1923.56 1494.08 1935.84 1472.42 1946.58 C 1460.17 1952.66 1443.87 1955.67 1431.29 1961.55 C 1415.62 1968 1399.94 1977.11 1383.81 1982.55 C 1357.02 1991.7 1330.27 2001.13 1302.93 2008.47 C 1291.12 2011.63 1277.04 2012.54 1266.01 2015.75 C 1224.62 2027.81 1185.4 2037.21 1142.04 2038.29 C 1130.03 2038.59 1115.83 2041.91 1103.71 2042.45 C 1094.61 2043.15 1084.76 2043.25 1075.57 2043.4 C 1063.7 2043.6 1049.18 2046.65 1037.57 2045.85 C 1033.29 2044.94 1030.72 2045.1 1026.48 2043.68 C 1025.82 2043.74 1025.15 2043.79 1024.49 2043.84 C 1021.77 2044.43 1021.32 2044.4 1019.11 2045.99 C 1016.59 2045.73 1014.32 2045.48 1011.81 2045.11 C 1007.65 2044.94 998.731 2046.03 996.245 2044.36 C 979.021 2043.66 966.412 2041.76 949.928 2040.66 L 947.953 2042.31 C 922.608 2039.05 897.247 2039.26 870.732 2035.39 C 846.722 2031.9 828.437 2026.32 805.878 2022.06 C 759.995 2013.38 719.31 2003.65 675.327 1988.33 C 660.359 1983.54 646.588 1974.84 632.184 1968.92 C 598.371 1955.03 564.402 1939.47 531.965 1922.5 C 504.124 1907.94 479.287 1888.66 450.984 1873.78 C 448.386 1872.11 445.686 1870.4 443.234 1868.53 L 444.393 1866.54 C 441.691 1864.8 439.928 1863.29 440.09 1860.17 C 440.512 1852.04 467.286 1823.13 472.003 1819.46 C 512.452 1787.99 562.331 1766.23 612.579 1756.48 C 619.416 1755.16 634.743 1756.52 641.689 1756.53 L 702.01 1756 C 707.95 1755.91 727.42 1756.2 731.484 1755.86 C 744.722 1754.38 759.644 1756.07 771.405 1754.13 C 786.953 1753.52 803.528 1753.63 819.198 1753.39 C 839.743 1753.09 861.293 1749.45 880.979 1755.11 C 879.577 1729.67 880.428 1704.5 878.089 1679.42 C 835.843 1672.57 793.751 1661.54 752.247 1650.77 C 736.794 1646.77 718.689 1632.7 703.439 1625.89 C 609.487 1583.95 535.165 1505.57 477.328 1422.21 C 470.175 1411.89 461.526 1391.41 454.853 1379.02 L 456.412 1377.33 C 459.104 1383.22 467.479 1396.05 471.114 1402.59 C 476.648 1412.53 483.383 1427.85 489.605 1436.6 C 501.525 1453.35 516.821 1471.16 530.482 1486.6 C 553.855 1513.01 578.007 1539.17 605.309 1561.58 C 613.961 1568.34 623.061 1574.61 632.072 1580.9 C 641.146 1587.23 650.184 1594.69 659.641 1600.39 C 675.17 1609.75 692.229 1616.79 708.44 1624.87 C 719.607 1630.43 729.177 1639.09 740.932 1643.47 C 751.799 1647.28 764.974 1650.67 776.164 1653.73 C 811.078 1663.19 846.351 1671.26 881.903 1677.93 C 887.854 1734.72 872.434 1793.76 909.706 1840.45 C 934.433 1871.42 968.033 1887.03 1007.36 1892.2 C 1037.65 1896.18 1077.37 1885.92 1103.86 1870.96 C 1112.89 1863.62 1118.18 1854.87 1128.13 1848.16 C 1164.88 1823.74 1169.06 1770.18 1167.45 1730 C 1166.59 1708.75 1166.6 1698.98 1169.24 1677.48 C 1190.76 1672.08 1207.48 1672.64 1228.44 1668.95 C 1237.79 1666.46 1248.08 1662 1257.26 1659.48 C 1305.48 1646.23 1351.64 1623.94 1393.9 1597.4 C 1403.91 1591.11 1414.44 1578.14 1424.21 1572.26 C 1452.49 1555.24 1474.12 1535.99 1494.53 1509.98 C 1499.4 1503.8 1511.81 1496.68 1517.22 1490.21 C 1530.85 1473.89 1543.1 1455.21 1555.88 1438.05 C 1568.56 1420.32 1577 1395.54 1588.72 1377.9 C 1609.23 1346.99 1619.54 1321.3 1625.4 1284.79 C 1626.53 1277.81 1634.25 1265.98 1635.69 1257.47 C 1638.18 1249.8 1637.59 1227.89 1640.84 1221.56 C 1650.02 1203.62 1653.45 1187.18 1659.13 1168.59 C 1668.52 1137.89 1670.89 1116.87 1671.13 1085.2 L 1674.05 1088.78 C 1674.12 1107.85 1673.4 1125.06 1668.82 1143.77 C 1662.19 1171.25 1653 1197.5 1643.81 1224.18 C 1640.67 1233.29 1640.58 1246.95 1637.79 1256.36 C 1631.28 1278.32 1624.55 1298.58 1619.96 1321.08 C 1615.54 1342.78 1597.19 1365.44 1587.62 1385.38 C 1574.99 1409.3 1564.89 1434.36 1547.05 1454.97 C 1541.47 1461.42 1535.15 1468.36 1531.41 1475.99 C 1523.93 1492.58 1507.09 1500.67 1494.9 1513.18 C 1481.63 1527.83 1473.86 1539.65 1457.12 1552.45 C 1446.01 1561.31 1433.55 1568.95 1422.1 1577.31 C 1413.95 1583.27 1405.64 1593.17 1397.5 1598.43 C 1346.42 1631.49 1290.77 1653.83 1232.45 1670.52 C 1213.92 1675.81 1190.98 1673.87 1171.97 1679.5 C 1169.93 1705.03 1171.38 1726.91 1169.79 1752.54 C 1176.85 1751.61 1191.21 1751.84 1198.43 1752.81 L 1360.66 1754.36 C 1383.79 1754.38 1415.4 1751 1437.79 1754.1 C 1459.15 1757.06 1492.17 1770.7 1513.63 1777.65 C 1517.07 1778.76 1533.96 1789.34 1538.49 1791.99 C 1555.62 1802 1572.72 1810.45 1586.58 1825.06 C 1592.56 1831.37 1595.66 1835.53 1600.62 1842.7 C 1601.22 1843.26 1601.19 1843.14 1601.49 1843.86 C 1607.06 1850.01 1609.92 1853.12 1614.39 1860 C 1625.78 1850.18 1637.49 1839.92 1649.78 1831.24 C 1655.63 1827.11 1668.56 1821.56 1673.49 1817.26 C 1686.05 1806.26 1698.12 1792.9 1710.22 1781.26 C 1719.77 1772.07 1729.61 1764.26 1739.77 1755.86 C 1749.08 1748.17 1755.74 1737.56 1764.22 1729.28 C 1777.18 1716.6 1791.81 1705.36 1803 1690.89 C 1811.5 1679.89 1818.42 1666.19 1826.96 1655.35 C 1833.57 1646.96 1844.04 1639.24 1850.57 1630.54 C 1864.11 1612.51 1874.01 1593.41 1885.31 1574.08 C 1889.69 1566.49 1896.65 1559.06 1900.86 1551.48 C 1909.72 1535.48 1917.86 1519.43 1927.34 1503.74 C 1931.25 1497.27 1937.18 1487.73 1940.06 1481.02 C 1948.59 1461.23 1957.77 1441.68 1965.83 1421.72 C 1971.99 1407.45 1975.77 1389.32 1981.91 1375.5 C 1997.71 1339.95 2006.65 1305.19 2013.17 1267.02 C 2014.73 1257.88 2019.69 1247 2021.43 1237.32 C 2023.49 1225.85 2024.85 1214.15 2027.04 1202.7 C 2031.02 1185.78 2034.64 1172.19 2036.82 1154.67 C 2040.22 1127.4 2040.44 1100.19 2042.77 1072.89 z"/>
<path transform="translate(0,0)" fill="rgb(254,129,90)" d="M 469.375 1881.02 C 490.358 1875.84 510.488 1868.12 530.975 1864.29 C 544.438 1861.78 564.557 1863.61 578.51 1863.67 L 644.254 1863.98 C 656.646 1864.04 673.529 1861.2 685.004 1861.97 C 713.587 1863.87 739.411 1861.12 767.536 1858.92 C 780.324 1857.91 802.985 1863.86 817.795 1864.57 C 830.926 1887.45 863.985 1926.55 884.355 1942.3 C 900.418 1954.73 944.051 1975.09 964.149 1980.68 C 985.692 1982.96 1013.07 1985.99 1034.28 1986.82 C 1075.21 1988.42 1113.72 1971.94 1148.01 1951.17 C 1161.99 1942.7 1182.66 1921.96 1195.89 1910.77 C 1205.04 1903.03 1220.98 1876.53 1228.5 1865.37 C 1260.81 1864.01 1288.71 1858.87 1321.75 1863.43 C 1337.48 1865.61 1359.55 1861.72 1375.71 1862.77 C 1402.5 1867.57 1426.08 1861.36 1450.81 1861.66 C 1490.24 1862.15 1544.28 1866.1 1580.58 1880.51 C 1564.48 1890.41 1552.47 1900.57 1537 1910.7 C 1528.46 1915.16 1519.38 1919.64 1510.64 1923.64 C 1500.31 1928.37 1489.33 1936.58 1478.92 1940.53 C 1448.38 1952.14 1418.76 1964.51 1388.92 1977.74 C 1365.03 1988.32 1337.4 1994.9 1312.65 2003.51 C 1295.61 2008.85 1275.86 2011.06 1258.42 2015.4 C 1237.04 2020.71 1214.57 2028.28 1192.83 2031.34 C 1175.5 2033.77 1155.83 2035.28 1138.23 2036.37 C 1125.46 2037.15 1109.43 2040.22 1097.72 2040.61 C 1073.71 2041.41 1050.56 2042.14 1026.48 2043.68 C 1025.82 2043.74 1025.15 2043.79 1024.49 2043.84 C 1021.77 2044.43 1021.32 2044.4 1019.11 2045.99 C 1016.59 2045.73 1014.32 2045.48 1011.81 2045.11 C 1007.65 2044.94 998.731 2046.03 996.245 2044.36 C 979.021 2043.66 966.412 2041.76 949.928 2040.66 C 922.812 2037.4 895.777 2036.76 868.611 2032.57 C 845.602 2029.02 823.526 2023.3 800.963 2018.92 C 759.674 2010.91 721.984 2001.27 682.136 1987.83 C 662.17 1981.1 646.811 1972.69 627.971 1964.91 C 570.756 1941.27 520.475 1915.99 469.375 1881.02 z"/>
<path transform="translate(0,0)" fill="rgb(112,59,47)" d="M 996.245 2044.36 C 1000.2 2043.76 1009.09 2043.94 1013.32 2044.01 L 1011.81 2045.11 C 1007.65 2044.94 998.731 2046.03 996.245 2044.36 z"/>
<path transform="translate(0,0)" fill="rgb(14,8,5)" d="M 1013.32 2044.01 C 1017.07 2044.03 1020.74 2043.91 1024.49 2043.84 C 1021.77 2044.43 1021.32 2044.4 1019.11 2045.99 C 1016.59 2045.73 1014.32 2045.48 1011.81 2045.11 L 1013.32 2044.01 z"/>
<path transform="translate(0,0)" fill="rgb(254,254,253)" d="M 702.01 1756 C 707.95 1755.91 727.42 1756.2 731.484 1755.86 C 756.64 1758.92 768.415 1756.18 791.82 1755.96 C 791.468 1799.2 804.377 1821.06 816.871 1862.27 C 800.006 1860.49 783.648 1857.77 766.708 1856.39 C 754.082 1855.36 738.69 1860.6 727.227 1859.94 C 699.2 1858.33 671.719 1860.79 644.001 1860.89 L 574.234 1860.57 C 562.098 1860.52 542.495 1858.89 531.189 1861.1 C 508.937 1865.43 489.433 1874.07 466.258 1879.35 L 452.704 1872.29 L 450.984 1873.78 C 448.386 1872.11 445.686 1870.4 443.234 1868.53 L 444.393 1866.54 C 441.691 1864.8 439.928 1863.29 440.09 1860.17 C 440.512 1852.04 467.286 1823.13 472.003 1819.46 C 512.452 1787.99 562.331 1766.23 612.579 1756.48 C 619.416 1755.16 634.743 1756.52 641.689 1756.53 L 702.01 1756 z"/>
<path transform="translate(0,0)" fill="rgb(91,89,86)" d="M 444.393 1866.54 C 447.225 1868.37 449.997 1870.28 452.704 1872.29 L 450.984 1873.78 C 448.386 1872.11 445.686 1870.4 443.234 1868.53 L 444.393 1866.54 z"/>
<path transform="translate(0,0)" fill="rgb(71,44,15)" d="M 1169.79 1752.54 C 1176.85 1751.61 1191.21 1751.84 1198.43 1752.81 C 1191.76 1753.5 1176.44 1753.78 1169.79 1752.54 z"/>
<path transform="translate(0,0)" fill="rgb(254,254,253)" d="M 1170.49 1755.12 C 1186.47 1754.39 1200.61 1755.63 1216.29 1755.75 C 1227.96 1755.84 1240.92 1755.16 1252.81 1754.99 C 1254.11 1791.93 1242.63 1827.94 1227.21 1861.08 C 1208.66 1894.02 1186.06 1920.3 1155.67 1943.36 C 1138.07 1956.71 1109.61 1969.04 1088.64 1976.91 C 1077.1 1981.24 1053.86 1982.99 1040.95 1983.89 C 1021.21 1981.87 981.549 1982.9 964.101 1977.78 C 933.779 1968.89 893.898 1949.56 871.789 1927.23 C 851.724 1906.96 829.601 1882.32 817.799 1856.29 C 813.465 1847.61 812.259 1833.14 808.548 1824.93 C 796.824 1798.99 795.184 1784.37 794.724 1755.99 C 809.247 1756.1 825.71 1756.59 840.025 1755.58 C 855.588 1754.31 865.375 1754.37 880.764 1756.87 C 881.213 1840.85 941.868 1894.19 1023.71 1896.18 C 1044.17 1896.68 1083.72 1884.55 1102.07 1875.26 C 1109.12 1871.69 1115.6 1862.23 1121.47 1857 C 1154.5 1834.26 1171.45 1797.61 1170.49 1755.12 z"/>
<path transform="translate(0,0)" fill="rgb(254,254,253)" d="M 1254.87 1754.78 C 1265.86 1754.96 1278.53 1757.17 1289.18 1756.78 C 1315.24 1755.82 1340.41 1756.43 1366.44 1757.21 C 1390.89 1757.51 1416.65 1753.04 1440.87 1757.36 C 1463.04 1761.31 1485.35 1771.91 1507.37 1777.51 C 1519.12 1780.5 1526.23 1788.68 1536.09 1794.25 C 1559.75 1807.59 1581.8 1817.88 1597.24 1841.47 C 1601.8 1848.33 1607.38 1853.51 1611.44 1861.71 C 1604.06 1867.42 1591.09 1877.1 1581.8 1878.22 C 1568.56 1873.08 1537.68 1865.61 1522.94 1863.76 C 1499.52 1860.82 1470.07 1859.78 1446.11 1858.87 C 1436.22 1858.49 1420.63 1863.58 1411.44 1862.39 C 1381.32 1858.49 1352.88 1859.99 1322.72 1861.3 C 1311.78 1861.74 1297.63 1857.89 1286.33 1858.48 C 1267.42 1859.47 1248.91 1861.8 1229.91 1862.66 C 1244.04 1831.02 1257 1789.69 1254.87 1754.78 z"/>
<path transform="translate(0,0)" fill="rgb(254,254,253)" d="M 0 0 L 997.541 0 C 991.564 1.40762 986.308 1.75875 980.224 2.23318 C 960.205 2.93378 937.641 3.26482 918.03 6.08417 C 899.528 8.74412 880.534 13.6584 861.918 16.7049 C 846.843 19.172 827.85 20.0312 813.5 23.2251 C 762.517 34.5721 712.222 47.1263 663.858 67.1669 C 652.618 71.8244 638.878 75.518 626.874 80.3087 C 603.943 89.4608 583.229 99.5951 561.202 110.6 C 542.264 120.062 524.529 126.841 506.282 138.074 C 491.526 147.158 480.429 157.091 466.651 166.809 C 457.001 173.615 443.477 177.679 432.911 185.426 C 422.157 193.311 413.513 203.441 403.711 211.142 C 386.405 224.738 367.292 232.149 352.532 249.641 C 347.775 255.278 338.733 264.667 333.047 269.467 C 324.35 276.811 311.53 283.636 303.151 291.251 C 290.718 302.551 282.711 318.566 271.188 331.107 C 264.061 338.864 254.047 343.618 247.793 350.454 C 238.892 361.005 233.555 373.508 225.295 384.678 C 218.115 394.387 206.215 402.858 199.525 412.51 C 187.008 430.677 175.539 449.875 162.677 467.817 C 158.759 473.284 151.349 490.88 148.087 494.3 C 127.459 515.93 120.286 537.797 109.393 564.879 C 106.216 572.776 96.2955 583.138 92.9125 591.539 C 85.1554 609.671 80.739 630.28 73.8889 648.818 C 67.9573 664.87 57.6853 681.848 52.1324 697.83 C 45.1095 718.042 40.7606 740.679 36.1644 761.541 C 33.6773 772.83 27.6081 787.142 25.6916 797.857 C 23.4219 810.548 20.367 826.626 18.7255 839.402 C 16.2419 858.732 10.4511 882.938 8.83425 901.744 C 6.84836 924.843 4.9025 948.843 3.00474 972.046 C 2.67383 974.701 2.30761 977.352 1.90617 979.997 C 1.55734 982.339 0.67787 984.857 0 987.147 L 0 0 z"/>
<path transform="translate(0,0)" fill="rgb(254,254,253)" d="M 1050.76 0 L 2048 0 L 2048 1035.47 C 2046.91 1030.37 2046.68 1003.76 2045.73 994.116 C 2043.75 965.917 2045.3 937.179 2041.63 908.926 C 2041.37 893.366 2033.25 873.612 2032.38 858.863 C 2030.65 829.533 2024.97 810.049 2016.92 782.34 C 2008.82 754.442 2005.93 721.772 1993.28 694.905 C 1978.72 663.983 1971.58 631.256 1958.37 599.883 C 1955.48 587.672 1939.11 568.635 1935.94 558.18 C 1927.14 529.198 1916.27 515.307 1899.43 490.41 L 1866.03 440.664 C 1858.31 429.34 1852.93 415.994 1845.35 405.91 C 1838.82 397.21 1827.02 386.42 1819.41 377.813 L 1751.3 300.023 C 1742.97 290.42 1733.38 288.295 1727.08 281.577 C 1704.8 257.848 1685.4 237.815 1657.47 220.333 C 1648.94 214.995 1638.72 200.883 1629.18 194.596 C 1615.37 185.501 1601.35 176.575 1587.24 167.901 C 1554.28 144.777 1520.44 125.966 1483.72 109.408 C 1474.68 105.871 1461.18 95.2271 1452.43 92.8729 C 1430.52 86.9826 1410.58 75.2039 1390.34 67.3935 C 1356.58 54.3682 1321.44 42.5157 1286.28 34.2716 C 1270.75 30.6303 1255.23 25.0675 1239.45 22.156 C 1225.02 19.3904 1210 18.9189 1195.56 16.4087 C 1149.56 8.41239 1104.28 4.65553 1057.76 1.34589 C 1055.33 0.930788 1053.17 0.544767 1050.76 0 z"/>
<path transform="translate(0,0)" fill="rgb(14,8,5)" d="M 1057.76 1.34589 C 1104.28 4.65553 1149.56 8.41239 1195.56 16.4087 C 1210 18.9189 1225.02 19.3904 1239.45 22.156 C 1255.23 25.0675 1270.75 30.6303 1286.28 34.2716 C 1321.44 42.5157 1356.58 54.3682 1390.34 67.3935 C 1410.58 75.2039 1430.52 86.9826 1452.43 92.8729 C 1461.18 95.2271 1474.68 105.871 1483.72 109.408 C 1520.44 125.966 1554.28 144.777 1587.24 167.901 C 1601.35 176.575 1615.37 185.501 1629.18 194.596 C 1638.72 200.883 1648.94 214.995 1657.47 220.333 C 1685.4 237.815 1704.8 257.848 1727.08 281.577 C 1733.38 288.295 1742.97 290.42 1751.3 300.023 L 1819.41 377.813 C 1827.02 386.42 1838.82 397.21 1845.35 405.91 C 1852.93 415.994 1858.31 429.34 1866.03 440.664 L 1899.43 490.41 C 1916.27 515.307 1927.14 529.198 1935.94 558.18 C 1939.11 568.635 1955.48 587.672 1958.37 599.883 C 1971.58 631.256 1978.72 663.983 1993.28 694.905 C 2005.93 721.772 2008.82 754.442 2016.92 782.34 C 2024.97 810.049 2030.65 829.533 2032.38 858.863 C 2033.25 873.612 2041.37 893.366 2041.63 908.926 C 2045.3 937.179 2043.75 965.917 2045.73 994.116 L 2043.54 997.576 C 2041.01 969.474 2043.04 939.318 2039.4 910.933 C 2036.86 891.107 2032.84 873.08 2029.13 853.537 C 2026.9 843.449 2027.98 829.106 2025.01 819.439 C 2013.35 781.439 2006.5 742.271 1995.02 704.29 C 1991.68 693.246 1984.33 681.943 1980.5 670.555 C 1971.77 644.585 1963.76 618.279 1952.58 593.246 C 1945.06 576.661 1933.96 563.077 1928.43 545.49 C 1926.3 538.703 1922.24 530.778 1918.78 524.563 C 1912.39 513.102 1904.03 502.51 1896.8 491.563 C 1884.57 472.886 1873.05 453.861 1859.69 435.931 C 1854.24 428.641 1850.71 416.774 1845.03 409.505 C 1839.95 402.994 1832.78 395.984 1827.04 389.915 C 1817.36 379.584 1807.76 369.185 1798.23 358.717 C 1781.15 340.048 1765.42 321.812 1749.81 301.879 C 1741.5 291.263 1732.47 290.385 1725.98 284.163 C 1713.96 272.659 1703.11 259.627 1690.69 247.876 C 1682.09 238.323 1667.27 232.438 1658.29 224.131 C 1641.36 207.605 1625.29 194.124 1605.01 181.729 C 1565.38 157.507 1528.75 131.364 1485.59 112.979 C 1476.05 108.917 1462.89 98.9296 1453.58 96.0169 C 1428.3 88.1095 1405.41 76.2384 1381.09 66.6479 C 1335.97 49.3387 1289.57 35.5797 1242.32 25.4964 C 1226.68 22.2825 1210.59 21.6158 1195.01 18.9257 C 1148.29 10.8588 1101.05 6.80052 1053.74 3.41275 L 1057.76 1.34589 z"/>
<path transform="translate(0,0)" fill="rgb(14,8,5)" d="M 3.00474 972.046 C 4.9025 948.843 6.84836 924.843 8.83425 901.744 C 10.4511 882.938 16.2419 858.732 18.7255 839.402 C 20.367 826.626 23.4219 810.548 25.6916 797.857 C 27.6081 787.142 33.6773 772.83 36.1644 761.541 C 40.7606 740.679 45.1095 718.042 52.1324 697.83 C 57.6853 681.848 67.9573 664.87 73.8889 648.818 C 80.739 630.28 85.1554 609.671 92.9125 591.539 C 96.2955 583.138 106.216 572.776 109.393 564.879 C 120.286 537.797 127.459 515.93 148.087 494.3 C 151.349 490.88 158.759 473.284 162.677 467.817 C 175.539 449.875 187.008 430.677 199.525 412.51 C 206.215 402.858 218.115 394.387 225.295 384.678 C 233.555 373.508 238.892 361.005 247.793 350.454 C 254.047 343.618 264.061 338.864 271.188 331.107 C 282.711 318.566 290.718 302.551 303.151 291.251 C 311.53 283.636 324.35 276.811 333.047 269.467 C 338.733 264.667 347.775 255.278 352.532 249.641 C 367.292 232.149 386.405 224.738 403.711 211.142 C 413.513 203.441 422.157 193.311 432.911 185.426 C 443.477 177.679 457.001 173.615 466.651 166.809 C 480.429 157.091 491.526 147.158 506.282 138.074 C 524.529 126.841 542.264 120.062 561.202 110.6 C 583.229 99.5951 603.943 89.4608 626.874 80.3087 C 638.878 75.518 652.618 71.8244 663.858 67.1669 C 712.222 47.1263 762.517 34.5721 813.5 23.2251 C 827.85 20.0312 846.843 19.172 861.918 16.7049 C 880.534 13.6584 899.528 8.74412 918.03 6.08417 C 937.641 3.26482 960.205 2.93378 980.224 2.23318 L 984.118 4.44281 C 942.022 5.96004 905.994 8.71892 864.885 18.3886 C 850.466 21.7801 832.679 21.3121 817.986 24.818 C 791.731 29.7934 766.024 37.5851 740.117 43.9176 C 714.302 49.8624 690.317 60.1357 665.539 69.291 C 639.634 78.8631 611.828 87.6377 587.086 100.221 C 559.954 114.021 531.646 126.102 505.385 141.411 C 491.393 149.568 479.033 161.456 465.583 170.508 C 454.574 177.288 442.524 181.135 432.208 189.142 C 421.207 197.682 411.764 208.644 400.696 216.927 C 389.058 225.636 375.461 232.018 364.364 241.637 C 353.559 251.003 344.758 262.323 333.979 271.671 C 323.254 280.808 308.683 287.702 299.2 298.488 C 289.857 309.115 282.321 321.508 273.186 332.369 C 267.114 339.587 256.263 345.604 250.405 351.915 C 241.652 361.343 234.948 375.922 226.892 386.285 C 219.601 395.664 207.795 404.818 201.177 414.071 C 193.802 424.381 186.891 436.082 179.631 446.613 C 174.173 454.531 168.585 462.438 163.401 470.529 C 159.378 476.808 155.879 487.318 151.988 493.13 C 146.773 500.918 135.906 510.686 131.482 519.162 C 124.167 533.41 119.507 548.977 112.765 563.458 C 108.232 573.088 99.8661 582.131 95.8227 591.85 C 85.1375 617.535 80.5301 645.535 67.2442 670.173 C 51.0654 700.175 44.7071 732.507 38.1135 765.505 C 36.3684 774.239 30.7165 783.619 29.2882 792.663 C 26.0481 812.024 22.9947 831.466 19.8538 850.846 C 16.8012 869.682 13.4219 888.491 10.7816 907.377 C 8.60688 929.068 9.23681 952.291 5.41368 974.317 L 3.00474 972.046 z"/>
<path transform="translate(0,0)" fill="rgb(14,8,5)" d="M 4.21975 1045.23 C 8.03546 1073.11 7.27951 1102.01 9.87407 1129.84 C 12.1949 1149.98 18.0337 1169.43 20.8438 1189.51 C 23.0708 1205.42 21.8284 1222.96 25.439 1238.55 C 29.7986 1257.37 36.6103 1276.12 41.7151 1294.78 C 47.9134 1317.44 52.576 1340.56 60.2062 1362.79 C 67.1507 1380.46 75.1796 1397.3 82.1265 1415.03 C 87.3051 1428.24 90.0018 1448.53 96.985 1460.51 C 115.158 1491.69 131.35 1524.01 149.1 1555.37 C 154.094 1564.19 164.417 1572.8 169.55 1581.89 C 175.838 1591.8 180.743 1604.58 186.771 1613.9 C 191.927 1621.88 200.225 1631.64 206.011 1639.51 C 218.395 1656.36 230.65 1672.86 244.051 1688.92 C 255.339 1702.54 268.592 1713.66 281.085 1726.19 C 288.49 1733.61 296.406 1746.42 304.269 1752.72 C 328.643 1772.24 350.017 1794.68 373.239 1815.18 C 382.578 1823.42 397.297 1829.57 407.212 1837.47 C 417.035 1844.26 427.503 1855.06 437.085 1861.52 C 443.011 1844.27 446.916 1845.02 456.52 1832.35 C 477.685 1804.42 505.664 1795.7 534.602 1778.31 C 543.519 1772.96 558.979 1769.7 568.933 1765.68 C 597.703 1754.47 617.441 1751.54 648.121 1753.72 C 663.451 1754.81 685.683 1754.52 701.672 1754.05 L 702.01 1756 L 641.689 1756.53 C 634.743 1756.52 619.416 1755.16 612.579 1756.48 C 562.331 1766.23 512.452 1787.99 472.003 1819.46 C 467.286 1823.13 440.512 1852.04 440.09 1860.17 C 439.928 1863.29 441.691 1864.8 444.393 1866.54 L 443.234 1868.53 C 429.61 1859.46 418.721 1848.6 405.867 1839.52 C 392.367 1829.99 378.767 1823.92 365.745 1812.53 C 355.605 1803.67 347.562 1794.12 338.021 1785.13 C 329.548 1777.16 318.301 1768.07 309.124 1760.59 C 296.881 1752.52 288.389 1735.68 278.17 1726.74 C 251.338 1703.29 230.554 1678 210.178 1648.87 C 202.754 1638.26 192.805 1627.85 185.89 1616.74 C 178.621 1605.08 172.773 1592.02 165.528 1580.27 C 161.011 1571.63 148.988 1561.92 144.815 1553.76 C 128.746 1522.35 111.825 1491.53 94.4562 1460.86 C 85.7676 1445.52 84.1568 1423.86 76.8539 1408.42 C 59.2146 1371.11 47.6547 1335.3 39.5792 1294.84 C 35.965 1277.54 26.3388 1258.38 23.3379 1240.15 C 20.2894 1221.64 19.3994 1203.59 17.6189 1184.94 C 15.6834 1168.5 9.66535 1150.54 7.86756 1134.73 C 4.57409 1105.77 4.52641 1076.14 2.17739 1046.85 L 4.21975 1045.23 z"/>
<path transform="translate(0,0)" fill="rgb(0,0,0)" d="M 2045.73 994.116 C 2046.68 1003.76 2046.91 1030.37 2048 1035.47 L 2048 1043.7 C 2045.46 1053.45 2045.37 1070.24 2044.72 1080.75 C 2043.07 1077.77 2043.3 1076.3 2042.77 1072.89 C 2042.77 1048.26 2045.69 1022.64 2043.54 997.576 L 2045.73 994.116 z"/>
<path transform="translate(0,0)" fill="rgb(0,0,0)" d="M 997.541 0 L 1050.76 0 C 1053.17 0.544767 1055.33 0.930788 1057.76 1.34589 L 1053.74 3.41275 C 1039.18 2.01487 999.221 3.29527 984.118 4.44281 L 980.224 2.23318 C 986.308 1.75875 991.564 1.40762 997.541 0 z"/>
<path transform="translate(0,0)" fill="rgb(0,0,0)" d="M 3.00474 972.046 L 5.41368 974.317 C 2.05458 1002.28 2.05567 1017.6 4.21975 1045.23 L 2.17739 1046.85 C 1.60094 1042.4 1.22108 1040.81 0 1036.44 L 0 987.147 C 0.67787 984.857 1.55734 982.339 1.90617 979.997 C 2.30761 977.352 2.67383 974.701 3.00474 972.046 z"/>
<path transform="translate(0,0)" fill="rgb(137,94,33)" d="M 701.672 1754.05 C 708.677 1753.73 719.972 1754.03 727.312 1754.14 C 741.099 1754.35 757.959 1753.51 771.405 1754.13 C 759.644 1756.07 744.722 1754.38 731.484 1755.86 C 727.42 1756.2 707.95 1755.91 702.01 1756 L 701.672 1754.05 z"/>
<path transform="translate(0,0)" fill="rgb(71,44,15)" d="M 454.453 1374.5 C 455.14 1375.45 455.755 1376.36 456.412 1377.33 L 454.853 1379.02 C 454.036 1377.66 453.463 1376.66 452.731 1375.26 L 454.453 1374.5 z"/>
</svg>