<svg version="1.1" xmlns="http://www.w3.org/2000/svg" viewBox="0 0 2048 2048" width="1024" height="1024"><path transform="translate(0,0)" fill="rgb(30,118,214)" d="M 850.4 1522.0 L 850.5 1590.3 L 806.0 1594.3 L 753.6 1603.8 L 702.7 1618.4 L 653.6 1637.8 L 606.6 1662.0 L 562.1 1690.7 L 520.5 1723.8 L 488.3 1754.6 L 458.7 1787.6 L 434.6 1818.8 L 413.1 1851.7 L 391.1 1891.9 L 372.7 1933.8 L 359.9 1971.0 L 349.9 2009.1 L 342.7 2048.0 L 1698.3 2048.0 L 1696.7 2031.0 L 1692.7 2011.6 L 1670.8 1933.4 L 1672.7 1930.6 L 1651.4 1885.8 L 1626.6 1843.3 L 1604.3 1811.0 L 1586.2 1787.9 L 1546.6 1744.7 L 1502.7 1706.0 L 1454.9 1672.1 L 1420.9 1652.5 L 1385.3 1635.3 L 1348.3 1620.7 L 1307.1 1608.1 L 1297.5 1604.0 L 1252.0 1595.2 L 1197.5 1590.1 L 1198.1 1530.3 L 1197.1 1520.6 L 878.1 1520.0 L 852.0 1520.3 z"/><path transform="translate(0,0)" fill="rgb(50,118,183)" d="M 1297.7 1604.2 L 1348.3 1620.7 L 1376.2 1631.4 L 1412.1 1647.9 L 1446.5 1667.0 L 1479.3 1688.4 L 1510.3 1712.1 L 1539.6 1737.9 L 1567.0 1765.7 L 1592.4 1795.4 L 1621.3 1835.0 L 1641.9 1868.5 L 1660.4 1903.5 L 1672.7 1930.6 L 1670.8 1933.4 L 1692.7 2011.6 L 1696.7 2031.0 L 1698.3 2048.0 L 1706.2 2048.0 L 1697.6 2001.4 L 1689.0 1970.3 L 1677.0 1935.9 L 1662.5 1902.5 L 1645.8 1870.1 L 1620.2 1828.7 L 1598.6 1799.2 L 1566.9 1762.1 L 1532.1 1727.9 L 1504.2 1704.3 L 1474.7 1682.6 L 1443.9 1662.9 L 1401.0 1640.0 L 1367.4 1625.6 L 1332.9 1613.5 z"/><path transform="translate(0,0)" fill="rgb(245,178,150)" d="M 850.0 1521.2 L 850.0 1537.8 L 866.6 1560.3 L 888.8 1581.1 L 913.5 1598.3 L 937.8 1610.8 L 963.5 1620.0 L 992.8 1626.0 L 1019.2 1628.2 L 1044.9 1627.4 L 1069.8 1623.8 L 1098.4 1615.7 L 1121.0 1605.9 L 1142.4 1593.3 L 1162.5 1578.0 L 1181.1 1560.1 L 1198.1 1539.6 L 1197.5 1520.7 L 1189.2 1520.0 L 854.6 1520.3 z"/><path transform="translate(0,0)" fill="rgb(254,205,180)" d="M 850.0 1521.2 L 849.9 1583.0 L 853.4 1614.5 L 859.4 1639.4 L 870.6 1666.0 L 879.1 1680.4 L 889.0 1694.0 L 910.8 1716.4 L 923.6 1726.3 L 938.6 1735.7 L 968.0 1748.8 L 984.8 1753.7 L 1002.1 1756.8 L 1019.6 1758.2 L 1037.3 1757.9 L 1069.2 1752.8 L 1083.8 1748.2 L 1102.3 1740.2 L 1115.5 1732.8 L 1132.0 1721.2 L 1143.4 1711.4 L 1157.3 1696.8 L 1169.3 1680.8 L 1177.2 1667.9 L 1189.2 1640.2 L 1194.4 1620.7 L 1197.1 1600.4 L 1198.2 1567.2 L 1197.5 1520.7 L 1171.7 1519.8 L 857.4 1520.2 z"/></svg>