<svg version="1.1" xmlns="http://www.w3.org/2000/svg" viewBox="0 0 2048 2048" width="1024" height="1024"><path transform="translate(0,0)" fill="rgb(140,122,110)" stroke="rgb(140,122,110)" stroke-width="8.0" d="M 1330.8 1519.0 L 1342.1 1544.8 L 1350.3 1560.5 L 1362.1 1579.6 L 1372.6 1594.4 L 1399.0 1625.5 L 1443.4 1669.0 L 1461.7 1689.0 L 1482.1 1715.1 L 1498.9 1741.6 L 1506.9 1757.1 L 1513.6 1773.0 L 1519.2 1789.3 L 1523.6 1806.1 L 1526.8 1823.4 L 1528.7 1841.4 L 1529.4 1860.2 L 1528.9 1879.7 L 1552.9 1877.8 L 1578.4 1873.2 L 1600.6 1866.7 L 1624.7 1857.1 L 1653.4 1842.0 L 1676.7 1827.1 L 1698.6 1810.4 L 1719.0 1792.1 L 1737.8 1772.2 L 1754.9 1750.8 L 1770.1 1728.2 L 1783.5 1704.3 L 1795.0 1679.2 L 1804.4 1653.2 L 1811.5 1626.8 L 1816.1 1603.2 L 1820.6 1563.9 L 1821.4 1519.0 L 1758.1 1519.0 L 1756.8 1544.2 L 1754.7 1564.3 L 1747.7 1604.0 L 1736.8 1642.7 L 1721.8 1679.9 L 1702.7 1715.2 L 1691.6 1732.0 L 1679.4 1748.2 L 1666.2 1763.7 L 1651.9 1778.5 L 1639.3 1789.9 L 1622.6 1803.3 L 1648.5 1766.1 L 1660.9 1744.1 L 1674.8 1715.0 L 1688.8 1677.1 L 1699.1 1638.0 L 1706.0 1598.0 L 1709.4 1557.5 L 1709.5 1519.0 z M 1622.3 1803.9 L 1622.8 1803.8 L 1622.2 1804.1 z"/><path transform="translate(0,0)" fill="rgb(114,97,86)" stroke="rgb(114,97,86)" stroke-width="8.0" d="M 1709.5 1519.0 L 1708.4 1573.7 L 1704.9 1606.1 L 1697.4 1645.9 L 1688.8 1677.1 L 1674.8 1715.0 L 1660.9 1744.1 L 1648.5 1766.1 L 1622.6 1803.3 L 1642.3 1787.4 L 1659.2 1771.2 L 1673.0 1756.1 L 1691.6 1732.0 L 1702.7 1715.2 L 1717.4 1688.9 L 1729.8 1661.5 L 1739.9 1633.1 L 1747.7 1604.0 L 1753.3 1574.3 L 1756.8 1544.2 L 1758.1 1519.0 z"/></svg>